SplineFontDB: 3.0
FontName: CourerMegaSS-840wt
FullName: Courer Mega SS 840 wt
FamilyName: Courer Mega SS
Weight: Black
Copyright: Copyright (c) 2013 by Richard Alexander Hall. All rights reserved.
Version: 0.001 2013
ItalicAngle: 0
UnderlinePosition: -120
UnderlineWidth: 130
Ascent: 1638
Descent: 410
sfntRevision: 0x00000042
LayerCount: 2
Layer: 0 1 "Back"  1
Layer: 1 1 "Fore"  0
XUID: [1021 724 1758327272 14588841]
FSType: 0
OS2Version: 3
OS2_WeightWidthSlopeOnly: 0
OS2_UseTypoMetrics: 1
CreationTime: 1366805118
ModificationTime: 1366793358
PfmFamily: 17
TTFWeight: 840
TTFWidth: 5
LineGap: 0
VLineGap: 0
Panose: 2 6 5 9 0 0 0 2 0 4
OS2TypoAscent: 1421
OS2TypoAOffset: 0
OS2TypoDescent: -643
OS2TypoDOffset: 0
OS2TypoLinegap: 0
OS2WinAscent: 1797
OS2WinAOffset: 0
OS2WinDescent: 839
OS2WinDOffset: 0
HheadAscent: 1421
HheadAOffset: 0
HheadDescent: -643
HheadDOffset: 0
OS2SubXSize: 1434
OS2SubYSize: 1331
OS2SubXOff: 0
OS2SubYOff: 293
OS2SupXSize: 1434
OS2SupYSize: 1331
OS2SupXOff: 0
OS2SupYOff: 928
OS2StrikeYSize: 102
OS2StrikeYPos: 512
OS2FamilyClass: 1285
OS2Vendor: 'RAH7'
OS2CodePages: 00000093.00000000
OS2UnicodeRanges: a00000af.500068fb.00000000.00000000
DEI: 91125
TtTable: prep
PUSHW_1
 0
CALL
SVTCA[y-axis]
PUSHW_3
 1
 4
 7
CALL
PUSHW_1
 0
DUP
RCVT
RDTG
ROUND[Black]
RTG
WCVTP
EndTTInstrs
TtTable: fpgm
PUSHW_1
 0
FDEF
MPPEM
PUSHW_1
 9
LT
IF
PUSHB_2
 1
 1
INSTCTRL
EIF
PUSHW_1
 511
SCANCTRL
PUSHW_1
 68
SCVTCI
PUSHW_2
 9
 3
SDS
SDB
ENDF
PUSHW_1
 1
FDEF
DUP
DUP
RCVT
ROUND[Black]
WCVTP
PUSHB_1
 1
ADD
ENDF
PUSHW_1
 2
FDEF
PUSHW_1
 1
LOOPCALL
POP
ENDF
PUSHW_1
 3
FDEF
DUP
GC[cur]
PUSHB_1
 3
CINDEX
GC[cur]
GT
IF
SWAP
EIF
DUP
ROLL
DUP
ROLL
MD[grid]
ABS
ROLL
DUP
GC[cur]
DUP
ROUND[Grey]
SUB
ABS
PUSHB_1
 4
CINDEX
GC[cur]
DUP
ROUND[Grey]
SUB
ABS
GT
IF
SWAP
NEG
ROLL
EIF
MDAP[rnd]
DUP
PUSHB_1
 0
GTEQ
IF
ROUND[Black]
DUP
PUSHB_1
 0
EQ
IF
POP
PUSHB_1
 64
EIF
ELSE
ROUND[Black]
DUP
PUSHB_1
 0
EQ
IF
POP
PUSHB_1
 64
NEG
EIF
EIF
MSIRP[no-rp0]
ENDF
PUSHW_1
 4
FDEF
DUP
GC[cur]
PUSHB_1
 4

StartChar: exclam
Encoding: 33 33 4
Width: 1228
Flags: W
LayerCount: 2
Fore
SplineSet
786.234 13.8009 m 1,0,1
 769.754 -18.6369 769.754 -18.6369 743.285 -40.5031 c 0,2,3
 717.267 -61.9971 717.267 -61.9971 683.052 -73.6147 c 1,4,5
 650.221 -85.8726 650.221 -85.8726 616.4 -87 c 1,6,7
 578.985 -87 578.985 -87 544.688 -75.1929 c 0,8,9
 509.899 -63.2167 509.899 -63.2167 482.945 -40.2769 c 0,10,11
 455.519 -16.9352 455.519 -16.9352 439.81 16.2259 c 0,12,13
 424 49.6022 424 49.6022 424 89 c 0,14,15
 424 140.691 424 140.691 455.97 185.45 c 0,16,17
 487.572 229.692 487.572 229.692 540.6 248.489 c 0,18,19
 557.495 255.145 557.495 255.145 574.871 258.946 c 0,20,21
 593.407 263 593.407 263 614 263 c 0,22,23
 649.444 263 649.444 263 683.59 249.91 c 128,-1,24
 717.552 236.891 717.552 236.891 743.748 214.111 c 0,25,26
 770.207 191.102 770.207 191.102 786.812 159.036 c 0,27,28
 804 125.844 804 125.844 804 87 c 0,29,30
 804 46.4286 804 46.4286 786.234 13.8009 c 1,0,1
520.033 366.739 m 0,31,32
 509.031 575.812 509.031 575.812 499.526 780.889 c 0,33,34
 490.038 985.604 490.038 985.604 481.022 1195.97 c 0,35,36
 480.581 1206.26 480.581 1206.26 488.044 1213.63 c 128,-1,37
 495.506 1221 495.506 1221 505 1221 c 2,38,-1
 725 1221 l 2,39,40
 735.312 1221 735.312 1221 742.396 1213.23 c 128,-1,41
 749.48 1205.45 749.48 1205.45 748.966 1195.73 c 0,42,43
 737.95 987.342 737.95 987.342 728.475 781.398 c 0,44,45
 718.988 575.201 718.988 575.201 707.966 366.733 c 0,46,47
 707.46 357.161 707.46 357.161 700.195 350.58 c 128,-1,48
 692.93 344 692.93 344 684 344 c 2,49,-1
 544 344 l 2,50,51
 534.414 344 534.414 344 527.458 350.908 c 128,-1,52
 520.503 357.816 520.503 357.816 520.033 366.739 c 0,31,32
EndSplineSet
EndChar

StartChar: quotedbl
Encoding: 34 34 5
Width: 1228
Flags: W
LayerCount: 2
Fore
SplineSet
686.012 553.236 m 0,0,1
 680.992 710.713 680.992 710.713 675.515 866.155 c 0,2,3
 670.019 1022.12 670.019 1022.12 664.017 1180.09 c 0,4,5
 663.627 1190.37 663.627 1190.37 671.124 1197.69 c 128,-1,6
 678.622 1205 678.622 1205 688 1205 c 2,7,-1
 932 1205 l 2,8,9
 942.279 1205 942.279 1205 949.279 1197.23 c 128,-1,10
 956.28 1189.46 956.28 1189.46 955.988 1180.24 c 0,11,12
 950.996 1022.42 950.996 1022.42 944.479 866.001 c 0,13,14
 938.009 710.702 938.009 710.702 931.982 553.083 c 0,15,16
 931.615 543.468 931.615 543.468 924.436 536.734 c 128,-1,17
 917.258 530 917.258 530 908 530 c 2,18,-1
 710 530 l 2,19,20
 700.362 530 700.362 530 693.336 536.919 c 128,-1,21
 686.311 543.838 686.311 543.838 686.012 553.236 c 0,0,1
297.016 553.112 m 0,22,23
 291.005 715.404 291.005 715.404 284.521 868.988 c 0,24,25
 278.015 1023.11 278.015 1023.11 273.012 1180.24 c 0,26,27
 272.685 1190.51 272.685 1190.51 280.226 1197.75 c 128,-1,28
 287.767 1205 287.767 1205 297 1205 c 2,29,-1
 541 1205 l 2,30,31
 551.279 1205 551.279 1205 558.279 1197.23 c 128,-1,32
 565.28 1189.46 565.28 1189.46 564.988 1180.24 c 0,33,34
 560.032 1023.55 560.032 1023.55 554.485 866.155 c 0,35,36
 548.987 710.119 548.987 710.119 542.982 553.083 c 0,37,38
 542.615 543.468 542.615 543.468 535.436 536.734 c 128,-1,39
 528.258 530 528.258 530 519 530 c 2,40,-1
 321 530 l 2,41,42
 311.374 530 311.374 530 304.367 536.917 c 128,-1,43
 297.36 543.833 297.36 543.833 297.016 553.112 c 0,22,23
EndSplineSet
EndChar

StartChar: numbersign
Encoding: 35 35 6
Width: 1228
Flags: W
LayerCount: 2
Fore
SplineSet
713.543 503 m 1,0,1
 717.676 566.204 717.676 566.204 721.035 628.787 c 0,2,3
 724.331 690.215 724.331 690.215 728.375 753 c 1,4,-1
 523.21 753 l 1,5,6
 518.418 689.027 518.418 689.027 515.474 626.374 c 0,7,8
 512.575 564.688 512.575 564.688 508.631 503 c 1,9,-1
 713.543 503 l 1,0,1
678.047 -144.503 m 0,10,11
 685.101 -31.6371 685.101 -31.6371 691.542 77.4155 c 0,12,13
 697.295 174.829 697.295 174.829 702.672 274 c 1,14,-1
 494.83 274 l 1,15,16
 490.396 185.355 490.396 185.355 485.47 87.296 c 0,17,18
 479.965 -22.2827 479.965 -22.2827 472.962 -147.342 c 0,19,20
 472.427 -156.904 472.427 -156.904 465.144 -163.452 c 128,-1,21
 457.861 -170 457.861 -170 449 -170 c 2,22,-1
 306 -170 l 2,23,24
 295.701 -170 295.701 -170 288.65 -162.228 c 128,-1,25
 281.599 -154.456 281.599 -154.456 282.024 -144.93 c 0,26,27
 287.028 -32.8132 287.028 -32.8132 293.036 77.3071 c 0,28,29
 298.354 174.801 298.354 174.801 302.891 274 c 1,30,-1
 136 274 l 2,31,32
 126 274 126 274 119 281 c 128,-1,33
 112 288 112 288 112 298 c 2,34,-1
 112 479 l 2,35,36
 112 489 112 489 119 496 c 128,-1,37
 126 503 126 503 136 503 c 2,38,-1
 315.811 503 l 1,39,40
 320.586 566.038 320.586 566.038 323.526 628.626 c 0,41,42
 326.432 690.469 326.432 690.469 331.076 753 c 1,43,-1
 136 753 l 2,44,45
 126 753 126 753 119 760 c 128,-1,46
 112 767 112 767 112 777 c 2,47,-1
 112 957 l 2,48,49
 112 967 112 967 119 974 c 128,-1,50
 126 981 126 981 136 981 c 2,51,-1
 343.315 981 l 1,52,53
 348.766 1077.14 348.766 1077.14 354.546 1170.48 c 0,54,55
 361.012 1274.9 361.012 1274.9 367.038 1382.34 c 0,56,57
 367.574 1391.91 367.574 1391.91 374.857 1398.45 c 128,-1,58
 382.14 1405 382.14 1405 391 1405 c 2,59,-1
 534 1405 l 2,60,61
 544.316 1405 544.316 1405 551.414 1397.22 c 128,-1,62
 558.511 1389.45 558.511 1389.45 557.962 1379.66 c 0,63,64
 551.992 1273.16 551.992 1273.16 545.454 1167.52 c 0,65,66
 539.754 1075.42 539.754 1075.42 534.392 981 c 1,67,-1
 739.315 981 l 1,68,69
 744.7 1076.03 744.7 1076.03 750.546 1170.48 c 0,70,71
 757.077 1276.01 757.077 1276.01 763.038 1382.34 c 0,72,73
 763.574 1391.91 763.574 1391.91 770.857 1398.45 c 128,-1,74
 778.141 1405 778.141 1405 787 1405 c 2,75,-1
 931 1405 l 2,76,77
 941.32 1405 941.32 1405 948.43 1397.22 c 128,-1,78
 955.539 1389.45 955.539 1389.45 954.958 1379.59 c 2,79,-1
 931.457 981 l 1,80,-1
 1100 981 l 2,81,82
 1110 981 1110 981 1117 974 c 128,-1,83
 1124 967 1124 967 1124 957 c 2,84,-1
 1124 777 l 2,85,86
 1124 767 1124 767 1117 760 c 128,-1,87
 1110 753 1110 753 1100 753 c 2,88,-1
 919.486 753 l 1,89,90
 915.43 689.289 915.43 689.289 912.474 626.374 c 0,91,92
 909.573 564.647 909.573 564.647 904.947 503 c 1,93,-1
 1100 503 l 2,94,95
 1110 503 1110 503 1117 496 c 128,-1,96
 1124 489 1124 489 1124 479 c 2,97,-1
 1124 298 l 2,98,99
 1124 288 1124 288 1117 281 c 128,-1,100
 1110 274 1110 274 1100 274 c 2,101,-1
 893.742 274 l 1,102,103
 888.291 173.337 888.291 173.337 882.458 74.5843 c 0,104,105
 875.898 -36.4801 875.898 -36.4801 869.966 -147.284 c 0,106,107
 869.453 -156.854 869.453 -156.854 862.184 -163.427 c 128,-1,108
 854.915 -170 854.915 -170 846 -170 c 2,109,-1
 702 -170 l 2,110,111
 691.675 -170 691.675 -170 684.55 -162.222 c 128,-1,112
 677.425 -154.444 677.425 -154.444 678.047 -144.503 c 0,10,11
EndSplineSet
EndChar

StartChar: dollar
Encoding: 36 36 7
Width: 1228
Flags: W
LayerCount: 2
Fore
SplineSet
516 978.548 m 1,0,1
 498.078 973.316 498.078 973.316 481.699 967.769 c 0,2,3
 454.216 958.46 454.216 958.46 432.71 942.659 c 0,4,5
 412.804 928.034 412.804 928.034 400.891 904.617 c 128,-1,6
 389 881.245 389 881.245 389 842 c 0,7,8
 389 806.137 389 806.137 400.554 785.02 c 0,9,10
 412.638 762.936 412.638 762.936 432.652 747.508 c 0,11,12
 453.847 731.17 453.847 731.17 482.044 720.428 c 0,13,14
 498.464 714.172 498.464 714.172 516 707.862 c 1,15,-1
 516 978.548 l 1,0,1
710 178.766 m 1,16,17
 731.599 182.903 731.599 182.903 751.815 189.736 c 0,18,19
 783.605 200.482 783.605 200.482 807.487 218.615 c 0,20,21
 830.589 236.155 830.589 236.155 844.162 259.907 c 0,22,23
 857 282.373 857 282.373 857 313 c 0,24,25
 857 347.567 857 347.567 842.702 368.434 c 0,26,27
 826.999 391.351 826.999 391.351 802.684 406.708 c 0,28,29
 776.695 423.123 776.695 423.123 744.508 433.699 c 0,30,31
 727.218 439.381 727.218 439.381 710 445.497 c 1,32,-1
 710 178.766 l 1,16,17
686 -306 m 2,33,-1
 540 -306 l 2,34,35
 530 -306 530 -306 523 -299 c 128,-1,36
 516 -292 516 -292 516 -282 c 2,37,-1
 516 -0.235377 l 1,38,39
 499.858 1.61881 499.858 1.61881 484.639 5.10642 c 0,40,41
 459.429 10.8836 459.429 10.8836 436.256 18.7838 c 128,-1,42
 413.184 26.6493 413.184 26.6493 392.151 36.1139 c 0,43,44
 377.022 42.922 377.022 42.922 363.036 49.9917 c 1,45,46
 363.215 42.4223 363.215 42.4223 363.917 33.9931 c 0,47,48
 364 32.9983 364 32.9983 364 32 c 2,49,-1
 364 20.5 l 2,50,51
 364 13.0137 364 13.0137 362.673 5.05442 c 0,52,53
 361.23 -3.60643 361.23 -3.60643 354.248 -9.30322 c 128,-1,54
 347.266 -15 347.266 -15 339 -15 c 2,55,-1
 196 -15 l 2,56,57
 185.16 -15 185.16 -15 178.188 -6.54171 c 128,-1,58
 171.217 1.91659 171.217 1.91659 172.108 11.2754 c 0,59,60
 174.028 31.4337 174.028 31.4337 174.507 51.0852 c 0,61,62
 175 71.2923 175 71.2923 175 93 c 0,63,64
 175 174.24 175 174.24 169.549 259.468 c 0,65,66
 164.111 344.489 164.111 344.489 150.256 438.501 c 0,67,68
 148.669 449.275 148.669 449.275 156.016 457.637 c 128,-1,69
 163.364 466 163.364 466 174 466 c 2,70,-1
 316 466 l 2,71,72
 334.103 466 334.103 466 339.077 448.593 c 0,73,74
 341.734 439.292 341.734 439.292 341.99 430.638 c 1,75,76
 344.384 426.236 344.384 426.236 344.875 421.449 c 0,77,78
 348.618 384.946 348.618 384.946 360.852 346.835 c 0,79,80
 372.707 309.9 372.707 309.9 395.53 277.95 c 0,81,82
 418.056 246.413 418.056 246.413 454.043 221.814 c 0,83,84
 479.678 204.291 479.678 204.291 516 194.096 c 1,85,-1
 516 500.083 l 1,86,87
 481.618 508.63 481.618 508.63 449.422 518.567 c 0,88,89
 407.16 531.611 407.16 531.611 369.507 549.915 c 0,90,91
 331.319 568.479 331.319 568.479 299.398 592.953 c 0,92,93
 266.553 618.136 266.553 618.136 241.97 652.55 c 128,-1,94
 217.264 687.139 217.264 687.139 203.618 730.259 c 0,95,96
 190.073 773.064 190.073 773.064 189 827.764 c 1,97,98
 189 892.766 189 892.766 212.321 949.17 c 128,-1,99
 235.704 1005.72 235.704 1005.72 280.738 1049.68 c 0,100,101
 325.355 1093.22 325.355 1093.22 389.871 1121.48 c 0,102,103
 445.198 1145.72 445.198 1145.72 516 1157.62 c 1,104,-1
 516 1347 l 2,105,106
 516 1357 516 1357 523 1364 c 128,-1,107
 530 1371 530 1371 540 1371 c 2,108,-1
 686 1371 l 2,109,110
 696 1371 696 1371 703 1364 c 128,-1,111
 710 1357 710 1357 710 1347 c 2,112,-1
 710 1154.29 l 1,113,114
 721.183 1151.59 721.183 1151.59 731.673 1148.55 c 0,115,116
 751.323 1142.87 751.323 1142.87 770.456 1136.15 c 0,117,118
 789.882 1129.32 789.882 1129.32 808.747 1120.93 c 0,119,120
 821.981 1115.05 821.981 1115.05 836.327 1108.37 c 1,121,122
 836.8 1112.21 836.8 1112.21 837.164 1115.3 c 0,123,124
 838.307 1125.02 838.307 1125.02 840.572 1135.2 c 0,125,126
 842.39 1143.39 842.39 1143.39 849.154 1148.69 c 128,-1,127
 855.919 1154 855.919 1154 864 1154 c 2,128,-1
 1006 1154 l 2,129,130
 1016.83 1154 1016.83 1154 1023.78 1145.55 c 128,-1,131
 1030.72 1137.09 1030.72 1137.09 1029.91 1127.89 c 0,132,133
 1026.96 1094.49 1026.96 1094.49 1025.99 1064.71 c 0,134,135
 1025 1034.56 1025 1034.56 1025 1008 c 0,136,137
 1025 943.033 1025 943.033 1031.41 870.1 c 0,138,139
 1037.88 796.459 1037.88 796.459 1048.84 702.789 c 0,140,141
 1049.96 693.193 1049.96 693.193 1043.91 685.374 c 128,-1,142
 1037.85 677.554 1037.85 677.554 1028.3 676.228 c 0,143,144
 991.861 671.167 991.861 671.167 956.388 667.619 c 0,145,146
 921.253 664.106 921.253 664.106 887.109 661.093 c 0,147,148
 877.619 660.255 877.619 660.255 870.147 666.515 c 128,-1,149
 862.675 672.774 862.675 672.774 861.312 681.144 c 0,150,151
 854.454 723.262 854.454 723.262 843.672 767.86 c 0,152,153
 833.313 810.708 833.313 810.708 813.034 851.267 c 0,154,155
 793.435 890.464 793.435 890.464 760.521 921.552 c 0,156,157
 739.449 941.454 739.449 941.454 710 955.669 c 1,158,-1
 710 645.934 l 1,159,160
 736.563 638.05 736.563 638.05 766.476 628.964 c 0,161,162
 807.054 616.638 807.054 616.638 847.109 600.204 c 0,163,164
 887.958 583.445 887.958 583.445 925.142 560.4 c 0,165,166
 963.543 536.602 963.543 536.602 993.325 503.571 c 0,167,168
 1023.73 469.85 1023.73 469.85 1041.32 425.318 c 0,169,170
 1059 380.569 1059 380.569 1059 323 c 0,171,172
 1059 252.184 1059 252.184 1029.34 194.524 c 0,173,174
 1000.06 137.584 1000.06 137.584 949.208 95.9338 c 0,175,176
 899.135 54.9185 899.135 54.9185 831.427 29.5281 c 0,177,178
 774.402 8.1438 774.402 8.1438 710 -0.422644 c 1,179,-1
 710 -282 l 2,180,181
 710 -292 710 -292 703 -299 c 128,-1,182
 696 -306 696 -306 686 -306 c 2,33,-1
EndSplineSet
EndChar

StartChar: percent
Encoding: 37 37 8
Width: 1228
Flags: W
LayerCount: 2
Fore
SplineSet
1084 753 m 1,0,1
 862 654 862 654 643.5 557.5 c 128,-1,2
 425 461 425 461 204 363 c 1,3,4
 188 398 188 398 174 433 c 128,-1,5
 160 468 160 468 145 504 c 1,6,7
 366 601 366 601 584.5 698 c 128,-1,8
 803 795 803 795 1025 893 c 1,9,-1
 1084 753 l 1,0,1
446 840 m 0,10,11
 487 855 487 855 513 890 c 128,-1,12
 539 925 539 925 539 970 c 0,13,14
 539 1001 539 1001 526.5 1026.5 c 128,-1,15
 514 1052 514 1052 492.5 1071.5 c 128,-1,16
 471 1091 471 1091 443 1101.5 c 128,-1,17
 415 1112 415 1112 383 1112 c 0,18,19
 345 1112 345 1112 315.5 1100 c 128,-1,20
 286 1088 286 1088 266 1068 c 128,-1,21
 246 1048 246 1048 235.5 1022.5 c 128,-1,22
 225 997 225 997 225 970 c 128,-1,23
 225 943 225 943 235.5 917.5 c 128,-1,24
 246 892 246 892 266.5 872 c 128,-1,25
 287 852 287 852 316 840.5 c 128,-1,26
 345 829 345 829 383 829 c 0,27,28
 401 829 401 829 416 832 c 128,-1,29
 431 835 431 835 446 840 c 0,10,11
923 148 m 0,30,31
 940 161 940 161 952.5 178.5 c 128,-1,32
 965 196 965 196 972 216 c 128,-1,33
 979 236 979 236 979 259 c 0,34,35
 979 286 979 286 968 311.5 c 128,-1,36
 957 337 957 337 936.5 357 c 128,-1,37
 916 377 916 377 887 389 c 128,-1,38
 858 401 858 401 821 401 c 0,39,40
 785 401 785 401 756 389.5 c 128,-1,41
 727 378 727 378 707 358.5 c 128,-1,42
 687 339 687 339 676 313.5 c 128,-1,43
 665 288 665 288 665 259 c 128,-1,44
 665 230 665 230 676 204.5 c 128,-1,45
 687 179 687 179 707.5 159.5 c 128,-1,46
 728 140 728 140 757 128.5 c 128,-1,47
 786 117 786 117 821 117 c 0,48,49
 839 117 839 117 855 119.5 c 128,-1,50
 871 122 871 122 886 128 c 0,51,52
 906 136 906 136 923 148 c 0,30,31
627 790 m 0,53,54
 598 757 598 757 560.5 734 c 128,-1,55
 523 711 523 711 477.5 698 c 128,-1,56
 432 685 432 685 381 685 c 0,57,58
 315 685 315 685 257.5 707.5 c 128,-1,59
 200 730 200 730 157.5 768.5 c 128,-1,60
 115 807 115 807 90.5 858.5 c 128,-1,61
 66 910 66 910 66 970 c 0,62,63
 66 1023 66 1023 89 1075 c 128,-1,64
 112 1127 112 1127 154 1167 c 128,-1,65
 196 1207 196 1207 253.5 1231.5 c 128,-1,66
 311 1256 311 1256 381 1256 c 0,67,68
 440 1256 440 1256 496.5 1236 c 128,-1,69
 553 1216 553 1216 597.5 1178.5 c 128,-1,70
 642 1141 642 1141 669.5 1088 c 128,-1,71
 697 1035 697 1035 697 969 c 0,72,73
 697 913 697 913 674 861 c 0,74,75
 656 822 656 822 627 790 c 0,53,54
1113 147 m 0,76,77
 1089 96 1089 96 1047 57 c 128,-1,78
 1005 18 1005 18 947 -5 c 128,-1,79
 889 -28 889 -28 822 -28 c 0,80,81
 754 -28 754 -28 696 -5.5 c 128,-1,82
 638 17 638 17 596 55.5 c 128,-1,83
 554 94 554 94 530.5 146 c 128,-1,84
 507 198 507 198 507 257 c 0,85,86
 507 282 507 282 512 307.5 c 128,-1,87
 517 333 517 333 527.5 357 c 128,-1,88
 538 381 538 381 552 404 c 0,89,90
 567 427 567 427 585 448 c 1,91,92
 605 469 605 469 630.5 486.5 c 128,-1,93
 656 504 656 504 686.5 517 c 128,-1,94
 717 530 717 530 751 536.5 c 128,-1,95
 785 543 785 543 821 543 c 0,96,97
 883 543 883 543 940.5 522.5 c 128,-1,98
 998 502 998 502 1041.5 464 c 128,-1,99
 1085 426 1085 426 1111 373 c 128,-1,100
 1137 320 1137 320 1137 257 c 0,101,102
 1137 199 1137 199 1113 147 c 0,76,77
EndSplineSet
EndChar

StartChar: ampersand
Encoding: 38 38 9
Width: 1228
Flags: W
LayerCount: 2
Fore
SplineSet
599.069 154.223 m 0,0,1
 612.657 163.282 612.657 163.282 624.681 172.261 c 0,2,3
 644.217 186.732 644.217 186.732 667.132 209.629 c 1,4,5
 620.573 277.817 620.573 277.817 575.071 345.627 c 0,6,7
 530.011 412.778 530.011 412.778 485.024 480.594 c 1,8,9
 441.502 455.187 441.502 455.187 414.144 416.212 c 0,10,11
 382 370.419 382 370.419 382 306 c 0,12,13
 382 272.315 382 272.315 391.101 240.007 c 0,14,15
 399.858 208.921 399.858 208.921 418.074 185.066 c 0,16,17
 435.897 161.727 435.897 161.727 462.276 147.686 c 0,18,19
 487.99 134 487.99 134 524 134 c 0,20,21
 565.762 134 565.762 134 599.069 154.223 c 0,0,1
1128 -51 m 2,22,-1
 857 -51 l 2,23,24
 844.282 -51 844.282 -51 837.141 -40.476 c 0,25,26
 818.252 -12.6412 818.252 -12.6412 799.373 14.1882 c 0,27,28
 788.454 29.7042 788.454 29.7042 777.309 46.2078 c 1,29,30
 769.273 38.4954 769.273 38.4954 761.413 31.5339 c 0,31,32
 742.788 15.038 742.788 15.038 722.552 1.19263 c 0,33,34
 702.017 -12.858 702.017 -12.858 678.338 -24.1595 c 0,35,36
 655.442 -35.0869 655.442 -35.0869 627.324 -44.523 c 1,37,38
 598.143 -56.2891 598.143 -56.2891 567.647 -61.639 c 128,-1,39
 537.088 -67 537.088 -67 503 -67 c 0,40,41
 420.849 -67 420.849 -67 356.151 -37.8861 c 0,42,43
 291.687 -8.87708 291.687 -8.87708 246.365 40.2213 c 128,-1,44
 201.139 89.2155 201.139 89.2155 177.489 153.177 c 0,45,46
 154.067 216.524 154.067 216.524 153.002 284.708 c 0,47,48
 151.963 403.038 151.963 403.038 223.484 505.356 c 1,49,-1
 226.59 511.116 l 1,50,51
 260.477 557.712 260.477 557.712 303.479 592.218 c 0,52,53
 335.561 617.962 335.561 617.962 374.58 639.033 c 1,54,55
 350.98 673.325 350.98 673.325 335.481 696.762 c 0,56,57
 314.019 729.216 314.019 729.216 301.774 755.302 c 0,58,59
 288.907 782.715 288.907 782.715 284.355 808.888 c 0,60,61
 280.076 833.492 280.076 833.492 280 868.546 c 1,62,63
 278.03 926.72 278.03 926.72 299.232 979.453 c 0,64,65
 320.596 1032.59 320.596 1032.59 361.145 1072.59 c 128,-1,66
 401.612 1112.5 401.612 1112.5 460.122 1135.8 c 0,67,68
 518.404 1159 518.404 1159 590 1159 c 0,69,70
 672.39 1159 672.39 1159 749.012 1129.94 c 0,71,72
 823.311 1101.76 823.311 1101.76 906.045 1053.76 c 0,73,74
 918 1046.82 918 1046.82 918 1033 c 2,75,-1
 918 843 l 2,76,77
 918 833 918 833 911 826 c 128,-1,78
 904 819 904 819 894 819 c 2,79,-1
 745 819 l 2,80,81
 735 819 735 819 728 826 c 128,-1,82
 721 833 721 833 721 843 c 2,83,-1
 721 930.28 l 1,84,85
 714.363 933.464 714.363 933.464 706.253 937.069 c 0,86,87
 689.471 944.527 689.471 944.527 670.246 950.622 c 128,-1,88
 650.999 956.725 650.999 956.725 629.793 960.966 c 0,89,90
 609.622 965 609.622 965 591 965 c 0,91,92
 561.437 965 561.437 965 542.084 957.587 c 0,93,94
 523.954 950.644 523.954 950.644 513.81 939.413 c 0,95,96
 503.247 927.718 503.247 927.718 498.829 914.096 c 0,97,98
 494 899.205 494 899.205 494 885 c 0,99,100
 494 872.557 494 872.557 497.969 859.46 c 0,101,102
 502.333 845.058 502.333 845.058 509.327 831.507 c 0,103,104
 516.892 816.85 516.892 816.85 525.392 803.157 c 0,105,106
 534.039 789.223 534.039 789.223 540.933 779.376 c 0,107,108
 576.995 723.28 576.995 723.28 615.22 668.18 c 0,109,110
 653.808 612.555 653.808 612.555 689.969 558.311 c 0,111,112
 719.85 513.492 719.85 513.492 750.225 469.673 c 0,113,114
 768.001 444.028 768.001 444.028 786.058 417.381 c 1,115,116
 787.121 420.084 787.121 420.084 788.113 422.65 c 0,117,118
 796.495 444.343 796.495 444.343 804.387 466.54 c 128,-1,119
 812.292 488.773 812.292 488.773 821.817 516.336 c 0,120,121
 831.219 543.555 831.219 543.555 845.251 578.749 c 0,122,123
 846.892 584.704 846.892 584.704 848.033 590.029 c 0,124,125
 850.171 600.008 850.171 600.008 854.534 608.733 c 0,126,127
 861.167 622 861.167 622 876 622 c 2,128,-1
 1114 622 l 2,129,130
 1124 622 1124 622 1131 615 c 128,-1,131
 1138 608 1138 608 1138 598 c 2,132,-1
 1138 454 l 2,133,134
 1138 444 1138 444 1131 437 c 128,-1,135
 1124 430 1124 430 1114 430 c 2,136,-1
 999.616 430 l 1,137,138
 980.05 378.442 980.05 378.442 959.6 330.142 c 0,139,140
 938.554 280.433 938.554 280.433 913.565 228.769 c 1,141,142
 928.766 205.774 928.766 205.774 943.298 184.566 c 0,143,144
 958.091 162.978 958.091 162.978 974.376 140 c 1,145,-1
 1128 140 l 2,146,147
 1138 140 1138 140 1145 133 c 128,-1,148
 1152 126 1152 126 1152 116 c 2,149,-1
 1152 -27 l 2,150,151
 1152 -37 1152 -37 1145 -44 c 128,-1,152
 1138 -51 1138 -51 1128 -51 c 2,22,-1
EndSplineSet
EndChar

StartChar: quotesingle
Encoding: 39 39 10
Width: 1228
Flags: W
LayerCount: 2
Fore
SplineSet
491.066 548.216 m 0,0,1
 479.097 708.785 479.097 708.785 468.555 864.883 c 0,2,3
 458.085 1019.91 458.085 1019.91 448.047 1179.49 c 0,4,5
 447.399 1189.8 447.399 1189.8 454.715 1197.4 c 128,-1,6
 462.03 1205 462.03 1205 472 1205 c 2,7,-1
 757 1205 l 2,8,9
 767.334 1205 767.334 1205 774.488 1197.22 c 128,-1,10
 781.641 1189.44 781.641 1189.44 780.943 1179.34 c 0,11,12
 769.847 1019 769.847 1019 758.435 863.741 c 128,-1,13
 747.02 708.427 747.02 708.427 735.943 548.343 c 0,14,15
 735.284 538.826 735.284 538.826 727.929 532.413 c 128,-1,16
 720.573 526 720.573 526 712 526 c 2,17,-1
 515 526 l 2,18,19
 505.702 526 505.702 526 498.73 532.473 c 128,-1,20
 491.757 538.945 491.757 538.945 491.066 548.216 c 0,0,1
EndSplineSet
EndChar

StartChar: parenleft
Encoding: 40 40 11
Width: 1228
Flags: W
LayerCount: 2
Fore
SplineSet
1000.47 -191.267 m 2,0,1
 1003.11 -196.551 1003.11 -196.551 1006.23 -201.907 c 0,2,3
 1010.12 -208.578 1010.12 -208.578 1013.47 -215.267 c 0,4,5
 1017.85 -224.036 1017.85 -224.036 1014.68 -233.559 c 128,-1,6
 1011.5 -243.081 1011.5 -243.081 1002.73 -247.466 c 0,7,8
 997.666 -250 997.666 -250 992 -250 c 2,9,-1
 836 -250 l 2,10,11
 822.698 -250 822.698 -250 815.648 -238.72 c 0,12,13
 765.12 -157.881 765.12 -157.881 716.125 -61.9128 c 0,14,15
 666.985 34.3362 666.985 34.3362 628.985 137.183 c 128,-1,16
 590.917 240.227 590.917 240.227 567.061 348.852 c 0,17,18
 543 458.382 543 458.382 543 566 c 0,19,20
 543 662.487 543 662.487 565.006 767.904 c 0,21,22
 586.814 872.371 586.814 872.371 621.788 974.758 c 128,-1,23
 656.759 1077.13 656.759 1077.13 702.42 1171 c 0,24,25
 747.72 1264.13 747.72 1264.13 794.343 1338.24 c 0,26,27
 799.706 1347.82 799.706 1347.82 805.35 1356.54 c 0,28,29
 810.405 1364.35 810.405 1364.35 815.02 1372.66 c 0,30,31
 821.879 1385 821.879 1385 836 1385 c 2,32,-1
 992 1385 l 2,33,34
 1002 1385 1002 1385 1009 1378 c 128,-1,35
 1016 1371 1016 1371 1016 1361 c 0,36,37
 1016 1355.49 1016 1355.49 1013.6 1350.53 c 0,38,39
 997.397 1317.12 997.397 1317.12 984.2 1292.25 c 0,40,41
 971.287 1267.91 971.287 1267.91 960.861 1247.56 c 0,42,43
 950.25 1226.84 950.25 1226.84 940.113 1208.09 c 0,44,45
 930.404 1190.13 930.404 1190.13 920.669 1169.68 c 0,46,47
 910.805 1148.97 910.805 1148.97 899.894 1124.67 c 0,48,49
 889.127 1100.69 889.127 1100.69 876.179 1067.82 c 1,50,51
 820.83 940.325 820.83 940.325 791.322 818.835 c 0,52,53
 762 698.113 762 698.113 762 566 c 0,54,55
 762 481.905 762 481.905 774.704 401.758 c 0,56,57
 787.47 321.219 787.47 321.219 808.571 247.614 c 0,58,59
 829.735 173.786 829.735 173.786 855.772 108.942 c 0,60,61
 882.02 43.5731 882.02 43.5731 907.238 -10.3289 c 128,-1,62
 932.454 -64.2244 932.454 -64.2244 954.148 -104.652 c 0,63,64
 975.734 -144.88 975.734 -144.88 988.356 -167.238 c 0,65,66
 991.455 -172.31 991.455 -172.31 993.904 -178.609 c 0,67,68
 994.798 -179.931 994.798 -179.931 995.466 -181.267 c 2,69,-1
 1000.47 -191.267 l 2,0,1
EndSplineSet
EndChar

StartChar: parenright
Encoding: 41 41 12
Width: 1228
Flags: W
LayerCount: 2
Fore
SplineSet
220.331 -215.682 m 0,0,1
 240.422 -173.492 240.422 -173.492 257.534 -139.267 c 128,-1,2
 274.565 -105.204 274.565 -105.204 289.109 -76.617 c 128,-1,3
 303.576 -48.1824 303.576 -48.1824 316.034 -23.2669 c 128,-1,4
 328.405 1.47561 328.405 1.47561 339.774 25.6978 c 0,5,6
 351.279 50.209 351.279 50.209 363.284 75.7191 c 0,7,8
 374.829 100.25 374.829 100.25 385.635 129.72 c 1,9,10
 427.984 232.148 427.984 232.148 452.022 345.48 c 0,11,12
 476 458.527 476 458.527 476 566 c 128,-1,13
 476 673.51 476 673.51 453.011 783.072 c 0,14,15
 429.957 892.948 429.957 892.948 386.789 998.907 c 0,16,17
 366.067 1049.23 366.067 1049.23 348.363 1086.11 c 0,18,19
 330.357 1123.62 330.357 1123.62 312.752 1161.35 c 0,20,21
 295.374 1198.59 295.374 1198.59 273.486 1242.86 c 0,22,23
 251.391 1287.56 251.391 1287.56 221.331 1350.68 c 0,24,25
 217.116 1359.53 217.116 1359.53 220.473 1368.99 c 128,-1,26
 223.83 1378.45 223.83 1378.45 232.682 1382.67 c 0,27,28
 237.577 1385 237.577 1385 243 1385 c 2,29,-1
 401 1385 l 2,30,31
 416.896 1385 416.896 1385 423.098 1370.36 c 0,32,33
 447.737 1312.21 447.737 1312.21 476.815 1256.03 c 0,34,35
 506.439 1198.79 506.439 1198.79 536.894 1138.88 c 0,36,37
 567.734 1078.2 567.734 1078.2 595.468 1015.17 c 0,38,39
 623.489 951.475 623.489 951.475 645.866 881.291 c 0,40,41
 668.399 810.618 668.399 810.618 681.182 732.895 c 0,42,43
 694 654.959 694 654.959 694 565.998 c 0,44,45
 694 480.746 694 480.746 675.585 383.055 c 0,46,47
 657.292 286.014 657.292 286.014 624.314 185.048 c 128,-1,48
 591.358 84.1519 591.358 84.1519 544.746 -15.6553 c 128,-1,49
 498.135 -115.458 498.135 -115.458 441.379 -206.679 c 0,50,51
 440.826 -207.566 440.826 -207.566 440.2 -208.4 c 0,52,53
 435.145 -215.14 435.145 -215.14 431.418 -221.766 c 0,54,55
 426.638 -230.263 426.638 -230.263 421.352 -238.72 c 0,56,57
 414.302 -250 414.302 -250 401 -250 c 2,58,-1
 242 -250 l 2,59,60
 232 -250 232 -250 225 -243 c 128,-1,61
 218 -236 218 -236 218 -226 c 0,62,63
 218 -220.577 218 -220.577 220.331 -215.682 c 0,0,1
EndSplineSet
EndChar

StartChar: asterisk
Encoding: 42 42 13
Width: 1228
Flags: W
LayerCount: 2
Fore
SplineSet
732.98 1179.03 m 0,0,1
 729.776 1100.03 729.776 1100.03 726.98 1032.01 c 0,2,3
 724.845 980.09 724.845 980.09 722.442 921.015 c 1,4,5
 775.699 940.679 775.699 940.679 827.824 959.565 c 0,6,7
 896.733 984.531 896.733 984.531 966.643 1010.5 c 0,8,9
 976.282 1014.08 976.282 1014.08 985.558 1009.24 c 128,-1,10
 994.833 1004.39 994.833 1004.39 997.768 995.589 c 0,11,12
 1012.78 950.552 1012.78 950.552 1027.29 906.512 c 0,13,14
 1041.99 861.915 1041.99 861.915 1056.77 817.587 c 0,15,16
 1060.02 807.829 1060.02 807.829 1054.87 798.708 c 128,-1,17
 1049.72 789.586 1049.72 789.586 1040.72 786.96 c 0,18,19
 968.664 765.941 968.664 765.941 896.813 746.346 c 0,20,21
 842.893 731.64 842.893 731.64 789.008 716.58 c 1,22,23
 823.876 672.32 823.876 672.32 858.612 629.653 c 0,24,25
 904.804 572.912 904.804 572.912 950.93 513.757 c 0,26,27
 957.067 504.815 957.067 504.815 955.282 495.015 c 128,-1,28
 953.497 485.215 953.497 485.215 946.56 479.921 c 0,29,30
 908.402 450.8 908.402 450.8 870.237 422.679 c 0,31,32
 832.402 394.8 832.402 394.8 794.56 365.921 c 0,33,34
 786.165 359.689 786.165 359.689 775.87 361.53 c 128,-1,35
 765.575 363.371 765.575 363.371 760.031 371.687 c 0,36,37
 717.711 435.169 717.711 435.169 676.981 496.762 c 0,38,39
 645.938 543.706 645.938 543.706 613.86 591.915 c 1,40,41
 583.519 546.819 583.519 546.819 553.544 501.3 c 0,42,43
 513.028 439.775 513.028 439.775 468.014 371.755 c 0,44,45
 462.322 363.154 462.322 363.154 451.773 361.506 c 128,-1,46
 441.224 359.859 441.224 359.859 433.679 365.741 c 0,47,48
 394.741 394.696 394.741 394.696 357.307 422.146 c 0,49,50
 319.45 449.909 319.45 449.909 281.129 480.163 c 0,51,52
 273.098 486.503 273.098 486.503 272.46 497.348 c 128,-1,53
 271.822 508.193 271.822 508.193 277.228 513.954 c 0,54,55
 324.305 573.051 324.305 573.051 370.388 629.653 c 0,56,57
 405.02 672.19 405.02 672.19 439.915 716.483 c 1,58,59
 385.281 731.592 385.281 731.592 331.185 746.346 c 0,60,61
 259.344 765.939 259.344 765.939 187.28 786.96 c 0,62,63
 177.403 789.841 177.403 789.841 172.834 799.267 c 128,-1,64
 168.266 808.693 168.266 808.693 171.232 817.589 c 0,65,66
 186.219 862.552 186.219 862.552 200.706 906.512 c 128,-1,67
 215.142 950.318 215.142 950.318 229.083 995.13 c 0,68,69
 232.145 1004.97 232.145 1004.97 241.668 1009.41 c 128,-1,70
 251.191 1013.85 251.191 1013.85 260.253 1010.54 c 0,71,72
 331.215 984.55 331.215 984.55 400.176 959.565 c 0,73,74
 451.741 940.882 451.741 940.882 506.547 920.864 c 1,75,-1
 502.02 1031.01 l 2,76,77
 499.021 1104.03 499.021 1104.03 496.019 1179.04 c 0,78,79
 495.608 1189.32 495.608 1189.32 503.091 1196.66 c 128,-1,80
 510.574 1204 510.574 1204 520 1204 c 2,81,-1
 709 1204 l 2,82,83
 719.293 1204 719.293 1204 726.328 1196.23 c 128,-1,84
 733.363 1188.46 733.363 1188.46 732.98 1179.03 c 0,0,1
EndSplineSet
EndChar

StartChar: plus
Encoding: 43 43 14
Width: 1228
Flags: W
LayerCount: 2
Fore
SplineSet
1121 521 m 2,0,-1
 713 521 l 1,1,-1
 713 123 l 2,2,3
 713 113 713 113 706 106 c 128,-1,4
 699 99 699 99 689 99 c 2,5,-1
 539 99 l 2,6,7
 529 99 529 99 522 106 c 128,-1,8
 515 113 515 113 515 123 c 2,9,-1
 515 521 l 1,10,-1
 107 521 l 2,11,12
 97 521 97 521 90 528 c 128,-1,13
 83 535 83 535 83 545 c 2,14,-1
 83 695 l 2,15,16
 83 705 83 705 90 712 c 128,-1,17
 97 719 97 719 107 719 c 2,18,-1
 515 719 l 1,19,-1
 515 1119 l 2,20,21
 515 1129 515 1129 522 1136 c 128,-1,22
 529 1143 529 1143 539 1143 c 2,23,-1
 689 1143 l 2,24,25
 699 1143 699 1143 706 1136 c 128,-1,26
 713 1129 713 1129 713 1119 c 2,27,-1
 713 719 l 1,28,-1
 1121 719 l 2,29,30
 1131 719 1131 719 1138 712 c 128,-1,31
 1145 705 1145 705 1145 695 c 2,32,-1
 1145 545 l 2,33,34
 1145 535 1145 535 1138 528 c 128,-1,35
 1131 521 1131 521 1121 521 c 2,0,-1
EndSplineSet
EndChar

StartChar: comma
Encoding: 44 44 15
Width: 1228
Flags: W
LayerCount: 2
Fore
SplineSet
523 -271 m 2,0,-1
 330 -271 l 2,1,2
 320 -271 320 -271 313 -264 c 128,-1,3
 306 -257 306 -257 306 -247 c 0,4,5
 306 -243.33 306 -243.33 307.097 -239.827 c 2,6,-1
 478.097 306.173 l 2,7,8
 483.367 323 483.367 323 501 323 c 2,9,-1
 769 323 l 2,10,11
 779 323 779 323 786 316 c 128,-1,12
 793 309 793 309 793 299 c 0,13,14
 793 293.843 793 293.843 790.882 289.141 c 2,15,-1
 544.882 -256.859 l 2,16,17
 538.511 -271 538.511 -271 523 -271 c 2,0,-1
EndSplineSet
EndChar

StartChar: hyphen
Encoding: 45 45 16
Width: 1228
Flags: W
LayerCount: 2
Fore
SplineSet
856 492 m 2,0,-1
 371 492 l 2,1,2
 361 492 361 492 354 499 c 128,-1,3
 347 506 347 506 347 516 c 2,4,-1
 347 677 l 2,5,6
 347 687 347 687 354 694 c 128,-1,7
 361 701 361 701 371 701 c 2,8,-1
 856 701 l 2,9,10
 866 701 866 701 873 694 c 128,-1,11
 880 687 880 687 880 677 c 2,12,-1
 880 516 l 2,13,14
 880 506 880 506 873 499 c 128,-1,15
 866 492 866 492 856 492 c 2,0,-1
EndSplineSet
EndChar

StartChar: period
Encoding: 46 46 17
Width: 1228
Flags: W
LayerCount: 2
Fore
SplineSet
800.466 29.2669 m 0,0,1
 783.429 -4.80862 783.429 -4.80862 755.535 -29.8572 c 128,-1,2
 727.82 -54.7449 727.82 -54.7449 690.797 -69.3298 c 0,3,4
 653.556 -84 653.556 -84 614 -84 c 0,5,6
 574.773 -84 574.773 -84 537.798 -70.555 c 0,7,8
 500.543 -57.0082 500.543 -57.0082 472.145 -32.0171 c 0,9,10
 443.442 -6.75792 443.442 -6.75792 426.825 28.1954 c 0,11,12
 410 63.586 410 63.586 410 105 c 0,13,14
 410 142.152 410 142.152 425.614 176.849 c 0,15,16
 441.083 211.225 441.083 211.225 468.585 237.009 c 0,17,18
 495.697 262.426 495.697 262.426 532.627 278.094 c 0,19,20
 570.119 294 570.119 294 614 294 c 0,21,22
 654.785 294 654.785 294 691.707 278.664 c 0,23,24
 728 263.588 728 263.588 756.055 238.339 c 0,25,26
 784.498 212.741 784.498 212.741 801.039 179.087 c 0,27,28
 818 144.578 818 144.578 818 105 c 0,29,30
 818 64.335 818 64.335 800.466 29.2669 c 0,0,1
EndSplineSet
EndChar

StartChar: slash
Encoding: 47 47 18
Width: 1228
Flags: W
LayerCount: 2
Fore
SplineSet
275.869 -328.757 m 2,0,-1
 144.869 -267.757 l 2,1,2
 135.85 -263.557 135.85 -263.557 132.531 -253.726 c 128,-1,3
 129.211 -243.895 129.211 -243.895 133.199 -235.964 c 2,4,-1
 923.199 1480.04 l 2,5,6
 927.225 1488.78 927.225 1488.78 936.534 1492.29 c 128,-1,7
 945.843 1495.8 945.843 1495.8 954.231 1492.15 c 2,8,-1
 1086.23 1437.15 l 2,9,10
 1095.72 1433.2 1095.72 1433.2 1099.31 1423.07 c 128,-1,11
 1102.89 1412.94 1102.89 1412.94 1098.81 1404.98 c 2,12,-1
 307.809 -317.018 l 2,13,14
 303.538 -326.316 303.538 -326.316 293.151 -329.491 c 128,-1,15
 282.765 -332.666 282.765 -332.666 275.869 -328.757 c 2,0,-1
EndSplineSet
EndChar

StartChar: zero
Encoding: 48 48 19
Width: 1228
Flags: W
LayerCount: 2
Fore
SplineSet
849 617.499 m 2,0,1
 848 642.261 848 642.261 848.506 665.522 c 0,2,3
 848.989 687.761 848.989 687.761 848.008 711.303 c 0,4,5
 847.03 770.855 847.03 770.855 837.816 827.121 c 0,6,7
 833.576 853.008 833.576 853.008 826.936 880.886 c 1,8,9
 796.333 803.959 796.333 803.959 768.805 734.642 c 0,10,11
 761.918 717.298 761.918 717.298 754.966 699.702 c 1,12,13
 754.713 695.77 754.713 695.77 753.377 692.323 c 0,14,15
 696.368 545.292 696.368 545.292 638.24 401.981 c 0,16,17
 584.094 268.481 584.094 268.481 528.583 128.509 c 1,18,19
 561.112 110.39 561.112 110.39 602.013 108.979 c 0,20,21
 619.947 108.083 619.947 108.083 638.208 109.84 c 0,22,23
 683.592 116.163 683.592 116.163 714.103 140.317 c 0,24,25
 746.178 165.709 746.178 165.709 771.12 204.88 c 1,26,27
 790.143 242.292 790.143 242.292 803.758 282.669 c 0,28,29
 817.796 324.298 817.796 324.298 827.008 368.405 c 128,-1,30
 836.253 412.687 836.253 412.687 841.127 459.961 c 128,-1,31
 846 507.233 846 507.233 848 556.475 c 0,32,33
 848.026 567.126 848.026 567.126 848.53 577.198 c 0,34,35
 849 586.601 849 586.601 849 596 c 2,36,-1
 849 617.499 l 2,0,1
378 639 m 2,37,38
 378 589.6 378 589.6 380.469 541.223 c 128,-1,39
 382.935 492.894 382.935 492.894 387.862 447.066 c 0,40,41
 392.738 401.724 392.738 401.724 401.502 359.363 c 0,42,43
 402.936 352.434 402.936 352.434 404.53 345.672 c 1,44,45
 472.402 517.225 472.402 517.225 541.205 689.885 c 0,46,47
 611.563 866.438 611.563 866.438 704.822 1100.18 c 0,48,49
 707.365 1106.11 707.365 1106.11 709.554 1111.71 c 1,50,51
 693.102 1123.28 693.102 1123.28 673.956 1130.57 c 0,52,53
 646.58 1141 646.58 1141 614 1141 c 0,54,55
 554.924 1141 554.924 1141 516.796 1112.72 c 0,56,57
 476.213 1082.62 476.213 1082.62 450.192 1038.34 c 0,58,59
 423.416 992.773 423.416 992.773 410.258 941.08 c 0,60,61
 396.729 887.926 396.729 887.926 392.856 845.326 c 1,62,63
 386.811 799.997 386.811 799.997 382.324 763.102 c 0,64,65
 378 727.545 378 727.545 378 690 c 2,66,-1
 378 639 l 2,37,38
443.266 -84.9563 m 0,67,68
 439.685 -93.8135 439.685 -93.8135 436.262 -102.467 c 0,69,70
 428.452 -121.506 428.452 -121.506 420.668 -143.884 c 0,71,72
 417.284 -153.614 417.284 -153.614 407.625 -157.724 c 128,-1,73
 397.966 -161.835 397.966 -161.835 389.087 -158.283 c 0,74,75
 354.306 -144.371 354.306 -144.371 320.037 -131.458 c 0,76,77
 285.484 -118.438 285.484 -118.438 251.429 -105.417 c 0,78,79
 241.861 -101.759 241.861 -101.759 238.163 -92.0353 c 128,-1,80
 234.465 -82.3118 234.465 -82.3118 237.681 -74.1762 c 0,81,82
 254.583 -31.4241 254.583 -31.4241 269.984 10.3093 c 0,83,84
 283.252 46.2609 283.252 46.2609 298.561 82.7699 c 1,85,86
 264.142 130.941 264.142 130.941 241.281 186.927 c 0,87,88
 216.032 248.762 216.032 248.762 201.093 314.697 c 0,89,90
 186.244 380.239 186.244 380.239 180.1 447.311 c 0,91,92
 174 513.905 174 513.905 174 578 c 2,93,-1
 174 624 l 2,94,95
 174 676.54 174 676.54 176.524 732.58 c 0,96,97
 179.082 789.361 179.082 789.361 187.777 846.133 c 0,98,99
 196.436 902.677 196.436 902.677 210.192 958.721 c 0,100,101
 224.011 1015.03 224.011 1015.03 245.717 1066.92 c 1,102,103
 268.022 1124.97 268.022 1124.97 302.119 1171.65 c 0,104,105
 336.742 1219.07 336.742 1219.07 383.135 1253.73 c 0,106,107
 429.77 1288.57 429.77 1288.57 487.973 1307.79 c 128,-1,108
 546.143 1327 546.143 1327 614 1327 c 0,109,110
 640.516 1327 640.516 1327 665.539 1323.81 c 0,111,112
 690.888 1320.57 690.888 1320.57 715.161 1313.55 c 0,113,114
 738.551 1306.8 738.551 1306.8 760.87 1298.49 c 0,115,116
 770.646 1294.86 770.646 1294.86 780.892 1290.31 c 1,117,118
 784.888 1300.56 784.888 1300.56 788.787 1310.09 c 0,119,120
 797.82 1332.17 797.82 1332.17 807.846 1356.23 c 0,121,122
 811.672 1365.41 811.672 1365.41 821.152 1369.05 c 128,-1,123
 830.631 1372.69 830.631 1372.69 839.138 1369.19 c 0,124,125
 872.213 1355.57 872.213 1355.57 905.791 1344.87 c 0,126,127
 940.844 1333.69 940.844 1333.69 976.357 1320.5 c 0,128,129
 985.989 1316.92 985.989 1316.92 989.839 1307.2 c 128,-1,130
 993.69 1297.49 993.69 1297.49 990.242 1288.98 c 0,131,132
 975.22 1251.93 975.22 1251.93 960.199 1215.38 c 0,133,134
 947.619 1184.77 947.619 1184.77 935.536 1153.25 c 1,135,136
 936.627 1151.92 936.627 1151.92 937.509 1150.47 c 0,137,138
 969.734 1097.45 969.734 1097.45 992.049 1036.22 c 0,139,140
 1014.14 975.597 1014.14 975.597 1028 908.88 c 0,141,142
 1041.79 842.482 1041.79 842.482 1047.91 770.021 c 0,143,144
 1054 698.031 1054 698.031 1054 623 c 0,145,146
 1054 543.92 1054 543.92 1046.91 462.421 c 0,147,148
 1039.75 380.104 1039.75 380.104 1021.34 303.399 c 0,149,150
 1002.8 226.15 1002.8 226.15 971.343 157.056 c 0,151,152
 939.204 86.4525 939.204 86.4525 889.992 34.0678 c 0,153,154
 840.203 -18.933 840.203 -18.933 772.327 -49.3958 c 0,155,156
 704.137 -80 704.137 -80 614 -80 c 0,157,158
 561.181 -80 561.181 -80 516.441 -69.3474 c 0,159,160
 485.702 -62.0282 485.702 -62.0282 457.587 -49.8315 c 1,161,162
 456.349 -52.8416 456.349 -52.8416 455.176 -55.6764 c 0,163,164
 449.238 -70.0282 449.238 -70.0282 443.266 -84.9563 c 0,67,68
EndSplineSet
EndChar

StartChar: one
Encoding: 49 49 20
Width: 1228
Flags: W
LayerCount: 2
Fore
SplineSet
1061 -24 m 2,0,-1
 198 -24 l 2,1,2
 188 -24 188 -24 181 -17 c 128,-1,3
 174 -10 174 -10 174 0 c 2,4,-1
 174 143 l 2,5,6
 174 153 174 153 181 160 c 128,-1,7
 188 167 188 167 198 167 c 2,8,-1
 535 167 l 1,9,-1
 535 1064.93 l 1,10,11
 471.468 1036.51 471.468 1036.51 408.62 1009.01 c 0,12,13
 328.962 974.162 328.962 974.162 248.849 938.114 c 0,14,15
 239.732 934.322 239.732 934.322 230.743 937.696 c 128,-1,16
 221.754 941.071 221.754 941.071 217.665 949.009 c 0,17,18
 200.403 982.516 200.403 982.516 185.64 1015.09 c 0,19,20
 171.261 1046.82 171.261 1046.82 156.396 1077.55 c 0,21,22
 152.061 1087.2 152.061 1087.2 155.906 1096.75 c 128,-1,23
 159.752 1106.3 159.752 1106.3 168.57 1110.07 c 0,24,25
 277.88 1156.78 277.88 1156.78 386.769 1202.15 c 0,26,27
 495.253 1247.36 495.253 1247.36 603.497 1294.04 c 0,28,29
 608.046 1296 608.046 1296 613 1296 c 2,30,-1
 707 1296 l 2,31,32
 717 1296 717 1296 724 1289 c 128,-1,33
 731 1282 731 1282 731 1272 c 2,34,-1
 731 167 l 1,35,-1
 1061 167 l 2,36,37
 1071 167 1071 167 1078 160 c 128,-1,38
 1085 153 1085 153 1085 143 c 2,39,-1
 1085 0 l 2,40,41
 1085 -10 1085 -10 1078 -17 c 128,-1,42
 1071 -24 1071 -24 1061 -24 c 2,0,-1
EndSplineSet
EndChar

StartChar: two
Encoding: 50 50 21
Width: 1228
Flags: W
LayerCount: 2
Fore
SplineSet
994 -24 m 2,0,-1
 142 -24 l 2,1,2
 132 -24 132 -24 125 -17 c 128,-1,3
 118 -10 118 -10 118 0 c 2,4,-1
 118 137 l 2,5,6
 118 148.394 118 148.394 126.829 155.597 c 0,7,8
 164.687 186.481 164.687 186.481 212.041 226.358 c 128,-1,9
 259.325 266.176 259.325 266.176 310.61 311.486 c 128,-1,10
 362.043 356.927 362.043 356.927 414.982 404.373 c 128,-1,11
 467.922 451.82 467.922 451.82 517.356 496.759 c 128,-1,12
 566.811 541.718 566.811 541.718 610.255 581.666 c 128,-1,13
 653.792 621.702 653.792 621.702 686.856 651.759 c 0,14,15
 719.681 681.6 719.681 681.6 738.494 699.423 c 0,16,17
 753.253 713.405 753.253 713.405 757.213 717.189 c 0,18,19
 771.72 735.513 771.72 735.513 782.42 753.348 c 128,-1,20
 793.154 771.238 793.154 771.238 799.839 790.405 c 0,21,22
 806.651 809.934 806.651 809.934 810.314 832.367 c 128,-1,23
 814 854.946 814 854.946 814 882 c 0,24,25
 814 933.982 814 933.982 790.341 978.173 c 0,26,27
 766.805 1022.13 766.805 1022.13 729.827 1047.93 c 1,28,29
 687.541 1074.11 687.541 1074.11 648.904 1086.07 c 128,-1,30
 610.367 1098 610.367 1098 575 1098 c 0,31,32
 542 1098 542 1098 505.39 1088.73 c 128,-1,33
 468.909 1079.5 468.909 1079.5 433.383 1059.87 c 0,34,35
 398.652 1041.64 398.652 1041.64 380.061 1013.33 c 0,36,37
 362 985.823 362 985.823 362 948 c 0,38,39
 362 946.912 362 946.912 361.901 945.827 c 0,40,41
 360.115 926.173 360.115 926.173 361.868 909.512 c 0,42,43
 363.004 898.72 363.004 898.72 355.321 890.86 c 128,-1,44
 347.638 883 347.638 883 338 883 c 2,45,-1
 182 883 l 2,46,47
 172 883 172 883 165 890 c 128,-1,48
 158 897 158 897 158 907 c 2,49,-1
 158 1074 l 2,50,51
 158 1083.94 158 1083.94 165.029 1090.97 c 0,52,53
 208.639 1134.58 208.639 1134.58 252.346 1172.2 c 0,54,55
 297.195 1210.78 297.195 1210.78 346.807 1238.46 c 0,56,57
 396.996 1266.46 396.996 1266.46 453.977 1281.23 c 128,-1,58
 510.935 1296 510.935 1296 580 1296 c 0,59,60
 659.206 1296 659.206 1296 737.677 1267.56 c 128,-1,61
 816.279 1239.08 816.279 1239.08 879.119 1185.22 c 0,62,63
 942.216 1131.14 942.216 1131.14 980.876 1055.41 c 0,64,65
 1020 978.771 1020 978.771 1020 885 c 0,66,67
 1020 836.651 1020 836.651 1011.55 793.849 c 0,68,69
 1002.93 750.223 1002.93 750.223 982.02 707.876 c 0,70,71
 961.459 666.228 961.459 666.228 928.006 622.845 c 0,72,73
 895.108 580.182 895.108 580.182 846.559 531.119 c 0,74,75
 798.628 482.68 798.628 482.68 733.624 423.723 c 0,76,77
 669 365.111 669 365.111 584.71 290.855 c 1,78,79
 537.421 250.608 537.421 250.608 492.243 213.462 c 0,80,81
 463.512 189.839 463.512 189.839 434.748 167 c 1,82,-1
 826 167 l 1,83,-1
 826 348 l 2,84,85
 826 358 826 358 833 365 c 128,-1,86
 840 372 840 372 850 372 c 2,87,-1
 994 372 l 2,88,89
 1004 372 1004 372 1011 365 c 128,-1,90
 1018 358 1018 358 1018 348 c 2,91,-1
 1018 0 l 2,92,93
 1018 -10 1018 -10 1011 -17 c 128,-1,94
 1004 -24 1004 -24 994 -24 c 2,0,-1
EndSplineSet
EndChar

StartChar: three
Encoding: 51 51 22
Width: 1228
Flags: W
LayerCount: 2
Fore
SplineSet
300.486 -7.4438 m 0,0,1
 294.366 -5.25484 294.366 -5.25484 288.231 -3.03083 c 0,2,3
 270.369 3.60354 270.369 3.60354 247.587 12.7166 c 0,4,5
 225.129 21.6995 225.129 21.6995 196.153 33.1901 c 128,-1,6
 167.022 44.7421 167.022 44.7421 127.891 60.796 c 0,7,8
 118.39 64.6938 118.39 64.6938 114.766 74.8455 c 128,-1,9
 111.142 84.9973 111.142 84.9973 115.042 92.6874 c 0,10,11
 129.949 126.477 129.949 126.477 143.856 159.754 c 0,12,13
 158.059 193.74 158.059 193.74 174.284 228.219 c 0,14,15
 178.655 237.508 178.655 237.508 188.988 240.61 c 128,-1,16
 199.32 243.713 199.32 243.713 206.733 239.466 c 0,17,18
 407.662 139 407.662 139 550 139 c 0,19,20
 594.478 139 594.478 139 641.104 152.988 c 0,21,22
 687.06 166.775 687.06 166.775 724.675 194.756 c 0,23,24
 761.473 222.129 761.473 222.129 784.456 264.04 c 0,25,26
 807 305.148 807 305.148 807 362 c 0,27,28
 807 395.408 807 395.408 798.553 422.968 c 0,29,30
 789.975 450.958 789.975 450.958 776.648 472.28 c 128,-1,31
 763.271 493.682 763.271 493.682 746.497 509.577 c 128,-1,32
 729.733 525.456 729.733 525.456 712.477 534.947 c 0,33,34
 701.659 540.849 701.659 540.849 694.206 544.824 c 0,35,36
 687.932 548.17 687.932 548.17 682.992 551.038 c 1,37,-1
 673.411 554.231 l 1,38,39
 655.316 555.435 655.316 555.435 636.44 558.266 c 0,40,41
 616.164 561.306 616.164 561.306 592.888 565.357 c 0,42,43
 571.019 569.158 571.019 569.158 546.159 571.071 c 0,44,45
 522.849 572.864 522.849 572.864 496.184 572.091 c 1,46,47
 485.691 570 485.691 570 475.5 570 c 2,48,-1
 458 570 l 2,49,50
 448 570 448 570 441 577 c 128,-1,51
 434 584 434 584 434 594 c 2,52,-1
 434 733 l 2,53,54
 434 742.929 434 742.929 441.347 749.901 c 128,-1,55
 448.695 756.873 448.695 756.873 457.667 756.998 c 0,56,57
 528.295 757.981 528.295 757.981 576.906 764.3 c 0,58,59
 621.941 770.154 621.941 770.154 652.652 788.58 c 0,60,61
 653.443 789.054 653.443 789.054 654.267 789.466 c 0,62,63
 690.254 807.46 690.254 807.46 718.068 852.592 c 0,64,65
 741 889.801 741 889.801 741 937 c 0,66,67
 741 974.406 741 974.406 725.973 1004.89 c 0,68,69
 710.722 1035.83 710.722 1035.83 684.636 1057.56 c 0,70,71
 658 1079.76 658 1079.76 621.659 1092.32 c 0,72,73
 584.963 1105 584.963 1105 542 1105 c 0,74,75
 499.762 1105 499.762 1105 459.853 1092.15 c 0,76,77
 418.039 1078.7 418.039 1078.7 380.124 1059.98 c 128,-1,78
 342.067 1041.19 342.067 1041.19 309.881 1019.58 c 0,79,80
 276.233 996.977 276.233 996.977 250.134 979.913 c 0,81,82
 241.237 974.624 241.237 974.624 231.687 976.892 c 128,-1,83
 222.137 979.161 222.137 979.161 217.141 986.524 c 0,84,85
 197.992 1014.74 197.992 1014.74 178.823 1044.51 c 128,-1,86
 159.593 1074.36 159.593 1074.36 140.363 1106.75 c 0,87,88
 135.505 1115.24 135.505 1115.24 137.85 1124.68 c 128,-1,89
 140.195 1134.12 140.195 1134.12 147.962 1139.15 c 0,90,91
 199.362 1172.41 199.362 1172.41 246.717 1200.62 c 0,92,93
 294.904 1229.33 294.904 1229.33 342.231 1250.42 c 0,94,95
 390.187 1271.8 390.187 1271.8 439.296 1283.81 c 0,96,97
 489.106 1296 489.106 1296 542 1296 c 0,98,99
 616.075 1296 616.075 1296 686.943 1271.15 c 128,-1,100
 757.764 1246.31 757.764 1246.31 814.95 1200.77 c 0,101,102
 872.842 1154.68 872.842 1154.68 907.681 1089.29 c 0,103,104
 943 1022.99 943 1022.99 943 941 c 0,105,106
 943 849.948 943 849.948 905.131 779.622 c 0,107,108
 875.087 723.827 875.087 723.827 821.502 678.073 c 1,109,110
 841.164 664.812 841.164 664.812 861.659 649.003 c 0,111,112
 898.923 620.259 898.923 620.259 931.217 580.023 c 0,113,114
 964.047 539.119 964.047 539.119 984.889 485.145 c 0,115,116
 1006 430.475 1006 430.475 1006 360 c 0,117,118
 1006 264.475 1006 264.475 968.585 187.507 c 0,119,120
 931.401 111.015 931.401 111.015 868.606 57.2669 c 0,121,122
 806.076 3.74526 806.076 3.74526 721.675 -24.7398 c 0,123,124
 637.939 -53 637.939 -53 544 -53 c 0,125,126
 517.803 -53 517.803 -53 491.612 -50.3809 c 0,127,128
 465.869 -47.8066 465.869 -47.8066 440.633 -43.6864 c 128,-1,129
 415.326 -39.5547 415.326 -39.5547 391.031 -33.8685 c 0,130,131
 367.104 -28.2687 367.104 -28.2687 344.685 -22.1543 c 0,132,133
 343.729 -21.8936 343.729 -21.8936 342.798 -21.555 c 0,134,135
 332.594 -17.8443 332.594 -17.8443 322.907 -15.0766 c 0,136,137
 311.783 -11.8984 311.783 -11.8984 300.486 -7.4438 c 0,0,1
EndSplineSet
EndChar

StartChar: four
Encoding: 52 52 23
Width: 1228
Flags: W
LayerCount: 2
Fore
SplineSet
653 444 m 1,0,-1
 653 976.003 l 1,1,2
 579.938 852.355 579.938 852.355 507.716 728.883 c 0,3,4
 424.4 586.443 424.4 586.443 340.893 444 c 1,5,-1
 653 444 l 1,0,-1
1009 -24 m 2,6,-1
 398 -24 l 2,7,8
 388 -24 388 -24 381 -17 c 128,-1,9
 374 -10 374 -10 374 0 c 2,10,-1
 374 143 l 2,11,12
 374 153 374 153 381 160 c 128,-1,13
 388 167 388 167 398 167 c 2,14,-1
 653 167 l 1,15,-1
 653 250 l 1,16,-1
 131 250 l 2,17,18
 121 250 121 250 114 257 c 128,-1,19
 107 264 107 264 107 274 c 2,20,-1
 107 414 l 2,21,22
 107 420.632 107 420.632 110.405 426.323 c 0,23,24
 183.452 548.404 183.452 548.404 253.008 662.493 c 128,-1,25
 322.495 776.47 322.495 776.47 387.979 884.446 c 128,-1,26
 453.472 992.436 453.472 992.436 513.966 1092.42 c 0,27,28
 574.626 1192.69 574.626 1192.69 632.698 1284.8 c 0,29,30
 639.759 1296 639.759 1296 653 1296 c 2,31,-1
 823 1296 l 2,32,33
 833 1296 833 1296 840 1289 c 128,-1,34
 847 1282 847 1282 847 1272 c 2,35,-1
 847 444 l 1,36,-1
 1009 444 l 2,37,38
 1019 444 1019 444 1026 437 c 128,-1,39
 1033 430 1033 430 1033 420 c 2,40,-1
 1033 274 l 2,41,42
 1033 264 1033 264 1026 257 c 128,-1,43
 1019 250 1019 250 1009 250 c 2,44,-1
 847 250 l 1,45,-1
 847 167 l 1,46,-1
 1009 167 l 2,47,48
 1019 167 1019 167 1026 160 c 128,-1,49
 1033 153 1033 153 1033 143 c 2,50,-1
 1033 0 l 2,51,52
 1033 -10 1033 -10 1026 -17 c 128,-1,53
 1019 -24 1019 -24 1009 -24 c 2,6,-1
EndSplineSet
EndChar

StartChar: five
Encoding: 53 53 24
Width: 1228
Flags: W
LayerCount: 2
Fore
SplineSet
968 1072 m 2,0,-1
 394 1072 l 1,1,-1
 394 799.775 l 1,2,3
 504.306 836 504.306 836 598 836 c 0,4,5
 694.53 836 694.53 836 776.74 803.852 c 0,6,7
 859.159 771.622 859.159 771.622 920.593 712.84 c 128,-1,8
 982.088 654 982.088 654 1017.01 573.559 c 128,-1,9
 1052 492.982 1052 492.982 1052 399 c 0,10,11
 1052 305.239 1052 305.239 1018.18 223.34 c 128,-1,12
 984.337 141.369 984.337 141.369 921.898 79.4574 c 128,-1,13
 859.414 17.5 859.414 17.5 770.345 -17.8106 c 0,14,15
 681.582 -53 681.582 -53 571 -53 c 0,16,17
 511.63 -53 511.63 -53 462.268 -47.344 c 0,18,19
 412.557 -41.6479 412.557 -41.6479 363.392 -28.7098 c 0,20,21
 314.716 -15.9001 314.716 -15.9001 261.573 4.0281 c 0,22,23
 209.256 23.6469 209.256 23.6469 142.913 50.7869 c 0,24,25
 133.994 54.4354 133.994 54.4354 130.114 63.4979 c 128,-1,26
 126.235 72.5603 126.235 72.5603 129.502 81.3565 c 0,27,28
 142.626 116.691 142.626 116.691 156.761 151.524 c 0,29,30
 170.626 185.692 170.626 185.692 183.502 220.356 c 0,31,32
 187.102 230.05 187.102 230.05 196.923 234.078 c 128,-1,33
 206.743 238.106 206.743 238.106 216 233.818 c 0,34,35
 310.228 190.629 310.228 190.629 393.861 167.642 c 0,36,37
 476.236 145 476.236 145 564 145 c 0,38,39
 628.339 145 628.339 145 680.841 161.408 c 0,40,41
 732.255 177.475 732.255 177.475 769.069 208.381 c 0,42,43
 805.296 238.796 805.296 238.796 825.542 284.687 c 0,44,45
 846 331.061 846 331.061 846 393 c 0,46,47
 846 443.486 846 443.486 828.14 489.28 c 0,48,49
 810.409 534.745 810.409 534.745 776.805 569.257 c 128,-1,50
 743.136 603.836 743.136 603.836 694.021 624.951 c 128,-1,51
 645.06 646 645.06 646 583 646 c 0,52,53
 513.031 646 513.031 646 452.637 619.52 c 0,54,55
 389.704 591.927 389.704 591.927 321.573 545.206 c 0,56,57
 309.082 536.641 309.082 536.641 295.975 544.23 c 2,58,-1
 219.975 588.23 l 2,59,60
 208 595.163 208 595.163 208 609 c 2,61,-1
 208 1241 l 2,62,63
 208 1251 208 1251 215 1258 c 128,-1,64
 222 1265 222 1265 232 1265 c 2,65,-1
 968 1265 l 2,66,67
 978 1265 978 1265 985 1258 c 128,-1,68
 992 1251 992 1251 992 1241 c 2,69,-1
 992 1096 l 2,70,71
 992 1086 992 1086 985 1079 c 128,-1,72
 978 1072 978 1072 968 1072 c 2,0,-1
EndSplineSet
EndChar

StartChar: six
Encoding: 54 54 25
Width: 1228
Flags: W
LayerCount: 2
Fore
SplineSet
764.263 205.205 m 0,0,1
 769.565 211.602 769.565 211.602 774.376 217.639 c 0,2,3
 789.889 236.348 789.889 236.348 801.707 259.072 c 128,-1,4
 813.424 281.606 813.424 281.606 820.24 308.414 c 0,5,6
 827 335.003 827 335.003 827 372 c 2,7,-1
 827 373 l 2,8,9
 827 414.027 827 414.027 812.28 457.266 c 128,-1,10
 797.628 500.306 797.628 500.306 770.734 534.038 c 0,11,12
 744.131 567.406 744.131 567.406 706.674 588.616 c 0,13,14
 670.675 609 670.675 609 625 609 c 0,15,16
 609.607 609 609.607 609 585.202 605.715 c 0,17,18
 561.731 602.555 561.731 602.555 533.642 592.423 c 128,-1,19
 505.674 582.335 505.674 582.335 475.946 563.291 c 0,20,21
 446.622 544.506 446.622 544.506 418.797 513.898 c 0,22,23
 402.308 495.577 402.308 495.577 389.956 475.448 c 0,24,25
 378.745 457.178 378.745 457.178 369.117 436.134 c 1,26,27
 370.703 384.34 370.703 384.34 383.433 343.075 c 0,28,29
 397.055 298.923 397.055 298.923 418.006 264.47 c 0,30,31
 438.669 230.491 438.669 230.491 465.538 206.354 c 0,32,33
 492.161 182.438 492.161 182.438 520.62 169.988 c 0,34,35
 521.345 169.67 521.345 169.67 522.048 169.306 c 0,36,37
 546.326 156.717 546.326 156.717 571.837 150.899 c 0,38,39
 597.702 145 597.702 145 621 145 c 0,40,41
 664.056 145 664.056 145 699.012 160.045 c 0,42,43
 733.494 174.886 733.494 174.886 764.263 205.205 c 0,0,1
1022 1097 m 2,44,-1
 1011 1097 l 2,45,46
 992.667 1097 992.667 1097 973.852 1097.51 c 128,-1,47
 955.005 1098.02 955.005 1098.02 937.591 1099.04 c 0,48,49
 920.508 1100.05 920.508 1100.05 905.404 1101.05 c 0,50,51
 891.202 1102 891.202 1102 882 1102 c 0,52,53
 773.852 1102 773.852 1102 693.622 1082.67 c 0,54,55
 615.005 1063.72 615.005 1063.72 557.72 1023.81 c 0,56,57
 500.82 984.165 500.82 984.165 463.44 923.422 c 0,58,59
 425.187 861.26 425.187 861.26 400.095 772.473 c 0,60,61
 399.944 771.937 399.944 771.937 399.768 771.411 c 0,62,63
 393.24 751.826 393.24 751.826 388.345 729.125 c 1,64,65
 393.428 732.827 393.428 732.827 398.322 736.221 c 0,66,67
 431.154 758.991 431.154 758.991 466.692 774.904 c 0,68,69
 502.44 790.912 502.44 790.912 541.362 799.443 c 128,-1,70
 580.398 808 580.398 808 623 808 c 0,71,72
 707.195 808 707.195 808 782.42 773.854 c 0,73,74
 857.202 739.909 857.202 739.909 912.935 680.993 c 128,-1,75
 968.481 622.275 968.481 622.275 1001.18 543.168 c 0,76,77
 1034 463.768 1034 463.768 1034 373 c 0,78,79
 1034 289.304 1034 289.304 1002.73 212.455 c 0,80,81
 971.578 135.894 971.578 135.894 917.093 77.1753 c 0,82,83
 862.419 18.2529 862.419 18.2529 786.682 -17.2328 c 0,84,85
 710.345 -53 710.345 -53 621 -53 c 0,86,87
 536.229 -53 536.229 -53 453.319 -18.6747 c 0,88,89
 369.877 15.8713 369.877 15.8713 303.771 88.3237 c 0,90,91
 238.066 160.336 238.066 160.336 197.942 270.807 c 0,92,93
 158.029 380.695 158.029 380.695 157 530.918 c 0,94,95
 157 572.034 157 572.034 161.589 625.069 c 0,96,97
 166.211 678.478 166.211 678.478 178.498 737.863 c 128,-1,98
 190.808 797.363 190.808 797.363 212.307 859.812 c 0,99,100
 233.982 922.775 233.982 922.775 266.986 982.594 c 0,101,102
 300.173 1042.74 300.173 1042.74 346.778 1097.12 c 0,103,104
 393.895 1152.09 393.895 1152.09 457.612 1194.92 c 0,105,106
 458.89 1195.78 458.89 1195.78 460.267 1196.47 c 2,107,-1
 462.89 1197.78 l 1,108,109
 507.947 1227.86 507.947 1227.86 559.098 1246.98 c 128,-1,110
 610.228 1266.09 610.228 1266.09 664.911 1277.95 c 128,-1,111
 719.473 1289.79 719.473 1289.79 776.56 1294.42 c 0,112,113
 832.506 1298.96 832.506 1298.96 890.212 1299 c 0,114,115
 906.126 1300.01 906.126 1300.01 922.75 1299.49 c 0,116,117
 938.328 1299 938.328 1299 956 1299 c 0,118,119
 956.747 1299 956.747 1299 957.497 1298.95 c 0,120,121
 973.101 1297.98 973.101 1297.98 989.227 1297.49 c 0,122,123
 1006.76 1296.96 1006.76 1296.96 1024.8 1294.84 c 0,124,125
 1033.9 1293.77 1033.9 1293.77 1039.95 1286.58 c 128,-1,126
 1046 1279.39 1046 1279.39 1046 1271 c 2,127,-1
 1046 1121 l 2,128,129
 1046 1111 1046 1111 1039 1104 c 128,-1,130
 1032 1097 1032 1097 1022 1097 c 2,44,-1
EndSplineSet
EndChar

StartChar: seven
Encoding: 55 55 26
Width: 1228
Flags: W
LayerCount: 2
Fore
SplineSet
429.558 8.50682 m 0,0,1
 546.037 315.785 546.037 315.785 637.561 557.013 c 0,2,3
 736.067 816.653 736.067 816.653 834.165 1074 c 1,4,-1
 343 1074 l 1,5,-1
 343 910 l 2,6,7
 343 900 343 900 336 893 c 128,-1,8
 329 886 329 886 319 886 c 2,9,-1
 170 886 l 2,10,11
 160 886 160 886 153 893 c 128,-1,12
 146 900 146 900 146 910 c 2,13,-1
 146 1241 l 2,14,15
 146 1251 146 1251 153 1258 c 128,-1,16
 160 1265 160 1265 170 1265 c 2,17,-1
 1029 1265 l 2,18,19
 1039 1265 1039 1265 1046 1258 c 128,-1,20
 1053 1251 1053 1251 1053 1241 c 2,21,-1
 1053 1126 l 2,22,23
 1053 1119.48 1053 1119.48 1049.38 1113.3 c 1,24,25
 952.294 844.844 952.294 844.844 846.562 553.318 c 0,26,27
 745.565 274.842 745.565 274.842 643.578 -8.13774 c 0,28,29
 637.862 -24 637.862 -24 621 -24 c 2,30,-1
 452 -24 l 2,31,32
 442 -24 442 -24 435 -17 c 128,-1,33
 428 -10 428 -10 428 0 c 0,34,35
 428 4.39627 428 4.39627 429.558 8.50682 c 0,0,1
EndSplineSet
EndChar

StartChar: eight
Encoding: 56 56 27
Width: 1228
Flags: W
LayerCount: 2
Fore
SplineSet
939.748 677.844 m 0,0,1
 919.504 655.576 919.504 655.576 894.331 635.753 c 1,2,3
 921.068 616.522 921.068 616.522 944.464 594.462 c 0,4,5
 981.699 559.354 981.699 559.354 1007.82 517.767 c 128,-1,6
 1033.97 476.141 1033.97 476.141 1048.4 430.189 c 0,7,8
 1063 383.683 1063 383.683 1063 335 c 0,9,10
 1063 262.934 1063 262.934 1031.95 192.784 c 0,11,12
 1001.02 122.934 1001.02 122.934 943.564 68.1322 c 128,-1,13
 886.228 13.449 886.228 13.449 803.438 -19.7736 c 128,-1,14
 720.638 -53 720.638 -53 617 -53 c 0,15,16
 532.228 -53 532.228 -53 452.636 -27.3424 c 0,17,18
 372.595 -1.53995 372.595 -1.53995 310.243 47.0728 c 0,19,20
 247.253 96.1833 247.253 96.1833 208.859 167.64 c 0,21,22
 170 239.961 170 239.961 170 332 c 0,23,24
 170 429.61 170 429.61 223.79 515.573 c 0,25,26
 225.086 518.688 225.086 518.688 226.396 520.646 c 0,27,28
 231.384 528.097 231.384 528.097 237.544 536.075 c 0,29,30
 276.288 593.393 276.288 593.393 339.153 636.019 c 1,31,32
 331.013 642.709 331.013 642.709 323.266 649.823 c 0,33,34
 298.363 672.693 298.363 672.693 279.182 695.879 c 1,35,36
 239.921 735.837 239.921 735.837 218.011 794.618 c 128,-1,37
 196.074 853.474 196.074 853.474 195 916.797 c 0,38,39
 195 931.417 195 931.417 195.514 946.327 c 0,40,41
 196.062 962.222 196.062 962.222 199.38 979.281 c 0,42,43
 210.36 1046.03 210.36 1046.03 246.106 1103.65 c 128,-1,44
 281.866 1161.29 281.866 1161.29 337.253 1204.43 c 0,45,46
 392.436 1247.42 392.436 1247.42 463.759 1271.72 c 128,-1,47
 535.029 1296 535.029 1296 617 1296 c 0,48,49
 698.128 1296 698.128 1296 774.012 1269.12 c 128,-1,50
 850.046 1242.19 850.046 1242.19 908.815 1193.48 c 0,51,52
 967.966 1144.45 967.966 1144.45 1004.19 1076.26 c 0,53,54
 1041 1006.99 1041 1006.99 1041 925 c 0,55,56
 1041 880.803 1041 880.803 1029.16 837.209 c 0,57,58
 1017.39 793.86 1017.39 793.86 994.94 753.773 c 128,-1,59
 972.593 713.867 972.593 713.867 939.748 677.844 c 0,0,1
758.189 773.549 m 1,60,61
 769.262 783.429 769.262 783.429 779.305 793.743 c 0,62,63
 796.029 810.92 796.029 810.92 808.175 830.262 c 0,64,65
 820.143 849.324 820.143 849.324 827.732 872.089 c 0,66,67
 835 893.895 835 893.895 835 922 c 0,68,69
 835 965.681 835 965.681 816.612 998.182 c 0,70,71
 797.371 1032.19 797.371 1032.19 767.439 1056.31 c 128,-1,72
 737.479 1080.46 737.479 1080.46 698.811 1092.6 c 0,73,74
 659.323 1105 659.323 1105 620 1105 c 0,75,76
 554.227 1105 554.227 1105 511.984 1085.68 c 128,-1,77
 469.564 1066.27 469.564 1066.27 444.422 1038.04 c 128,-1,78
 419.31 1009.84 419.31 1009.84 409.362 978.697 c 0,79,80
 399 946.259 399 946.259 399 921 c 0,81,82
 399 883.342 399 883.342 415.234 848.679 c 0,83,84
 431.738 813.443 431.738 813.443 460.779 786.635 c 128,-1,85
 490.006 759.656 490.006 759.656 529.87 743.801 c 128,-1,86
 569.598 728 569.598 728 616 728 c 0,87,88
 657.899 728 657.899 728 698.026 742.137 c 0,89,90
 730.567 753.601 730.567 753.601 758.189 773.549 c 1,60,61
772.274 186.706 m 0,91,92
 777.785 191.636 777.785 191.636 782.426 195.822 c 0,93,94
 806.227 217.29 806.227 217.29 823.347 239.962 c 0,95,96
 839.767 261.707 839.767 261.707 848.546 284.973 c 0,97,98
 857 307.38 857 307.38 857 335 c 0,99,100
 857 372.583 857 372.583 839.826 408.692 c 0,101,102
 822.346 445.445 822.346 445.445 791.318 473.776 c 128,-1,103
 760.103 502.277 760.103 502.277 715.746 519.654 c 128,-1,104
 671.465 537 671.465 537 617 537 c 0,105,106
 563.047 537 563.047 537 517.867 521.326 c 0,107,108
 473.249 505.847 473.249 505.847 442.248 478.889 c 0,109,110
 411.612 452.249 411.612 452.249 394.268 414.893 c 128,-1,111
 377 377.7 377 377.7 377 335 c 0,112,113
 377 293.975 377 293.975 395.698 258.753 c 0,114,115
 414.939 222.509 414.939 222.509 447.212 196.063 c 0,116,117
 479.878 169.295 479.878 169.295 523.802 154.196 c 0,118,119
 568.01 139 568.01 139 617 139 c 0,120,121
 706.049 139 706.049 139 772.274 186.706 c 0,91,92
EndSplineSet
EndChar

StartChar: nine
Encoding: 57 57 28
Width: 1228
Flags: W
LayerCount: 2
Fore
SplineSet
747.175 734.672 m 0,0,1
 773.418 765.752 773.418 765.752 792.529 808.012 c 1,2,3
 786.29 870.804 786.29 870.804 767.411 923.391 c 0,4,5
 747.855 977.866 747.855 977.866 714.598 1017.59 c 0,6,7
 681.907 1056.64 681.907 1056.64 638.035 1077.9 c 0,8,9
 594.492 1099 594.492 1099 541 1099 c 0,10,11
 494.423 1099 494.423 1099 457.318 1081.33 c 0,12,13
 419.657 1063.4 419.657 1063.4 392.365 1032.97 c 128,-1,14
 364.974 1002.44 364.974 1002.44 350.062 961.318 c 0,15,16
 334.915 919.548 334.915 919.548 334 873.76 c 2,17,-1
 334 871 l 2,18,19
 334 828.814 334 828.814 347.818 786.44 c 0,20,21
 361.561 744.294 361.561 744.294 387.608 710.022 c 0,22,23
 413.045 676.553 413.045 676.553 451.113 655.503 c 0,24,25
 488.194 635 488.194 635 537 635 c 0,26,27
 549.565 635 549.565 635 573.141 637.829 c 0,28,29
 595.663 640.532 595.663 640.532 624.301 650.231 c 0,30,31
 652.554 659.801 652.554 659.801 683.115 679.248 c 0,32,33
 713.434 698.541 713.434 698.541 743.287 731.194 c 0,34,35
 744.561 732.588 744.561 732.588 747.175 734.672 c 0,0,1
144.293 147.613 m 0,36,37
 153.704 145.902 153.704 145.902 163.09 145.475 c 0,38,39
 174.54 144.955 174.54 144.955 186.953 143.92 c 0,40,41
 210.959 142 210.959 142 234.5 142 c 0,42,43
 258.541 142 258.541 142 284.43 142.996 c 0,44,45
 393 143.973 393 143.973 478.304 164.814 c 0,46,47
 560.941 185.004 560.941 185.004 620.692 234.485 c 0,48,49
 680.687 284.167 680.687 284.167 720.912 366.986 c 0,50,51
 750.36 427.616 750.36 427.616 769.93 511.488 c 1,52,53
 765.371 508.257 765.371 508.257 761.385 505.579 c 0,54,55
 727.369 482.726 727.369 482.726 691.138 467.808 c 128,-1,56
 655.072 452.958 655.072 452.958 616.895 445.004 c 0,57,58
 578.472 437 578.472 437 539 437 c 0,59,60
 449.804 437 449.804 437 373.569 471.651 c 0,61,62
 297.582 506.189 297.582 506.189 243.256 565.84 c 0,63,64
 189.236 625.155 189.236 625.155 158.615 704.345 c 128,-1,65
 128 783.52 128 783.52 128 872 c 0,66,67
 128 951.427 128 951.427 157.08 1027.56 c 128,-1,68
 186.203 1103.81 186.203 1103.81 240.763 1163.67 c 128,-1,69
 295.342 1223.54 295.342 1223.54 370.948 1260.56 c 0,70,71
 447.435 1298 447.435 1298 541 1298 c 0,72,73
 592.086 1298 592.086 1298 646.586 1283.72 c 0,74,75
 701.317 1269.37 701.317 1269.37 753.224 1238.65 c 128,-1,76
 805.003 1208.01 805.003 1208.01 850.756 1160.68 c 0,77,78
 896.713 1113.14 896.713 1113.14 930.829 1047 c 0,79,80
 964.695 981.355 964.695 981.355 984.373 896.949 c 0,81,82
 1004 812.765 1004 812.765 1004 708 c 0,83,84
 1004 656.466 1004 656.466 995.3 589.411 c 128,-1,85
 986.606 522.396 986.606 522.396 967.703 450.868 c 128,-1,86
 948.779 379.256 948.779 379.256 919.125 308.701 c 0,87,88
 888.992 237.005 888.992 237.005 846.111 179.481 c 1,89,90
 795.786 114.479 795.786 114.479 732.872 69.9154 c 0,91,92
 670.344 25.6252 670.344 25.6252 596.944 -1.96535 c 0,93,94
 524.131 -29.3354 524.131 -29.3354 441.183 -42.2158 c 0,95,96
 358.853 -55 358.853 -55 271 -55 c 0,97,98
 253.613 -55 253.613 -55 237.726 -54.4875 c 0,99,100
 222.613 -54 222.613 -54 206 -54 c 0,101,102
 188.647 -54 188.647 -54 171.773 -53.489 c 0,103,104
 154.144 -52.9548 154.144 -52.9548 137.023 -50.8147 c 0,105,106
 127.959 -49.6817 127.959 -49.6817 121.98 -42.4642 c 128,-1,107
 116 -35.2467 116 -35.2467 116 -27 c 2,108,-1
 116 124 l 2,109,110
 116 135.441 116 135.441 125.182 142.43 c 128,-1,111
 134.365 149.418 134.365 149.418 144.293 147.613 c 0,36,37
EndSplineSet
EndChar

StartChar: colon
Encoding: 58 58 29
Width: 1228
Flags: W
LayerCount: 2
Fore
SplineSet
801.226 26.7992 m 0,0,1
 787.652 0.782799 787.652 0.782799 767.201 -20.2365 c 128,-1,2
 746.677 -41.3322 746.677 -41.3322 721.492 -55.0695 c 0,3,4
 697.1 -68.375 697.1 -68.375 669.471 -76.1111 c 0,5,6
 641.297 -84 641.297 -84 614 -84 c 0,7,8
 583.607 -84 583.607 -84 554.348 -75.5598 c 0,9,10
 525.337 -67.1912 525.337 -67.1912 500.152 -52.0798 c 128,-1,11
 474.819 -36.8797 474.819 -36.8797 455.552 -16.479 c 0,12,13
 435.901 4.32765 435.901 4.32765 425.196 29.9229 c 1,14,15
 408 63.776 408 63.776 408 104 c 0,16,17
 408 142.497 408 142.497 424.892 177.444 c 0,18,19
 441.449 211.701 441.449 211.701 469.465 236.857 c 0,20,21
 497.061 261.637 497.061 261.637 533.913 276.713 c 0,22,23
 571.28 292 571.28 292 614 292 c 0,24,25
 652.391 292 652.391 292 689.501 277.944 c 0,26,27
 726.334 263.993 726.334 263.993 754.97 239.849 c 0,28,29
 784.125 215.268 784.125 215.268 801.822 181.016 c 0,30,31
 820 145.836 820 145.836 820 104 c 128,-1,32
 820 62.0006 820 62.0006 801.226 26.7992 c 0,0,1
801.131 581.621 m 0,33,34
 772.835 529.56 772.835 529.56 722.432 500.677 c 0,35,36
 672.391 472 672.391 472 614 472 c 0,37,38
 573.831 472 573.831 472 536.407 485.406 c 128,-1,39
 498.858 498.856 498.858 498.856 470.563 522.623 c 0,40,41
 441.566 546.98 441.566 546.98 424.825 582.195 c 128,-1,42
 408 617.586 408 617.586 408 659 c 0,43,44
 408 696.498 408 696.498 424.892 731.444 c 0,45,46
 441.275 765.339 441.275 765.339 468.394 791.328 c 0,47,48
 495.736 817.529 495.736 817.529 533.529 832.76 c 128,-1,49
 571.345 848 571.345 848 614 848 c 0,50,51
 653.723 848 653.723 848 691.087 832.713 c 0,52,53
 727.718 817.726 727.718 817.726 756.178 793.172 c 0,54,55
 785.318 768.029 785.318 768.029 802.466 733.733 c 0,56,57
 820 698.666 820 698.666 820 659 c 0,58,59
 820 616.999 820 616.999 801.131 581.621 c 0,33,34
EndSplineSet
EndChar

StartChar: semicolon
Encoding: 59 59 30
Width: 1228
Flags: W
LayerCount: 2
Fore
SplineSet
801.131 581.621 m 0,0,1
 772.835 529.56 772.835 529.56 722.432 500.677 c 0,2,3
 672.391 472 672.391 472 614 472 c 0,4,5
 573.831 472 573.831 472 536.407 485.406 c 0,6,7
 498.721 498.905 498.721 498.905 470.351 523.304 c 0,8,9
 441.566 548.059 441.566 548.059 424.892 582.556 c 0,10,11
 408 617.502 408 617.502 408 659 c 0,12,13
 408 697.497 408 697.497 424.892 732.444 c 0,14,15
 441.333 766.458 441.333 766.458 468.585 792.009 c 128,-1,16
 495.859 817.579 495.859 817.579 533.529 832.76 c 128,-1,17
 571.345 848 571.345 848 614 848 c 0,18,19
 653.723 848 653.723 848 691.087 832.713 c 0,20,21
 727.718 817.726 727.718 817.726 756.178 793.172 c 0,22,23
 785.318 768.029 785.318 768.029 802.466 733.733 c 0,24,25
 820 698.666 820 698.666 820 659 c 0,26,27
 820 616.999 820 616.999 801.131 581.621 c 0,0,1
314.104 -241.804 m 0,28,29
 358.118 -101.764 358.118 -101.764 400.631 31.7804 c 128,-1,30
 443.124 165.261 443.124 165.261 487.119 304.243 c 0,31,32
 492.423 321 492.423 321 510 321 c 2,33,-1
 776 321 l 2,34,35
 786 321 786 321 793 314 c 128,-1,36
 800 307 800 307 800 297 c 0,37,38
 800 291.822 800 291.822 797.865 287.105 c 0,39,40
 736.29 151.042 736.29 151.042 674.885 14.6479 c 0,41,42
 613.886 -120.843 613.886 -120.843 551.892 -258.836 c 0,43,44
 545.529 -273 545.529 -273 530 -273 c 2,45,-1
 337 -273 l 2,46,47
 327 -273 327 -273 320 -266 c 128,-1,48
 313 -259 313 -259 313 -249 c 0,49,50
 313 -245.317 313 -245.317 314.104 -241.804 c 0,28,29
EndSplineSet
EndChar

StartChar: less
Encoding: 60 60 31
Width: 1228
Flags: W
LayerCount: 2
Fore
SplineSet
1141.79 204.943 m 0,0,1
 1126.88 173.133 1126.88 173.133 1111.96 139.313 c 0,2,3
 1107.82 129.936 1107.82 129.936 1097.53 126.594 c 128,-1,4
 1087.23 123.252 1087.23 123.252 1080 127.182 c 0,5,6
 1007.82 160.264 1007.82 160.264 933.858 194.748 c 0,7,8
 860.103 229.135 860.103 229.135 785.534 263.166 c 0,9,10
 710.659 297.34 710.659 297.34 636.413 331.722 c 0,11,12
 561.256 366.529 561.256 366.529 488.865 400.244 c 0,13,14
 415.636 434.352 415.636 434.352 344.758 467.795 c 128,-1,15
 273.863 501.246 273.863 501.246 205.004 533.181 c 0,16,17
 162.879 552.237 162.879 552.237 122.307 571.272 c 128,-1,18
 81.551 590.393 81.551 590.393 42.4887 609.424 c 0,19,20
 33.6748 613.718 33.6748 613.718 30.4025 623.208 c 128,-1,21
 27.1302 632.697 27.1302 632.697 31.4243 641.511 c 0,22,23
 35.1165 649.09 35.1165 649.09 42.7367 652.695 c 0,24,25
 296.71 772.832 296.71 772.832 559.708 897.681 c 0,26,27
 813.391 1018.11 813.391 1018.11 1077.63 1144.65 c 0,28,29
 1087.58 1148.79 1087.58 1148.79 1096.86 1144.94 c 128,-1,30
 1106.14 1141.08 1106.14 1141.08 1109.85 1132.93 c 0,31,32
 1124.93 1099.74 1124.93 1099.74 1140.01 1065.07 c 0,33,34
 1154.83 1030.97 1154.83 1030.97 1170.72 997.222 c 0,35,36
 1174.81 987.84 1174.81 987.84 1171.22 978.545 c 128,-1,37
 1167.63 969.25 1167.63 969.25 1159.24 965.292 c 0,38,39
 966.235 874.301 966.235 874.301 779.742 786.295 c 0,40,41
 616.134 709.09 616.134 709.09 447.993 630.989 c 1,42,43
 630.478 546.213 630.478 546.213 801.082 466.78 c 0,44,45
 989.976 379.827 989.976 379.827 1160.75 303.931 c 0,46,47
 1170.12 299.764 1170.12 299.764 1173.45 289.491 c 128,-1,48
 1176.77 279.219 1176.77 279.219 1172.72 271.781 c 0,49,50
 1156.78 237.911 1156.78 237.911 1141.79 204.943 c 0,0,1
EndSplineSet
EndChar

StartChar: equal
Encoding: 61 61 32
Width: 1228
Flags: W
LayerCount: 2
Fore
SplineSet
1122 337 m 2,0,-1
 106 337 l 2,1,2
 96 337 96 337 89 344 c 128,-1,3
 82 351 82 351 82 361 c 2,4,-1
 82 511 l 2,5,6
 82 521 82 521 89 528 c 128,-1,7
 96 535 96 535 106 535 c 2,8,-1
 1122 535 l 2,9,10
 1132 535 1132 535 1139 528 c 128,-1,11
 1146 521 1146 521 1146 511 c 2,12,-1
 1146 361 l 2,13,14
 1146 351 1146 351 1139 344 c 128,-1,15
 1132 337 1132 337 1122 337 c 2,0,-1
1122 712 m 2,16,-1
 106 712 l 2,17,18
 96 712 96 712 89 719 c 128,-1,19
 82 726 82 726 82 736 c 2,20,-1
 82 885 l 2,21,22
 82 895 82 895 89 902 c 128,-1,23
 96 909 96 909 106 909 c 2,24,-1
 1122 909 l 2,25,26
 1132 909 1132 909 1139 902 c 128,-1,27
 1146 895 1146 895 1146 885 c 2,28,-1
 1146 736 l 2,29,30
 1146 726 1146 726 1139 719 c 128,-1,31
 1132 712 1132 712 1122 712 c 2,16,-1
EndSplineSet
EndChar

StartChar: greater
Encoding: 62 62 33
Width: 1228
Flags: W
LayerCount: 2
Fore
SplineSet
669.076 893.783 m 1,0,1
 927.397 775.102 927.397 775.102 1190.13 652.757 c 0,2,3
 1199.02 648.618 1199.02 648.618 1202.46 639.188 c 128,-1,4
 1205.9 629.757 1205.9 629.757 1201.76 620.869 c 0,5,6
 1198.12 613.052 1198.12 613.052 1190.33 609.339 c 0,7,8
 924.349 482.443 924.349 482.443 669.778 361.812 c 0,9,10
 413.296 240.274 413.296 240.274 149.334 114.339 c 0,11,12
 139.229 110.299 139.229 110.299 130.089 114.146 c 128,-1,13
 120.95 117.992 120.95 117.992 117.284 125.781 c 0,14,15
 101.129 160.112 101.129 160.112 86.4747 193.967 c 0,16,17
 71.9568 227.508 71.9568 227.508 56.9405 262.546 c 0,18,19
 53.2049 271.553 53.2049 271.553 56.769 280.655 c 128,-1,20
 60.333 289.756 60.333 289.756 68.8136 293.731 c 0,21,22
 260.496 383.585 260.496 383.585 449.73 472.692 c 0,23,24
 615.349 551.558 615.349 551.558 784.439 630.611 c 1,25,26
 601.062 713.288 601.062 713.288 431.534 790.667 c 0,27,28
 242.455 876.97 242.455 876.97 68.7205 959.313 c 0,29,30
 60.0012 963.445 60.0012 963.445 56.5876 972.755 c 128,-1,31
 53.1741 982.065 53.1741 982.065 57.042 990.687 c 0,32,33
 72.1209 1024.87 72.1209 1024.87 87.209 1057.56 c 0,34,35
 102.121 1089.87 102.121 1089.87 117.042 1123.69 c 0,36,37
 121.183 1133.07 121.183 1133.07 131.452 1136.42 c 128,-1,38
 141.721 1139.77 141.721 1139.77 149.131 1135.76 c 0,39,40
 409.165 1014.68 409.165 1014.68 669.076 893.783 c 1,0,1
EndSplineSet
EndChar

StartChar: question
Encoding: 63 63 34
Width: 1228
Flags: W
LayerCount: 2
Fore
SplineSet
601.234 -79.4223 m 0,0,1
 594.462 -80.9356 594.462 -80.9356 587.218 -82.4295 c 0,2,3
 567.159 -87 567.159 -87 545 -87 c 0,4,5
 504.414 -87 504.414 -87 471.153 -73.8099 c 0,6,7
 438.402 -60.8222 438.402 -60.8222 413.846 -39.6923 c 0,8,9
 389.083 -18.3841 389.083 -18.3841 373.999 8.88253 c 0,10,11
 359.688 34.7519 359.688 34.7519 355.647 61.6561 c 0,12,13
 354 68.2458 354 68.2458 354 73 c 2,14,-1
 354 88 l 2,15,16
 354 123.287 354 123.287 368.721 155.083 c 0,17,18
 383.193 186.343 383.193 186.343 409.124 210.545 c 0,19,20
 434.782 234.492 434.782 234.492 468.769 248.654 c 0,21,22
 503.2 263 503.2 263 543 263 c 0,23,24
 579.26 263 579.26 263 613.262 250.533 c 128,-1,25
 647.144 238.11 647.144 238.11 673.826 215.969 c 0,26,27
 701.141 193.303 701.141 193.303 717.388 161.388 c 0,28,29
 734 128.757 734 128.757 734 89 c 0,30,31
 734 33.0019 734 33.0019 699.086 -13.5516 c 0,32,33
 663.415 -59.5805 663.415 -59.5805 603.33 -78.8532 c 0,34,35
 602.295 -79.1852 602.295 -79.1852 601.234 -79.4223 c 0,0,1
623 314 m 2,36,-1
 476 314 l 2,37,38
 466 314 466 314 459 321 c 128,-1,39
 452 328 452 328 452 338 c 2,40,-1
 452 580 l 2,41,42
 452 588.381 452 588.381 457.452 595.028 c 128,-1,43
 462.905 601.676 462.905 601.676 470.794 603.428 c 0,44,45
 506.564 611.377 506.564 611.377 547.583 620.881 c 0,46,47
 587.644 630.162 587.644 630.162 627.746 642.878 c 0,48,49
 667.077 655.348 667.077 655.348 703.495 673.079 c 0,50,51
 738.383 690.064 738.383 690.064 764.325 713.73 c 0,52,53
 789.425 736.628 789.425 736.628 804.915 768.493 c 0,54,55
 820 799.524 820 799.524 820 843 c 0,56,57
 820 868.95 820 868.95 808.828 901.128 c 0,58,59
 798.068 932.118 798.068 932.118 771.754 959.31 c 0,60,61
 745.131 986.82 745.131 986.82 699.099 1006.42 c 128,-1,62
 653.103 1026 653.103 1026 582 1026 c 0,63,64
 532.287 1026 532.287 1026 482.532 1016.43 c 0,65,66
 439.91 1008.24 439.91 1008.24 392 991.994 c 1,67,-1
 392 869 l 2,68,69
 392 859 392 859 385 852 c 128,-1,70
 378 845 378 845 368 845 c 2,71,-1
 220 845 l 2,72,73
 210 845 210 845 203 852 c 128,-1,74
 196 859 196 859 196 869 c 2,75,-1
 196 1119 l 2,76,77
 196 1135.19 196 1135.19 211.005 1141.25 c 0,78,79
 258.806 1160.57 258.806 1160.57 299.582 1173.82 c 128,-1,80
 340.257 1187.04 340.257 1187.04 373.427 1195.72 c 128,-1,81
 406.514 1204.37 406.514 1204.37 433.623 1210 c 0,82,83
 461.352 1215.76 461.352 1215.76 483.01 1217.92 c 0,84,85
 498.76 1218.97 498.76 1218.97 512.612 1219.48 c 0,86,87
 524.968 1219.94 524.968 1219.94 538.828 1221.79 c 0,88,89
 540.407 1222 540.407 1222 542 1222 c 0,90,91
 549.326 1222 549.326 1222 557.669 1222.46 c 0,92,93
 567.342 1223 567.342 1223 578 1223 c 0,94,95
 667.002 1223 667.002 1223 746.768 1195.71 c 0,96,97
 826.915 1168.29 826.915 1168.29 887.785 1118 c 0,98,99
 949.196 1067.27 949.196 1067.27 984.966 995.733 c 0,100,101
 1020.93 923.802 1020.93 923.802 1022 836.876 c 1,102,103
 1019.87 742.754 1019.87 742.754 984.681 676.715 c 0,104,105
 949.864 611.365 949.864 611.365 893.014 565.776 c 0,106,107
 837.367 521.152 837.367 521.152 768.231 492.346 c 0,108,109
 709.337 467.808 709.337 467.808 647 449.029 c 1,110,-1
 647 338 l 2,111,112
 647 328 647 328 640 321 c 128,-1,113
 633 314 633 314 623 314 c 2,36,-1
EndSplineSet
EndChar

StartChar: at
Encoding: 64 64 35
Width: 1228
Flags: W
LayerCount: 2
Fore
SplineSet
749.041 823.601 m 1,0,1
 756.885 856.5 756.885 856.5 775.989 856.5 c 2,2,-1
 910.311 856.5 l 2,3,4
 920.116 856.5 920.116 856.5 927.214 849.402 c 128,-1,5
 934.311 842.304 934.311 842.304 934.311 835.672 c 0,6,7
 934.311 828.397 934.311 828.397 910.563 748.774 c 128,-1,8
 886.815 669.151 886.815 669.151 871.87 614.856 c 0,9,10
 820.5 428.188 820.5 428.188 820.5 402.098 c 128,-1,11
 820.5 376.009 820.5 376.009 837.005 361.755 c 128,-1,12
 853.511 347.5 853.511 347.5 879 347.5 c 0,13,14
 935.054 347.5 935.054 347.5 978.926 421.89 c 0,15,16
 1028.5 505.947 1028.5 505.947 1028.98 603.778 c 128,-1,17
 1029.46 701.609 1029.46 701.609 1001.34 769.286 c 0,18,19
 944.663 905.702 944.663 905.702 797.486 959.566 c 0,20,21
 723.892 986.5 723.892 986.5 637.729 986.5 c 128,-1,22
 551.567 986.5 551.567 986.5 489.13 967.769 c 0,23,24
 318.365 916.538 318.365 916.538 245.608 745.161 c 0,25,26
 205.5 650.687 205.5 650.687 205.5 528 c 0,27,28
 205.5 415.146 205.5 415.146 233.432 348.383 c 0,29,30
 285.721 223.4 285.721 223.4 364.461 168.888 c 0,31,32
 460.356 102.5 460.356 102.5 598 102.5 c 0,33,34
 797.181 102.5 797.181 102.5 949.942 164.226 c 0,35,36
 996.844 183.175 996.844 183.175 1015.17 196.827 c 128,-1,37
 1033.49 210.48 1033.49 210.48 1038.42 212.361 c 0,38,39
 1045.31 214.99 1045.31 214.99 1055.65 220.442 c 0,40,41
 1079.2 232.855 1079.2 232.855 1089.79 210.074 c 0,42,43
 1114.86 156.146 1114.86 156.146 1126.85 133.918 c 0,44,45
 1145.09 100.095 1145.09 100.095 1125.24 88.6234 c 0,46,47
 956.392 -8.95436 956.392 -8.95436 753.961 -51.6558 c 0,48,49
 673.299 -68.5 673.299 -68.5 581.316 -68.5 c 0,50,51
 402.265 -68.5 402.265 -68.5 264.142 25.0393 c 0,52,53
 85.9665 146.801 85.9665 146.801 39.3166 388.686 c 0,54,55
 25.5 460.327 25.5 460.327 25.5 556.621 c 128,-1,56
 25.5 652.915 25.5 652.915 64.023 765.4 c 128,-1,57
 102.546 877.885 102.546 877.885 178.413 965.62 c 0,58,59
 344.335 1157.5 344.335 1157.5 635 1157.5 c 0,60,61
 870.293 1157.5 870.293 1157.5 1025.52 1021.67 c 0,62,63
 1199.5 869.437 1199.5 869.437 1199.5 606 c 0,64,65
 1199.5 422.69 1199.5 422.69 1104.44 297.421 c 0,66,67
 1006.53 168.399 1006.53 168.399 863.346 178.5 c 1,68,69
 745.234 179.079 745.234 179.079 692.076 258.326 c 1,70,71
 607.837 174.5 607.837 174.5 507 174.5 c 0,72,73
 381.379 174.5 381.379 174.5 327.291 307.403 c 0,74,75
 308.5 353.576 308.5 353.576 308.5 425.731 c 128,-1,76
 308.5 497.887 308.5 497.887 335.385 576.995 c 0,77,78
 391.251 741.385 391.251 741.385 514.322 823.08 c 0,79,80
 598.558 878.997 598.558 878.997 676.15 863.224 c 1,81,82
 713.458 856.986 713.458 856.986 749.041 823.601 c 1,0,1
674.5 612 m 1,83,-1
 675.498 625.513 l 1,84,85
 673.359 658.724 673.359 658.724 660.55 675.777 c 1,86,87
 646.005 691.5 646.005 691.5 632.179 691.5 c 0,88,89
 603.914 691.5 603.914 691.5 582.276 665.856 c 0,90,91
 562.119 641.967 562.119 641.967 554.592 628.527 c 128,-1,92
 547.065 615.086 547.065 615.086 539.766 603.397 c 128,-1,93
 532.467 591.708 532.467 591.708 521.453 566.804 c 0,94,95
 486.5 487.774 486.5 487.774 486.5 421 c 0,96,97
 486.5 376.295 486.5 376.295 502.664 352.018 c 0,98,99
 505.179 349.633 505.179 349.633 508.346 349.54 c 128,-1,100
 511.512 349.447 511.512 349.447 516.878 348.716 c 0,101,102
 558.903 342.986 558.903 342.986 605.747 416.412 c 0,103,104
 674.511 524.198 674.511 524.198 674.5 612 c 1,83,-1
EndSplineSet
EndChar

StartChar: A
Encoding: 65 65 36
Width: 1228
Flags: W
LayerCount: 2
Fore
SplineSet
776.85 518 m 1,0,1
 733.093 621.959 733.093 621.959 690.849 723.263 c 0,2,3
 652.715 814.708 652.715 814.708 614.624 908.766 c 1,4,5
 575.459 814.696 575.459 814.696 538.204 723.891 c 0,6,7
 499.416 629.357 499.416 629.357 453.774 518 c 1,8,-1
 776.85 518 l 1,0,1
1236 -24 m 2,9,-1
 767 -24 l 2,10,11
 757 -24 757 -24 750 -17 c 128,-1,12
 743 -10 743 -10 743 0 c 2,13,-1
 743 143 l 2,14,15
 743 153 743 153 750 160 c 128,-1,16
 757 167 757 167 767 167 c 2,17,-1
 927.964 167 l 1,18,19
 910.5 203.997 910.5 203.997 894.63 239.116 c 0,20,21
 874.281 284.144 874.281 284.144 852.544 332 c 1,22,-1
 376.226 332 l 1,23,24
 353.89 284.376 353.89 284.376 333.949 239.292 c 0,25,26
 318.217 203.725 318.217 203.725 301.451 167 c 1,27,-1
 462 167 l 2,28,29
 472 167 472 167 479 160 c 128,-1,30
 486 153 486 153 486 143 c 2,31,-1
 486 0 l 2,32,33
 486 -10 486 -10 479 -17 c 128,-1,34
 472 -24 472 -24 462 -24 c 2,35,-1
 -6 -24 l 2,36,37
 -16 -24 -16 -24 -23 -17 c 128,-1,38
 -30 -10 -30 -10 -30 0 c 2,39,-1
 -30 143 l 2,40,41
 -30 153 -30 153 -23 160 c 128,-1,42
 -16 167 -16 167 -6 167 c 2,43,-1
 95.279 167 l 1,44,45
 182.617 367.426 182.617 367.426 278.002 586.096 c 0,46,47
 364.403 784.185 364.403 784.185 453.213 986 c 1,48,-1
 205 986 l 2,49,50
 195 986 195 986 188 993 c 128,-1,51
 181 1000 181 1000 181 1010 c 2,52,-1
 181 1153 l 2,53,54
 181 1163 181 1163 188 1170 c 128,-1,55
 195 1177 195 1177 205 1177 c 2,56,-1
 689 1177 l 2,57,58
 704.866 1177 704.866 1177 711.082 1162.4 c 0,59,60
 819.491 907.781 819.491 907.781 927.541 656.997 c 0,61,62
 1032.21 414.07 1032.21 414.07 1139.73 167 c 1,63,-1
 1236 167 l 2,64,65
 1246 167 1246 167 1253 160 c 128,-1,66
 1260 153 1260 153 1260 143 c 2,67,-1
 1260 0 l 2,68,69
 1260 -10 1260 -10 1253 -17 c 128,-1,70
 1246 -24 1246 -24 1236 -24 c 2,9,-1
EndSplineSet
EndChar

StartChar: B
Encoding: 66 66 37
Width: 1228
Flags: W
LayerCount: 2
Fore
SplineSet
637 695 m 2,0,1
 729.668 695 729.668 695 788.628 716.993 c 0,2,3
 839.758 736.023 839.758 736.023 865.791 770.841 c 0,4,5
 867.57 773.953 867.57 773.953 869.93 777.228 c 0,6,7
 882.24 798.616 882.24 798.616 886.732 812.089 c 0,8,9
 891 824.894 891 824.894 891 846 c 0,10,11
 891 881.526 891 881.526 878.256 903.431 c 0,12,13
 865.214 925.847 865.214 925.847 841.684 940.708 c 0,14,15
 816.323 956.727 816.323 956.727 779.906 966.286 c 0,16,17
 741.859 976.274 741.859 976.274 695.961 984.007 c 1,18,19
 684.447 984.128 684.447 984.128 676.328 985.211 c 0,20,21
 670.406 986 670.406 986 663 986 c 2,22,-1
 411 986 l 1,23,-1
 411 695 l 1,24,-1
 637 695 l 2,0,1
695.572 167 m 1,25,26
 723.345 168.006 723.345 168.006 754.503 169.953 c 0,27,28
 785.032 171.861 785.032 171.861 815.577 177.589 c 0,29,30
 845.269 183.157 845.269 183.157 873.087 194.283 c 0,31,32
 899.299 204.768 899.299 204.768 919.723 222.586 c 0,33,34
 939.397 239.749 939.397 239.749 951.252 265.149 c 0,35,36
 962.96 290.238 962.96 290.238 964.001 327.287 c 1,37,38
 963.78 371.973 963.78 371.973 944.117 401.058 c 0,39,40
 923.567 431.456 923.567 431.456 881.99 454.662 c 1,41,42
 781.172 502.77 781.172 502.77 620.987 503 c 2,43,-1
 411 503 l 1,44,-1
 411 167 l 1,45,-1
 695.572 167 l 1,25,26
213 167 m 1,46,-1
 213 986 l 1,47,-1
 65 986 l 2,48,49
 55 986 55 986 48 993 c 128,-1,50
 41 1000 41 1000 41 1010 c 2,51,-1
 41 1153 l 2,52,53
 41 1163 41 1163 48 1170 c 128,-1,54
 55 1177 55 1177 65 1177 c 2,55,-1
 651 1177 l 2,56,57
 764.763 1177 764.763 1177 847.372 1150.34 c 0,58,59
 930.768 1123.43 930.768 1123.43 984.846 1078.45 c 0,60,61
 1039.81 1032.74 1039.81 1032.74 1066.09 970.883 c 0,62,63
 1092 909.889 1092 909.889 1092 844 c 0,64,65
 1092 800.533 1092 800.533 1080.51 761.693 c 0,66,67
 1069.11 723.133 1069.11 723.133 1048.93 690.403 c 128,-1,68
 1028.83 657.803 1028.83 657.803 1001.13 631.193 c 0,69,70
 990.312 620.802 990.312 620.802 978.462 611.429 c 1,71,72
 1005.18 597.992 1005.18 597.992 1028.66 581.733 c 0,73,74
 1070.55 552.733 1070.55 552.733 1100.74 514.993 c 0,75,76
 1131.36 476.717 1131.36 476.717 1147.72 428.744 c 0,77,78
 1164 380.972 1164 380.972 1164 325 c 0,79,80
 1164 257.325 1164 257.325 1140.74 199.978 c 128,-1,81
 1117.44 142.541 1117.44 142.541 1074.08 98.6352 c 0,82,83
 1031.18 55.2075 1031.18 55.2075 972.995 26.9163 c 0,84,85
 915.397 -1.08925 915.397 -1.08925 846.873 -12.6857 c 0,86,87
 807.453 -18.9098 807.453 -18.9098 754.153 -21.4723 c 0,88,89
 701.577 -24 701.577 -24 633 -24 c 2,90,-1
 65 -24 l 2,91,92
 55 -24 55 -24 48 -17 c 128,-1,93
 41 -10 41 -10 41 0 c 2,94,-1
 41 143 l 2,95,96
 41 153 41 153 48 160 c 128,-1,97
 55 167 55 167 65 167 c 2,98,-1
 213 167 l 1,46,-1
EndSplineSet
EndChar

StartChar: C
Encoding: 67 67 38
Width: 1228
Flags: W
LayerCount: 2
Fore
SplineSet
1134.43 1170.79 m 0,0,1
 1133 1164.36 1133 1164.36 1133 1158 c 2,2,-1
 1133 1140.64 l 1,3,4
 1130.03 1042.5 1130.03 1042.5 1137.43 946.85 c 0,5,6
 1144.95 849.617 1144.95 849.617 1155.88 741.41 c 0,7,8
 1156.81 732.211 1156.81 732.211 1151.08 724.678 c 128,-1,9
 1145.35 717.146 1145.35 717.146 1136.58 715.441 c 0,10,11
 1100.39 708.404 1100.39 708.404 1066.17 702.365 c 0,12,13
 1031.71 696.285 1031.71 696.285 995.302 691.228 c 0,14,15
 986.106 689.951 986.106 689.951 978.325 695.401 c 128,-1,16
 970.544 700.851 970.544 700.851 968.563 709.83 c 0,17,18
 953.72 777.125 953.72 777.125 939.398 827.996 c 0,19,20
 925.986 875.636 925.986 875.636 902.076 913.604 c 1,21,22
 830.111 1014 830.111 1014 676 1014 c 0,23,24
 587.102 1014 587.102 1014 514.26 981.574 c 0,25,26
 442.474 949.619 442.474 949.619 395.647 896.862 c 1,27,-1
 393.2 893.6 l 2,28,29
 392.658 892.877 392.658 892.877 392.062 892.196 c 0,30,31
 339.153 831.73 339.153 831.73 312.683 755.159 c 0,32,33
 286 677.971 286 677.971 286 591 c 0,34,35
 286 542.856 286 542.856 294.213 490.198 c 0,36,37
 302.332 438.149 302.332 438.149 321.454 387.473 c 0,38,39
 340.486 337.039 340.486 337.039 370.969 291.313 c 0,40,41
 400.756 246.631 400.756 246.631 444.594 213.053 c 128,-1,42
 488.498 179.425 488.498 179.425 547.307 159.195 c 128,-1,43
 606.014 139 606.014 139 684 139 c 0,44,45
 747.972 139 747.972 139 803.539 153.248 c 0,46,47
 859.603 167.623 859.603 167.623 913.843 194.504 c 0,48,49
 968.559 221.621 968.559 221.621 1022.94 260.947 c 0,50,51
 1078.19 300.906 1078.19 300.906 1138.43 352.265 c 0,52,53
 1146 358.484 1146 358.484 1155.68 357.768 c 128,-1,54
 1165.36 357.052 1165.36 357.052 1171.61 350.306 c 2,55,-1
 1221.61 296.306 l 2,56,57
 1246.46 269.469 1246.46 269.469 1271.3 243.635 c 0,58,59
 1278.37 235.564 1278.37 235.564 1277.63 225.482 c 128,-1,60
 1276.9 215.401 1276.9 215.401 1270.17 209.265 c 0,61,62
 1235.84 177.969 1235.84 177.969 1201.58 148.74 c 0,63,64
 1166.95 119.211 1166.95 119.211 1131.31 92.7341 c 0,65,66
 1095.17 65.8839 1095.17 65.8839 1056.44 43.6793 c 128,-1,67
 1017.69 21.4668 1017.69 21.4668 976.245 3.85144 c 0,68,69
 913.578 -21.8318 913.578 -21.8318 861.483 -35.2422 c 0,70,71
 809.635 -48.5891 809.635 -48.5891 771.757 -53.7779 c 0,72,73
 733.637 -59 733.637 -59 710 -59 c 2,74,-1
 684 -59 l 2,75,76
 551.039 -59 551.039 -59 439.984 -11.0326 c 128,-1,77
 328.844 36.9712 328.844 36.9712 248.405 123.677 c 0,78,79
 168.161 210.174 168.161 210.174 124 329.148 c 0,80,81
 80 447.688 80 447.688 80 589 c 0,82,83
 80 670.839 80 670.839 98.6627 748.601 c 128,-1,84
 117.362 826.515 117.362 826.515 153.762 895.678 c 128,-1,85
 190.134 964.787 190.134 964.787 242.098 1022.98 c 0,86,87
 294.376 1081.53 294.376 1081.53 361.28 1123.35 c 128,-1,88
 428.071 1165.1 428.071 1165.1 508.269 1188.54 c 128,-1,89
 588.555 1212 588.555 1212 680 1212 c 0,90,91
 773.197 1212 773.197 1212 847.663 1185.07 c 0,92,93
 906.02 1163.96 906.02 1163.96 956.334 1125.15 c 1,94,95
 956.714 1130.35 956.714 1130.35 957.094 1134.62 c 0,96,97
 959.054 1156.67 959.054 1156.67 960.024 1177.14 c 0,98,99
 960.484 1186.73 960.484 1186.73 967.718 1193.36 c 128,-1,100
 974.953 1200 974.953 1200 984 1200 c 2,101,-1
 1111 1200 l 2,102,103
 1122.46 1200 1122.46 1200 1129.64 1190.78 c 128,-1,104
 1136.82 1181.57 1136.82 1181.57 1134.43 1170.79 c 0,0,1
EndSplineSet
EndChar

StartChar: D
Encoding: 68 68 39
Width: 1228
Flags: W
LayerCount: 2
Fore
SplineSet
604 167 m 2,0,1
 653.54 167 653.54 167 706.63 178.001 c 0,2,3
 758.197 188.686 758.197 188.686 805.242 216.634 c 0,4,5
 851.778 244.279 851.778 244.279 890.47 294.625 c 128,-1,6
 929.219 345.043 929.219 345.043 952.946 426.673 c 0,7,8
 963.433 462.897 963.433 462.897 968.698 503.58 c 0,9,10
 974 544.541 974 544.541 974 591 c 0,11,12
 974 653.211 974 653.211 959.643 713.983 c 128,-1,13
 945.322 774.599 945.322 774.599 918.694 825.952 c 0,14,15
 892.437 876.59 892.437 876.59 855.136 913.423 c 0,16,17
 819.389 948.723 819.389 948.723 774.715 964.127 c 1,18,19
 739.552 974.489 739.552 974.489 693.083 980.178 c 0,20,21
 645.527 986 645.527 986 584 986 c 2,22,-1
 379 986 l 1,23,-1
 379 167 l 1,24,-1
 604 167 l 2,0,1
19 0 m 2,25,-1
 19 143 l 2,26,27
 19 153 19 153 26 160 c 128,-1,28
 33 167 33 167 43 167 c 2,29,-1
 181 167 l 1,30,-1
 181 986 l 1,31,-1
 43 986 l 2,32,33
 33 986 33 986 26 993 c 128,-1,34
 19 1000 19 1000 19 1010 c 2,35,-1
 19 1153 l 2,36,37
 19 1163 19 1163 26 1170 c 128,-1,38
 33 1177 33 1177 43 1177 c 2,39,-1
 582 1177 l 2,40,41
 661.074 1177 661.074 1177 724.121 1171.41 c 0,42,43
 789.004 1165.65 789.004 1165.65 843.222 1147.22 c 0,44,45
 897.875 1128.65 897.875 1128.65 945.615 1095.76 c 0,46,47
 992.944 1063.16 992.944 1063.16 1040.13 1010.73 c 1,48,49
 1179 844.714 1179 844.714 1179 596 c 0,50,51
 1179 454.065 1179 454.065 1142.75 346.345 c 0,52,53
 1106.41 238.373 1106.41 238.373 1046.82 163.103 c 0,54,55
 986.855 87.3647 986.855 87.3647 910.204 44.5475 c 0,56,57
 834.149 2.06273 834.149 2.06273 752.911 -8.69285 c 1,58,59
 717.238 -15.7879 717.238 -15.7879 689.65 -18.8532 c 0,60,61
 661.826 -21.9448 661.826 -21.9448 636.999 -22.9792 c 0,62,63
 612.499 -24 612.499 -24 589.001 -24 c 2,64,-1
 43 -24 l 2,65,66
 33 -24 33 -24 26 -17 c 128,-1,67
 19 -10 19 -10 19 0 c 2,25,-1
EndSplineSet
EndChar

StartChar: E
Encoding: 69 69 40
Width: 1228
Flags: W
LayerCount: 2
Fore
SplineSet
1134 -24 m 2,0,-1
 90 -24 l 2,1,2
 80 -24 80 -24 73 -17 c 128,-1,3
 66 -10 66 -10 66 0 c 2,4,-1
 66 143 l 2,5,6
 66 153 66 153 73 160 c 128,-1,7
 80 167 80 167 90 167 c 2,8,-1
 241 167 l 1,9,-1
 241 986 l 1,10,-1
 90 986 l 2,11,12
 80 986 80 986 73 993 c 128,-1,13
 66 1000 66 1000 66 1010 c 2,14,-1
 66 1153 l 2,15,16
 66 1163 66 1163 73 1170 c 128,-1,17
 80 1177 80 1177 90 1177 c 2,18,-1
 1116 1177 l 2,19,20
 1125.66 1177 1125.66 1177 1132.73 1170.08 c 128,-1,21
 1139.79 1163.15 1139.79 1163.15 1139.99 1153.51 c 2,22,-1
 1148.99 727.507 l 2,23,24
 1149.21 717.248 1149.21 717.248 1141.6 710.124 c 128,-1,25
 1133.98 703 1133.98 703 1125 703 c 2,26,-1
 985 703 l 2,27,28
 975.475 703 975.475 703 968.583 709.891 c 128,-1,29
 961.692 716.782 961.692 716.782 961.066 725.224 c 2,30,-1
 941.715 986 l 1,31,-1
 439 986 l 1,32,-1
 439 705 l 1,33,-1
 678 705 l 1,34,-1
 678 832 l 2,35,36
 678 842 678 842 685 849 c 128,-1,37
 692 856 692 856 702 856 c 2,38,-1
 844 856 l 2,39,40
 854 856 854 856 861 849 c 128,-1,41
 868 842 868 842 868 832 c 2,42,-1
 868 390 l 2,43,44
 868 380 868 380 861 373 c 128,-1,45
 854 366 854 366 844 366 c 2,46,-1
 702 366 l 2,47,48
 692 366 692 366 685 373 c 128,-1,49
 678 380 678 380 678 390 c 2,50,-1
 678 513 l 1,51,-1
 439 513 l 1,52,-1
 439 167 l 1,53,-1
 960.915 167 l 1,54,-1
 971.018 426.932 l 2,55,56
 971.392 436.546 971.392 436.546 978.574 443.273 c 128,-1,57
 985.757 450 985.757 450 995 450 c 2,58,-1
 1134 450 l 2,59,60
 1144 450 1144 450 1151 443 c 128,-1,61
 1158 436 1158 436 1158 426 c 2,62,-1
 1158 0 l 2,63,64
 1158 -10 1158 -10 1151 -17 c 128,-1,65
 1144 -24 1144 -24 1134 -24 c 2,0,-1
EndSplineSet
EndChar

StartChar: F
Encoding: 70 70 41
Width: 1228
Flags: W
LayerCount: 2
Fore
SplineSet
705 -24 m 2,0,-1
 120 -24 l 2,1,2
 110 -24 110 -24 103 -17 c 128,-1,3
 96 -10 96 -10 96 0 c 2,4,-1
 96 143 l 2,5,6
 96 153 96 153 103 160 c 128,-1,7
 110 167 110 167 120 167 c 2,8,-1
 263 167 l 1,9,-1
 263 986 l 1,10,-1
 120 986 l 2,11,12
 110 986 110 986 103 993 c 128,-1,13
 96 1000 96 1000 96 1010 c 2,14,-1
 96 1153 l 2,15,16
 96 1163 96 1163 103 1170 c 128,-1,17
 110 1177 110 1177 120 1177 c 2,18,-1
 1134 1177 l 2,19,20
 1143.65 1177 1143.65 1177 1150.7 1170.08 c 128,-1,21
 1157.74 1163.16 1157.74 1163.16 1157.99 1153.63 c 2,22,-1
 1168.99 735.631 l 2,23,24
 1169.26 725.365 1169.26 725.365 1161.68 718.182 c 128,-1,25
 1154.1 711 1154.1 711 1145 711 c 2,26,-1
 1007 711 l 2,27,28
 997.752 711 997.752 711 990.83 717.458 c 128,-1,29
 983.908 723.917 983.908 723.917 983.099 732.827 c 2,30,-1
 960.083 986 l 1,31,-1
 461 986 l 1,32,-1
 461 705 l 1,33,-1
 702 705 l 1,34,-1
 702 832 l 2,35,36
 702 842 702 842 709 849 c 128,-1,37
 716 856 716 856 726 856 c 2,38,-1
 866 856 l 2,39,40
 876 856 876 856 883 849 c 128,-1,41
 890 842 890 842 890 832 c 2,42,-1
 890 390 l 2,43,44
 890 380 890 380 883 373 c 128,-1,45
 876 366 876 366 866 366 c 2,46,-1
 726 366 l 2,47,48
 716 366 716 366 709 373 c 128,-1,49
 702 380 702 380 702 390 c 2,50,-1
 702 513 l 1,51,-1
 461 513 l 1,52,-1
 461 167 l 1,53,-1
 705 167 l 2,54,55
 715 167 715 167 722 160 c 128,-1,56
 729 153 729 153 729 143 c 2,57,-1
 729 0 l 2,58,59
 729 -10 729 -10 722 -17 c 128,-1,60
 715 -24 715 -24 705 -24 c 2,0,-1
EndSplineSet
EndChar

StartChar: G
Encoding: 71 71 42
Width: 1228
Flags: W
LayerCount: 2
Fore
SplineSet
1121.31 44.8774 m 0,0,1
 993.279 -8.97617 993.279 -8.97617 879.129 -33.9456 c 0,2,3
 764.59 -59 764.59 -59 666 -59 c 0,4,5
 601.947 -59 601.947 -59 541.922 -48.651 c 128,-1,6
 481.822 -38.289 481.822 -38.289 428.816 -19.0615 c 128,-1,7
 375.755 0.186173 375.755 0.186173 330.363 26.7952 c 0,8,9
 284.706 53.5594 284.706 53.5594 249.996 85.1138 c 0,10,11
 180.368 146.428 180.368 146.428 133.193 232.029 c 1,12,13
 84.3223 313.437 84.3223 313.437 65.5784 397.263 c 0,14,15
 47 480.348 47 480.348 47 571 c 0,16,17
 47 643.439 47 643.439 62.4912 718.831 c 0,18,19
 78.0293 794.451 78.0293 794.451 110.135 865.395 c 128,-1,20
 142.302 936.475 142.302 936.475 191.047 999.224 c 0,21,22
 240.19 1062.48 240.19 1062.48 306.521 1110.01 c 0,23,24
 373.055 1157.68 373.055 1157.68 456.582 1184.82 c 128,-1,25
 540.198 1212 540.198 1212 642 1212 c 2,26,-1
 644.155 1212 l 1,27,28
 726.058 1210.95 726.058 1210.95 797.089 1187.27 c 0,29,30
 864.733 1164.72 864.733 1164.72 924.406 1118.9 c 1,31,32
 926 1137.19 926 1137.19 926 1160 c 0,33,34
 926 1164.49 926 1164.49 926.685 1169.98 c 0,35,36
 927.294 1174.84 927.294 1174.84 928.466 1180.71 c 0,37,38
 930.161 1189.18 930.161 1189.18 937.255 1194.59 c 128,-1,39
 944.348 1200 944.348 1200 952 1200 c 2,40,-1
 1099 1200 l 2,41,42
 1110.44 1200 1110.44 1200 1117.46 1190.81 c 128,-1,43
 1124.47 1181.63 1124.47 1181.63 1122.59 1171.58 c 0,44,45
 1113.89 1125.18 1113.89 1125.18 1110.97 1069.74 c 0,46,47
 1108 1013.43 1108 1013.43 1108 948 c 0,48,49
 1108 890.667 1108 890.667 1110.96 835.796 c 0,50,51
 1113.85 782.317 1113.85 782.317 1122.41 744.268 c 0,52,53
 1124.67 734.253 1124.67 734.253 1118.62 725.746 c 128,-1,54
 1112.58 717.24 1112.58 717.24 1103.71 715.466 c 0,55,56
 1068.35 708.395 1068.35 708.395 1034.95 702.827 c 0,57,58
 1002.06 697.345 1002.06 697.345 968.171 691.365 c 0,59,60
 958.709 689.696 958.709 689.696 950.63 695.29 c 128,-1,61
 942.551 700.884 942.551 700.884 940.572 709.794 c 0,62,63
 936.435 728.408 936.435 728.408 931.327 759.054 c 0,64,65
 926.608 787.359 926.608 787.359 915.638 821.697 c 0,66,67
 904.839 855.5 904.839 855.5 885.953 889.967 c 0,68,69
 867.966 922.793 867.966 922.793 836.604 950.519 c 0,70,71
 805.504 978.014 805.504 978.014 757.763 995.458 c 0,72,73
 709.593 1013.06 709.593 1013.06 638.84 1014 c 0,74,75
 555.499 1014 555.499 1014 485.942 980.391 c 0,76,77
 415.818 946.507 415.818 946.507 364.526 888.155 c 0,78,79
 313.001 829.537 313.001 829.537 283.547 748.777 c 0,80,81
 254 667.759 254 667.759 254 573 c 0,82,83
 254 480.58 254 480.58 278.453 400.51 c 0,84,85
 302.46 321.905 302.46 321.905 353.098 263.763 c 0,86,87
 403.506 205.885 403.506 205.885 480.986 172.546 c 0,88,89
 558.945 139 558.945 139 668 139 c 0,90,91
 723.866 139 723.866 139 794.264 151.623 c 0,92,93
 858.067 163.064 858.067 163.064 936 185.884 c 1,94,-1
 936 362 l 1,95,-1
 656 362 l 2,96,97
 646 362 646 362 639 369 c 128,-1,98
 632 376 632 376 632 386 c 2,99,-1
 632 528 l 2,100,101
 632 538 632 538 639 545 c 128,-1,102
 646 552 646 552 656 552 c 2,103,-1
 1211 552 l 2,104,105
 1221 552 1221 552 1228 545 c 128,-1,106
 1235 538 1235 538 1235 528 c 2,107,-1
 1235 386 l 2,108,109
 1235 376 1235 376 1228 369 c 128,-1,110
 1221 362 1221 362 1211 362 c 2,111,-1
 1136 362 l 1,112,-1
 1136 67 l 2,113,114
 1136 51.0586 1136 51.0586 1121.31 44.8774 c 0,0,1
EndSplineSet
EndChar

StartChar: H
Encoding: 72 72 43
Width: 1228
Flags: W
LayerCount: 2
Fore
SplineSet
1178 -24 m 2,0,-1
 716 -24 l 2,1,2
 706 -24 706 -24 699 -17 c 128,-1,3
 692 -10 692 -10 692 0 c 2,4,-1
 692 143 l 2,5,6
 692 153 692 153 699 160 c 128,-1,7
 706 167 706 167 716 167 c 2,8,-1
 847 167 l 1,9,-1
 847 499 l 1,10,-1
 381 499 l 1,11,-1
 381 167 l 1,12,-1
 512 167 l 2,13,14
 522 167 522 167 529 160 c 128,-1,15
 536 153 536 153 536 143 c 2,16,-1
 536 0 l 2,17,18
 536 -10 536 -10 529 -17 c 128,-1,19
 522 -24 522 -24 512 -24 c 2,20,-1
 53 -24 l 2,21,22
 43 -24 43 -24 36 -17 c 128,-1,23
 29 -10 29 -10 29 0 c 2,24,-1
 29 143 l 2,25,26
 29 153 29 153 36 160 c 128,-1,27
 43 167 43 167 53 167 c 2,28,-1
 183 167 l 1,29,-1
 183 986 l 1,30,-1
 53 986 l 2,31,32
 43 986 43 986 36 993 c 128,-1,33
 29 1000 29 1000 29 1010 c 2,34,-1
 29 1153 l 2,35,36
 29 1163 29 1163 36 1170 c 128,-1,37
 43 1177 43 1177 53 1177 c 2,38,-1
 512 1177 l 2,39,40
 522 1177 522 1177 529 1170 c 128,-1,41
 536 1163 536 1163 536 1153 c 2,42,-1
 536 1010 l 2,43,44
 536 1000 536 1000 529 993 c 128,-1,45
 522 986 522 986 512 986 c 2,46,-1
 381 986 l 1,47,-1
 381 691 l 1,48,-1
 847 691 l 1,49,-1
 847 986 l 1,50,-1
 716 986 l 2,51,52
 706 986 706 986 699 993 c 128,-1,53
 692 1000 692 1000 692 1010 c 2,54,-1
 692 1153 l 2,55,56
 692 1163 692 1163 699 1170 c 128,-1,57
 706 1177 706 1177 716 1177 c 2,58,-1
 1178 1177 l 2,59,60
 1188 1177 1188 1177 1195 1170 c 128,-1,61
 1202 1163 1202 1163 1202 1153 c 2,62,-1
 1202 1010 l 2,63,64
 1202 1000 1202 1000 1195 993 c 128,-1,65
 1188 986 1188 986 1178 986 c 2,66,-1
 1045 986 l 1,67,-1
 1045 167 l 1,68,-1
 1178 167 l 2,69,70
 1188 167 1188 167 1195 160 c 128,-1,71
 1202 153 1202 153 1202 143 c 2,72,-1
 1202 0 l 2,73,74
 1202 -10 1202 -10 1195 -17 c 128,-1,75
 1188 -24 1188 -24 1178 -24 c 2,0,-1
EndSplineSet
EndChar

StartChar: I
Encoding: 73 73 44
Width: 1228
Flags: W
LayerCount: 2
Fore
SplineSet
1050 -24 m 2,0,-1
 178 -24 l 2,1,2
 168 -24 168 -24 161 -17 c 128,-1,3
 154 -10 154 -10 154 0 c 2,4,-1
 154 143 l 2,5,6
 154 153 154 153 161 160 c 128,-1,7
 168 167 168 167 178 167 c 2,8,-1
 515 167 l 1,9,-1
 515 986 l 1,10,-1
 178 986 l 2,11,12
 168 986 168 986 161 993 c 128,-1,13
 154 1000 154 1000 154 1010 c 2,14,-1
 154 1153 l 2,15,16
 154 1163 154 1163 161 1170 c 128,-1,17
 168 1177 168 1177 178 1177 c 2,18,-1
 1050 1177 l 2,19,20
 1060 1177 1060 1177 1067 1170 c 128,-1,21
 1074 1163 1074 1163 1074 1153 c 2,22,-1
 1074 1010 l 2,23,24
 1074 1000 1074 1000 1067 993 c 128,-1,25
 1060 986 1060 986 1050 986 c 2,26,-1
 713 986 l 1,27,-1
 713 167 l 1,28,-1
 1050 167 l 2,29,30
 1060 167 1060 167 1067 160 c 128,-1,31
 1074 153 1074 153 1074 143 c 2,32,-1
 1074 0 l 2,33,34
 1074 -10 1074 -10 1067 -17 c 128,-1,35
 1060 -24 1060 -24 1050 -24 c 2,0,-1
EndSplineSet
EndChar

StartChar: J
Encoding: 74 74 45
Width: 1228
Flags: W
LayerCount: 2
Fore
SplineSet
975 421 m 2,0,1
 975 334.554 975 334.554 966.831 266.155 c 0,2,3
 958.408 195.635 958.408 195.635 934.493 140.892 c 0,4,5
 910.048 84.938 910.048 84.938 867.518 44.5889 c 0,6,7
 825.31 4.54529 825.31 4.54529 761.276 -22.1351 c 0,8,9
 673.851 -59 673.851 -59 592 -59 c 0,10,11
 536.924 -59 536.924 -59 480.379 -49.1435 c 0,12,13
 424.695 -39.4371 424.695 -39.4371 377.038 -26.1137 c 128,-1,14
 329.522 -12.8298 329.522 -12.8298 294.037 0.541505 c 0,15,16
 259.034 13.7311 259.034 13.7311 244.429 19.9907 c 0,17,18
 210.389 35.0085 210.389 35.0085 173.474 50.9714 c 128,-1,19
 136.4 67.0036 136.4 67.0036 102.313 82.042 c 0,20,21
 88.7507 88.0252 88.7507 88.0252 88.0285 102.831 c 0,22,23
 82.02 226.009 82.02 226.009 78.0134 345.697 c 0,24,25
 74.0163 465.109 74.0163 465.109 69.0198 588.025 c 0,26,27
 68.6017 598.31 68.6017 598.31 76.0801 605.655 c 128,-1,28
 83.5585 613 83.5585 613 93 613 c 2,29,-1
 240 613 l 2,30,31
 249.916 613 249.916 613 256.867 605.655 c 128,-1,32
 263.819 598.31 263.819 598.31 263.995 589.48 c 0,33,34
 264.993 539.578 264.993 539.578 266.491 485.16 c 0,35,36
 267.981 431.062 267.981 431.062 270.955 382.467 c 0,37,38
 273.896 334.419 273.896 334.419 279.265 296.351 c 0,39,40
 284.186 261.459 284.186 261.459 293.365 243.936 c 0,41,42
 304.716 221.233 304.716 221.233 332.161 202.233 c 0,43,44
 362.162 181.463 362.162 181.463 401.309 167.016 c 0,45,46
 441.141 152.316 441.141 152.316 484.862 145.187 c 0,47,48
 528.944 138 528.944 138 568 138 c 0,49,50
 619.812 138 619.812 138 659.231 148.667 c 0,51,52
 695.448 158.467 695.448 158.467 719.885 183.325 c 0,53,54
 744.833 208.702 744.833 208.702 759.1 254.184 c 0,55,56
 774.022 301.751 774.022 301.751 777 377.451 c 1,57,-1
 777 986 l 1,58,-1
 396 986 l 2,59,60
 386 986 386 986 379 993 c 128,-1,61
 372 1000 372 1000 372 1010 c 2,62,-1
 372 1153 l 2,63,64
 372 1163 372 1163 379 1170 c 128,-1,65
 386 1177 386 1177 396 1177 c 2,66,-1
 1213 1177 l 2,67,68
 1223 1177 1223 1177 1230 1170 c 128,-1,69
 1237 1163 1237 1163 1237 1153 c 2,70,-1
 1237 1010 l 2,71,72
 1237 1000 1237 1000 1230 993 c 128,-1,73
 1223 986 1223 986 1213 986 c 2,74,-1
 975 986 l 1,75,-1
 975 421 l 2,0,1
EndSplineSet
EndChar

StartChar: K
Encoding: 75 75 46
Width: 1228
Flags: W
LayerCount: 2
Fore
SplineSet
1231 -24 m 2,0,-1
 927 -24 l 2,1,2
 912.167 -24 912.167 -24 905.534 -10.7331 c 0,3,4
 894.332 11.6704 894.332 11.6704 878.662 46.0445 c 0,5,6
 863.257 79.837 863.257 79.837 843.826 120.692 c 0,7,8
 824.514 161.298 824.514 161.298 801.224 205.89 c 128,-1,9
 777.948 250.467 777.948 250.467 753.192 293.541 c 0,10,11
 728.635 336.268 728.635 336.268 702.186 374.957 c 0,12,13
 676.375 412.716 676.375 412.716 650.44 441.634 c 1,14,15
 623.934 468.959 623.934 468.959 594.196 489.867 c 0,16,17
 570.16 506.767 570.16 506.767 545.253 523.588 c 1,18,19
 520.518 500.933 520.518 500.933 497.037 478.607 c 0,20,21
 470.618 453.487 470.618 453.487 443 426.82 c 1,22,-1
 443 167 l 1,23,-1
 594 167 l 2,24,25
 604 167 604 167 611 160 c 128,-1,26
 618 153 618 153 618 143 c 2,27,-1
 618 0 l 2,28,29
 618 -10 618 -10 611 -17 c 128,-1,30
 604 -24 604 -24 594 -24 c 2,31,-1
 96 -24 l 2,32,33
 86 -24 86 -24 79 -17 c 128,-1,34
 72 -10 72 -10 72 0 c 2,35,-1
 72 143 l 2,36,37
 72 153 72 153 79 160 c 128,-1,38
 86 167 86 167 96 167 c 2,39,-1
 245 167 l 1,40,-1
 245 986 l 1,41,-1
 96 986 l 2,42,43
 86 986 86 986 79 993 c 128,-1,44
 72 1000 72 1000 72 1010 c 2,45,-1
 72 1153 l 2,46,47
 72 1163 72 1163 79 1170 c 128,-1,48
 86 1177 86 1177 96 1177 c 2,49,-1
 594 1177 l 2,50,51
 604 1177 604 1177 611 1170 c 128,-1,52
 618 1163 618 1163 618 1153 c 2,53,-1
 618 1010 l 2,54,55
 618 1000 618 1000 611 993 c 128,-1,56
 604 986 604 986 594 986 c 2,57,-1
 443 986 l 1,58,-1
 443 639.169 l 1,59,60
 532.945 727.333 532.945 727.333 621.27 813.208 c 0,61,62
 709.053 898.555 709.053 898.555 798.267 986 c 1,63,-1
 722 986 l 2,64,65
 712 986 712 986 705 993 c 128,-1,66
 698 1000 698 1000 698 1010 c 2,67,-1
 698 1153 l 2,68,69
 698 1163 698 1163 705 1170 c 128,-1,70
 712 1177 712 1177 722 1177 c 2,71,-1
 1172 1177 l 2,72,73
 1182 1177 1182 1177 1189 1170 c 128,-1,74
 1196 1163 1196 1163 1196 1153 c 2,75,-1
 1196 1010 l 2,76,77
 1196 1000 1196 1000 1189 993 c 128,-1,78
 1182 986 1182 986 1172 986 c 2,79,-1
 1074.26 986 l 1,80,81
 970.604 891.953 970.604 891.953 871.814 800.398 c 0,82,83
 780.418 715.695 780.418 715.695 686.029 630.708 c 1,84,85
 702.558 620.237 702.558 620.237 718.541 609.315 c 0,86,87
 749.884 587.897 749.884 587.897 782.087 558.81 c 0,88,89
 814.058 529.934 814.058 529.934 846.938 492.945 c 128,-1,90
 879.966 455.788 879.966 455.788 913.842 406.001 c 0,91,92
 947.375 356.719 947.375 356.719 982.859 294.371 c 0,93,94
 1015.2 237.55 1015.2 237.55 1048.3 167 c 1,95,-1
 1231 167 l 2,96,97
 1241 167 1241 167 1248 160 c 128,-1,98
 1255 153 1255 153 1255 143 c 2,99,-1
 1255 0 l 2,100,101
 1255 -10 1255 -10 1248 -17 c 128,-1,102
 1241 -24 1241 -24 1231 -24 c 2,0,-1
EndSplineSet
EndChar

StartChar: L
Encoding: 76 76 47
Width: 1228
Flags: W
LayerCount: 2
Fore
SplineSet
1135 -24 m 2,0,-1
 94 -24 l 2,1,2
 84 -24 84 -24 77 -17 c 128,-1,3
 70 -10 70 -10 70 0 c 2,4,-1
 70 143 l 2,5,6
 70 153 70 153 77 160 c 128,-1,7
 84 167 84 167 94 167 c 2,8,-1
 277 167 l 1,9,-1
 277 986 l 1,10,-1
 94 986 l 2,11,12
 84 986 84 986 77 993 c 128,-1,13
 70 1000 70 1000 70 1010 c 2,14,-1
 70 1153 l 2,15,16
 70 1163 70 1163 77 1170 c 128,-1,17
 84 1177 84 1177 94 1177 c 2,18,-1
 703 1177 l 2,19,20
 713 1177 713 1177 720 1170 c 128,-1,21
 727 1163 727 1163 727 1153 c 2,22,-1
 727 1010 l 2,23,24
 727 1000 727 1000 720 993 c 128,-1,25
 713 986 713 986 703 986 c 2,26,-1
 473 986 l 1,27,-1
 473 167 l 1,28,-1
 966.557 167 l 1,29,-1
 993.054 561.608 l 2,30,31
 993.694 571.133 993.694 571.133 1001.04 577.566 c 128,-1,32
 1008.38 584 1008.38 584 1017 584 c 2,33,-1
 1161 584 l 2,34,35
 1171.3 584 1171.3 584 1178.36 576.228 c 128,-1,36
 1185.42 568.455 1185.42 568.455 1184.97 558.887 c 2,37,-1
 1158.97 -1.11309 l 2,38,39
 1158.53 -10.705 1158.53 -10.705 1151.3 -17.3525 c 128,-1,40
 1144.07 -24 1144.07 -24 1135 -24 c 2,0,-1
EndSplineSet
EndChar

StartChar: M
Encoding: 77 77 48
Width: 1228
Flags: W
LayerCount: 2
Fore
SplineSet
1256 -24 m 2,0,-1
 771 -24 l 2,1,2
 761 -24 761 -24 754 -17 c 128,-1,3
 747 -10 747 -10 747 0 c 2,4,-1
 747 143 l 2,5,6
 747 153 747 153 754 160 c 128,-1,7
 761 167 761 167 771 167 c 2,8,-1
 966.128 167 l 1,9,10
 958.691 376.222 958.691 376.222 952.51 585.793 c 0,11,12
 947.437 757.827 947.437 757.827 941.998 933.481 c 1,13,-1
 935.065 919.475 l 1,14,15
 875.853 759.943 875.853 759.943 816.419 604.432 c 0,16,17
 756.292 447.111 756.292 447.111 696.454 288.528 c 0,18,19
 690.596 273 690.596 273 674 273 c 2,20,-1
 535 273 l 2,21,22
 518.08 273 518.08 273 512.395 288.936 c 0,23,24
 451.39 459.944 451.39 459.944 389.979 626.707 c 0,25,26
 335.825 773.759 335.825 773.759 288.096 925.896 c 1,27,28
 281.522 752.859 281.522 752.859 276.489 583.288 c 0,29,30
 270.336 375.949 270.336 375.949 264.659 167 c 1,31,-1
 459 167 l 2,32,33
 469 167 469 167 476 160 c 128,-1,34
 483 153 483 153 483 143 c 2,35,-1
 483 0 l 2,36,37
 483 -10 483 -10 476 -17 c 128,-1,38
 469 -24 469 -24 459 -24 c 2,39,-1
 -24 -24 l 2,40,41
 -34 -24 -34 -24 -41 -17 c 128,-1,42
 -48 -10 -48 -10 -48 0 c 2,43,-1
 -48 143 l 2,44,45
 -48 153 -48 153 -41 160 c 128,-1,46
 -34 167 -34 167 -24 167 c 2,47,-1
 78.8648 167 l 1,48,49
 86.4141 372.581 86.4141 372.581 94.0165 577.39 c 0,50,51
 101.556 780.501 101.556 780.501 109.992 986 c 1,52,-1
 -10 986 l 2,53,54
 -20 986 -20 986 -27 993 c 128,-1,55
 -34 1000 -34 1000 -34 1010 c 2,56,-1
 -34 1153 l 2,57,58
 -34 1163 -34 1163 -27 1170 c 128,-1,59
 -20 1177 -20 1177 -10 1177 c 2,60,-1
 374 1177 l 2,61,62
 391.422 1177 391.422 1177 396.819 1160.44 c 0,63,64
 454.776 982.568 454.776 982.568 513.229 810.208 c 0,65,66
 561.419 668.108 561.419 668.108 611.299 522.976 c 1,67,68
 627.523 565.511 627.523 565.511 644.494 611.336 c 0,69,70
 674.621 692.683 674.621 692.683 706.941 781.691 c 0,71,72
 739.453 871.228 739.453 871.228 774.466 966.759 c 128,-1,73
 809.494 1062.33 809.494 1062.33 846.519 1161.4 c 0,74,75
 852.348 1177 852.348 1177 869 1177 c 2,76,-1
 1240 1177 l 2,77,78
 1250 1177 1250 1177 1257 1170 c 128,-1,79
 1264 1163 1264 1163 1264 1153 c 2,80,-1
 1264 1010 l 2,81,82
 1264 1000 1264 1000 1257 993 c 128,-1,83
 1250 986 1250 986 1240 986 c 2,84,-1
 1119.9 986 l 1,85,86
 1128.65 747.853 1128.65 747.853 1134.98 577.39 c 0,87,88
 1142.61 372.036 1142.61 372.036 1151.93 167 c 1,89,-1
 1256 167 l 2,90,91
 1266 167 1266 167 1273 160 c 128,-1,92
 1280 153 1280 153 1280 143 c 2,93,-1
 1280 0 l 2,94,95
 1280 -10 1280 -10 1273 -17 c 128,-1,96
 1266 -24 1266 -24 1256 -24 c 2,0,-1
EndSplineSet
EndChar

StartChar: N
Encoding: 78 78 49
Width: 1228
Flags: W
LayerCount: 2
Fore
SplineSet
1104 -51 m 2,0,-1
 882 -51 l 2,1,2
 867.272 -51 867.272 -51 860.602 -37.8688 c 0,3,4
 796.682 87.9695 796.682 87.9695 731.24 212.861 c 0,5,6
 665.498 338.332 665.498 338.332 601.172 462.995 c 0,7,8
 536.593 588.148 536.593 588.148 473.517 714.801 c 0,9,10
 413.528 835.255 413.528 835.255 356 957.605 c 1,11,-1
 356 167 l 1,12,-1
 566 167 l 2,13,14
 576 167 576 167 583 160 c 128,-1,15
 590 153 590 153 590 143 c 2,16,-1
 590 0 l 2,17,18
 590 -10 590 -10 583 -17 c 128,-1,19
 576 -24 576 -24 566 -24 c 2,20,-1
 29 -24 l 2,21,22
 19 -24 19 -24 12 -17 c 128,-1,23
 5 -10 5 -10 5 0 c 2,24,-1
 5 143 l 2,25,26
 5 153 5 153 12 160 c 128,-1,27
 19 167 19 167 29 167 c 2,28,-1
 166 167 l 1,29,-1
 166 986 l 1,30,-1
 29 986 l 2,31,32
 19 986 19 986 12 993 c 128,-1,33
 5 1000 5 1000 5 1010 c 2,34,-1
 5 1153 l 2,35,36
 5 1163 5 1163 12 1170 c 128,-1,37
 19 1177 19 1177 29 1177 c 2,38,-1
 421 1177 l 2,39,40
 435.886 1177 435.886 1177 442.501 1163.66 c 0,41,42
 504.434 1038.79 504.434 1038.79 568.29 916.075 c 0,43,44
 631.965 793.712 631.965 793.712 695.862 668.939 c 0,45,46
 759.415 544.837 759.415 544.837 821.466 420.733 c 0,47,48
 881.041 301.579 881.041 301.579 938 178.434 c 1,49,-1
 938 986 l 1,50,-1
 732 986 l 2,51,52
 722 986 722 986 715 993 c 128,-1,53
 708 1000 708 1000 708 1010 c 2,54,-1
 708 1153 l 2,55,56
 708 1163 708 1163 715 1170 c 128,-1,57
 722 1177 722 1177 732 1177 c 2,58,-1
 1237 1177 l 2,59,60
 1247 1177 1247 1177 1254 1170 c 128,-1,61
 1261 1163 1261 1163 1261 1153 c 2,62,-1
 1261 1010 l 2,63,64
 1261 1000 1261 1000 1254 993 c 128,-1,65
 1247 986 1247 986 1237 986 c 2,66,-1
 1128 986 l 1,67,-1
 1128 -27 l 2,68,69
 1128 -37 1128 -37 1121 -44 c 128,-1,70
 1114 -51 1114 -51 1104 -51 c 2,0,-1
EndSplineSet
EndChar

StartChar: O
Encoding: 79 79 50
Width: 1228
Flags: W
LayerCount: 2
Fore
SplineSet
812.6 953.089 m 1,0,1
 724.029 1014 724.029 1014 616 1014 c 0,2,3
 528.7 1014 528.7 1014 460.291 979.563 c 0,4,5
 391.362 944.864 391.362 944.864 343.595 886.327 c 0,6,7
 295.461 827.34 295.461 827.34 269.849 747.656 c 0,8,9
 244 667.235 244 667.235 244 578 c 0,10,11
 244 499.349 244 499.349 266.582 420.075 c 0,12,13
 288.915 341.672 288.915 341.672 334.41 279.116 c 0,14,15
 379.335 217.342 379.335 217.342 449.286 177.907 c 0,16,17
 518.299 139 518.299 139 614 139 c 0,18,19
 665.433 139 665.433 139 713.021 153.463 c 0,20,21
 760.88 168.008 760.88 168.008 801.953 194.145 c 0,22,23
 842.827 221.084 842.827 221.084 876.966 258.838 c 1,24,25
 911.072 298.808 911.072 298.808 935.034 346.733 c 0,26,27
 959.259 395.184 959.259 395.184 972.618 452.911 c 128,-1,28
 986 510.736 986 510.736 986 576 c 0,29,30
 986 633.586 986 633.586 974.982 687.713 c 0,31,32
 964.015 741.592 964.015 741.592 942.122 790.133 c 0,33,34
 920.342 838.424 920.342 838.424 887.696 879.587 c 0,35,36
 857.346 917.854 857.346 917.854 812.6 953.089 c 1,0,1
1023.05 109.304 m 0,37,38
 981.466 75.8347 981.466 75.8347 938.34 45.3928 c 0,39,40
 894.148 14.1977 894.148 14.1977 844.774 -9.18971 c 0,41,42
 794.912 -32.8082 794.912 -32.8082 737.865 -45.8926 c 128,-1,43
 680.718 -59 680.718 -59 614 -59 c 0,44,45
 494.156 -59 494.156 -59 388.692 -14.6213 c 0,46,47
 283.018 29.8452 283.018 29.8452 205.039 112.534 c 0,48,49
 127.286 194.984 127.286 194.984 82.0895 312.911 c 0,50,51
 37 430.558 37 430.558 37 575 c 0,52,53
 37 650.33 37 650.33 51.9479 726.615 c 0,54,55
 66.9708 803.283 66.9708 803.283 98.5751 874.262 c 128,-1,56
 130.218 945.329 130.218 945.329 176.917 1006.55 c 0,57,58
 224.174 1068.51 224.174 1068.51 289.216 1114.15 c 128,-1,59
 354.218 1159.75 354.218 1159.75 436.217 1185.87 c 128,-1,60
 518.267 1212 518.267 1212 617 1212 c 0,61,62
 713.046 1212 713.046 1212 797.385 1182.67 c 0,63,64
 881.52 1153.41 881.52 1153.41 951.105 1100.04 c 128,-1,65
 1020.56 1046.78 1020.56 1046.78 1072.71 971.69 c 0,66,67
 1124.66 896.889 1124.66 896.889 1154.85 806.34 c 1,68,69
 1172.39 749.587 1172.39 749.587 1182.15 693.085 c 0,70,71
 1192 636.043 1192 636.043 1192 576 c 0,72,73
 1192 424.016 1192 424.016 1134.52 291.453 c 0,74,75
 1095.27 200.923 1095.27 200.923 1031.97 129.362 c 1,76,77
 1032.31 116.755 1032.31 116.755 1023.05 109.304 c 0,37,38
EndSplineSet
EndChar

StartChar: P
Encoding: 80 80 51
Width: 1228
Flags: W
LayerCount: 2
Fore
SplineSet
651 597 m 2,0,1
 727.414 597 727.414 597 782.402 608.952 c 0,2,3
 835.461 620.485 835.461 620.485 870.687 643.969 c 0,4,5
 904.166 666.288 904.166 666.288 920.321 700.297 c 0,6,7
 937.098 735.613 937.098 735.613 938 785.218 c 0,8,9
 938 812.521 938 812.521 930.989 836.182 c 0,10,11
 923.81 860.408 923.81 860.408 911.269 881.907 c 0,12,13
 898.911 903.094 898.911 903.094 880.74 920.821 c 0,14,15
 863.101 938.03 863.101 938.03 840.079 952.534 c 1,16,17
 819.821 960.749 819.821 960.749 800.07 967.179 c 128,-1,18
 780.283 973.621 780.283 973.621 755.054 977.827 c 0,19,20
 729.328 982.115 729.328 982.115 696.111 984.04 c 0,21,22
 662.296 986 662.296 986 614 986 c 2,23,-1
 459 986 l 1,24,-1
 459 597 l 1,25,-1
 651 597 l 2,0,1
739 -24 m 2,26,-1
 118 -24 l 2,27,28
 108 -24 108 -24 101 -17 c 128,-1,29
 94 -10 94 -10 94 0 c 2,30,-1
 94 143 l 2,31,32
 94 153 94 153 101 160 c 128,-1,33
 108 167 108 167 118 167 c 2,34,-1
 261 167 l 1,35,-1
 261 986 l 1,36,-1
 118 986 l 2,37,38
 108 986 108 986 101 993 c 128,-1,39
 94 1000 94 1000 94 1010 c 2,40,-1
 94 1153 l 2,41,42
 94 1163 94 1163 101 1170 c 128,-1,43
 108 1177 108 1177 118 1177 c 2,44,-1
 614 1177 l 2,45,46
 712.643 1177 712.643 1177 784.228 1167.28 c 0,47,48
 857.341 1157.36 857.341 1157.36 913.201 1134.17 c 0,49,50
 970.142 1110.53 970.142 1110.53 1012.28 1071.64 c 0,51,52
 1053.58 1033.51 1053.58 1033.51 1088.26 978.86 c 0,53,54
 1088.58 978.366 1088.58 978.366 1088.87 977.856 c 0,55,56
 1115.23 931.464 1115.23 931.464 1129.51 883.327 c 0,57,58
 1144 834.482 1144 834.482 1144 784 c 0,59,60
 1144 737.116 1144 737.116 1133.82 695.32 c 0,61,62
 1123.69 653.763 1123.69 653.763 1106.53 618.9 c 0,63,64
 1089.26 583.813 1089.26 583.813 1064.41 554.103 c 0,65,66
 1039.94 524.844 1039.94 524.844 1011.16 501.394 c 128,-1,67
 982.29 477.869 982.29 477.869 949.649 460.747 c 0,68,69
 917.745 444.011 917.745 444.011 886.262 432.467 c 0,70,71
 885.692 432.258 885.692 432.258 885.114 432.078 c 0,72,73
 854.669 422.631 854.669 422.631 822.193 416.869 c 0,74,75
 789.993 411.156 789.993 411.156 748.273 408.066 c 0,76,77
 707.008 405.008 707.008 405.008 653.729 404.501 c 0,78,79
 601.069 404 601.069 404 527 404.001 c 2,80,-1
 459 404 l 1,81,-1
 459 167 l 1,82,-1
 739 167 l 2,83,84
 749 167 749 167 756 160 c 128,-1,85
 763 153 763 153 763 143 c 2,86,-1
 763 0 l 2,87,88
 763 -10 763 -10 756 -17 c 128,-1,89
 749 -24 749 -24 739 -24 c 2,26,-1
EndSplineSet
EndChar

StartChar: Q
Encoding: 81 81 52
Width: 1228
Flags: W
LayerCount: 2
Fore
SplineSet
758.931 170.787 m 1,0,1
 827.34 201.713 827.34 201.713 877.393 259.252 c 0,2,3
 927.955 317.378 927.955 317.378 956.926 397.648 c 0,4,5
 986 478.207 986 478.207 986 576 c 0,6,7
 986 633.586 986 633.586 974.982 687.713 c 0,8,9
 964.015 741.592 964.015 741.592 942.122 790.133 c 0,10,11
 920.342 838.424 920.342 838.424 887.696 879.587 c 0,12,13
 856.592 918.805 856.592 918.805 815.616 950.706 c 0,14,15
 813.959 951.968 813.959 951.968 811.807 953.635 c 0,16,17
 724.029 1014 724.029 1014 616 1014 c 0,18,19
 524.869 1014 524.869 1014 456.077 978.209 c 0,20,21
 386.7 942.114 386.7 942.114 339.913 882.225 c 0,22,23
 292.629 821.7 292.629 821.7 268.43 743.413 c 0,24,25
 244 664.38 244 664.38 244 578 c 0,26,27
 244 500.331 244 500.331 266.592 420.538 c 0,28,29
 288.926 341.657 288.926 341.657 334.41 279.116 c 0,30,31
 379.335 217.342 379.335 217.342 449.286 177.907 c 0,32,33
 518.299 139 518.299 139 614 139 c 0,34,35
 691.619 139 691.619 139 758.931 170.787 c 1,0,1
744.517 -39.3165 m 1,36,37
 771.833 -48.8319 771.833 -48.8319 792.084 -56.5874 c 0,38,39
 814.806 -65.2897 814.806 -65.2897 832.013 -70.5476 c 0,40,41
 850.579 -76.2205 850.579 -76.2205 863.629 -80.9187 c 0,42,43
 874.201 -84.7246 874.201 -84.7246 882.768 -87.6215 c 0,44,45
 886.959 -88.2762 886.959 -88.2762 890.388 -88.6191 c 0,46,47
 894.197 -89 894.197 -89 898 -89 c 0,48,49
 898.998 -89 898.998 -89 899.993 -89.0829 c 0,50,51
 909.668 -89.8892 909.668 -89.8892 920.85 -88.6468 c 0,52,53
 933.003 -87.2965 933.003 -87.2965 946.251 -85.434 c 1,54,55
 970.393 -78.9711 970.393 -78.9711 995.267 -66.5337 c 0,56,57
 1021.45 -53.4423 1021.45 -53.4423 1049.81 -32.6463 c 0,58,59
 1057.32 -27.1523 1057.32 -27.1523 1066.76 -28.2495 c 128,-1,60
 1076.19 -29.3466 1076.19 -29.3466 1082.22 -36.381 c 0,61,62
 1106.11 -64.248 1106.11 -64.248 1129.61 -91.2434 c 0,63,64
 1153.33 -118.506 1153.33 -118.506 1176.55 -146.766 c 0,65,66
 1183.42 -155.366 1183.42 -155.366 1181.44 -166.207 c 128,-1,67
 1179.46 -177.049 1179.46 -177.049 1170.46 -182.515 c 0,68,69
 1143.46 -198.908 1143.46 -198.908 1126.4 -211.7 c 0,70,71
 1107.51 -225.868 1107.51 -225.868 1087.08 -238.44 c 0,72,73
 1065.56 -251.682 1065.56 -251.682 1036.34 -262.506 c 0,74,75
 1007.8 -273.075 1007.8 -273.075 960.752 -283.53 c 0,76,77
 947.68 -285.906 947.68 -285.906 934.542 -286.477 c 0,78,79
 922.518 -287 922.518 -287 910.001 -287 c 0,80,81
 886.163 -287 886.163 -287 864.851 -283.721 c 0,82,83
 844.03 -280.517 844.03 -280.517 824.238 -275.169 c 128,-1,84
 804.445 -269.82 804.445 -269.82 784.189 -261.824 c 0,85,86
 765.138 -254.304 765.138 -254.304 744.575 -245.077 c 0,87,88
 693.241 -224.374 693.241 -224.374 651.331 -210.242 c 0,89,90
 612.063 -197 612.063 -197 577 -197 c 0,91,92
 539.037 -197 539.037 -197 506.977 -205.244 c 0,93,94
 474.062 -213.708 474.062 -213.708 445.512 -226.812 c 0,95,96
 416.248 -240.244 416.248 -240.244 390.905 -255.546 c 0,97,98
 364.583 -271.438 364.583 -271.438 340.72 -286.352 c 0,99,100
 331.388 -291.619 331.388 -291.619 321.655 -288.825 c 128,-1,101
 311.923 -286.032 311.923 -286.032 307.295 -278.137 c 0,102,103
 290.529 -249.536 290.529 -249.536 272.267 -220.908 c 0,104,105
 253.529 -191.536 253.529 -191.536 236.295 -162.137 c 0,106,107
 231.647 -154 231.647 -154 233.699 -144.828 c 128,-1,108
 235.751 -135.656 235.751 -135.656 243.099 -130.436 c 0,109,110
 280.576 -103.807 280.576 -103.807 311.58 -79.2011 c 0,111,112
 342.005 -55.0549 342.005 -55.0549 369.029 -28.0294 c 0,113,114
 377.582 -19.477 377.582 -19.477 385.754 -10.5409 c 1,115,116
 314.695 20.9568 314.695 20.9568 257.016 69.6633 c 0,117,118
 186.655 129.078 186.655 129.078 137.663 207.256 c 128,-1,119
 88.7678 285.28 88.7678 285.28 63.3339 379.229 c 0,120,121
 38 472.808 38 472.808 38 575 c 0,122,123
 38 676.974 38 676.974 60.7244 767.352 c 0,124,125
 83.5682 858.205 83.5682 858.205 128.321 934.181 c 0,126,127
 173.239 1010.44 173.239 1010.44 239.547 1069.43 c 0,128,129
 305.65 1128.24 305.65 1128.24 392.329 1164.97 c 1,130,131
 495.282 1212 495.282 1212 612 1212 c 0,132,133
 691.263 1212 691.263 1212 764.898 1191.63 c 128,-1,134
 838.676 1171.22 838.676 1171.22 902.569 1131.95 c 128,-1,135
 966.271 1092.79 966.271 1092.79 1020.44 1035.49 c 128,-1,136
 1074.56 978.246 1074.56 978.246 1115.19 904.264 c 1,137,138
 1192 754.798 1192 754.798 1192 568 c 0,139,140
 1192 461.823 1192 461.823 1165.68 363.778 c 0,141,142
 1139.09 264.734 1139.09 264.734 1082.21 182.813 c 0,143,144
 1025.16 100.636 1025.16 100.636 937.95 41.6228 c 0,145,146
 856.098 -13.7638 856.098 -13.7638 744.517 -39.3165 c 1,36,37
EndSplineSet
EndChar

StartChar: R
Encoding: 82 82 53
Width: 1228
Flags: W
LayerCount: 2
Fore
SplineSet
594 673 m 2,0,1
 739.008 673 739.008 673 804.615 714.748 c 0,2,3
 865 753.173 865 753.173 865 838 c 0,4,5
 865 882.12 865 882.12 852.906 910.627 c 0,6,7
 841.897 936.575 841.897 936.575 815.922 952.56 c 0,8,9
 787.474 970.066 787.474 970.066 739.664 977.809 c 0,10,11
 689.08 986 689.08 986 614 986 c 2,12,-1
 407 986 l 1,13,-1
 407 673 l 1,14,-1
 594 673 l 2,0,1
1209 -24 m 2,15,-1
 913 -24 l 2,16,17
 898.6 -24 898.6 -24 891.824 -11.2941 c 0,18,19
 867.808 33.7365 867.808 33.7365 837.298 91.2538 c 0,20,21
 807.036 148.308 807.036 148.308 771.285 209.376 c 0,22,23
 735.782 270.03 735.782 270.03 693.331 330.748 c 0,24,25
 651.497 390.581 651.497 390.581 603.78 443.262 c 1,26,27
 580.706 465.27 580.706 465.27 559.401 472.908 c 0,28,29
 536.828 481 536.828 481 509 481 c 2,30,-1
 407 481 l 1,31,-1
 407 167 l 1,32,-1
 568 167 l 2,33,34
 578 167 578 167 585 160 c 128,-1,35
 592 153 592 153 592 143 c 2,36,-1
 592 0 l 2,37,38
 592 -10 592 -10 585 -17 c 128,-1,39
 578 -24 578 -24 568 -24 c 2,40,-1
 65 -24 l 2,41,42
 55 -24 55 -24 48 -17 c 128,-1,43
 41 -10 41 -10 41 0 c 2,44,-1
 41 143 l 2,45,46
 41 153 41 153 48 160 c 128,-1,47
 55 167 55 167 65 167 c 2,48,-1
 211 167 l 1,49,-1
 211 986 l 1,50,-1
 65 986 l 2,51,52
 55 986 55 986 48 993 c 128,-1,53
 41 1000 41 1000 41 1010 c 2,54,-1
 41 1153 l 2,55,56
 41 1163 41 1163 48 1170 c 128,-1,57
 55 1177 55 1177 65 1177 c 2,58,-1
 618 1177 l 2,59,60
 672.758 1177 672.758 1177 714.943 1174.46 c 0,61,62
 757.993 1171.86 757.993 1171.86 793.507 1165.07 c 0,63,64
 829.544 1158.18 829.544 1158.18 860.512 1146.44 c 0,65,66
 890.777 1134.96 890.777 1134.96 923.007 1118.33 c 0,67,68
 924.253 1117.68 924.253 1117.68 925.415 1116.9 c 0,69,70
 1071 1018.77 1071 1018.77 1071 841 c 0,71,72
 1071 778.762 1071 778.762 1050.54 722.763 c 128,-1,73
 1030.05 666.671 1030.05 666.671 990.707 620.863 c 128,-1,74
 951.257 574.931 951.257 574.931 891.764 543.308 c 0,75,76
 849.089 520.623 849.089 520.623 796.873 506.503 c 1,77,78
 834.316 460.436 834.316 460.436 881.805 391.056 c 0,79,80
 943.33 301.168 943.33 301.168 1029.15 167 c 1,81,-1
 1209 167 l 2,82,83
 1219 167 1219 167 1226 160 c 128,-1,84
 1233 153 1233 153 1233 143 c 2,85,-1
 1233 0 l 2,86,87
 1233 -10 1233 -10 1226 -17 c 128,-1,88
 1219 -24 1219 -24 1209 -24 c 2,15,-1
EndSplineSet
EndChar

StartChar: S
Encoding: 83 83 54
Width: 1228
Flags: W
LayerCount: 2
Fore
SplineSet
148.397 -36.6521 m 0,0,1
 155.347 1.07515 155.347 1.07515 161.301 38.2918 c 0,2,3
 167.021 74.0384 167.021 74.0384 169 112.605 c 0,4,5
 169.018 126.933 169.018 126.933 169.513 141.8 c 0,6,7
 170 156.402 170 156.402 170 172 c 0,8,9
 170 196.765 170 196.765 164.127 253.53 c 0,10,11
 158.094 311.849 158.094 311.849 151.068 405.199 c 0,12,13
 150.291 415.512 150.291 415.512 157.513 423.256 c 128,-1,14
 164.735 431 164.735 431 175 431 c 2,15,-1
 312 431 l 2,16,17
 320.405 431 320.405 431 327.065 425.538 c 128,-1,18
 333.724 420.075 333.724 420.075 335.456 412.082 c 0,19,20
 348.217 353.185 348.217 353.185 361.374 311.766 c 0,21,22
 374.05 271.859 374.05 271.859 390.669 243.698 c 0,23,24
 406.773 216.411 406.773 216.411 427.492 197.896 c 0,25,26
 448.601 179.032 448.601 179.032 479.733 163.466 c 0,27,28
 480.425 163.12 480.425 163.12 481.093 162.731 c 0,29,30
 501.383 150.895 501.383 150.895 534.153 145.138 c 0,31,32
 569.094 139 569.094 139 616 139 c 0,33,34
 685.869 139 685.869 139 739.342 153.196 c 0,35,36
 791.685 167.093 791.685 167.093 827.169 192.114 c 0,37,38
 861.509 216.328 861.509 216.328 878.824 248.794 c 0,39,40
 896 281.001 896 281.001 896 321 c 0,41,42
 896 383.594 896 383.594 842.623 421.418 c 0,43,44
 784.223 462.803 784.223 462.803 650.707 477.108 c 1,45,46
 530.779 487.272 530.779 487.272 439.63 512.361 c 0,47,48
 346.914 537.881 346.914 537.881 283.687 580.031 c 0,49,50
 218.645 623.391 218.645 623.391 185.803 685.245 c 128,-1,51
 153 747.025 153 747.025 153 829 c 0,52,53
 153 906.745 153 906.745 188.6 976.865 c 0,54,55
 223.826 1046.25 223.826 1046.25 286.089 1098.4 c 0,56,57
 347.78 1150.07 347.78 1150.07 430.183 1180.51 c 128,-1,58
 512.704 1211 512.704 1211 607 1211 c 0,59,60
 661.701 1211 661.701 1211 703.832 1201.4 c 0,61,62
 745.589 1191.89 745.589 1191.89 781.687 1175.96 c 0,63,64
 817.17 1160.3 817.17 1160.3 852.027 1138.97 c 0,65,66
 871.499 1127.06 871.499 1127.06 893.977 1113.82 c 1,67,68
 894.926 1119.78 894.926 1119.78 896.002 1125.35 c 0,69,70
 896.028 1126.72 896.028 1126.72 896.185 1127.98 c 0,71,72
 897.246 1136.46 897.246 1136.46 898.327 1142.95 c 0,73,74
 899 1146.99 899 1146.99 899 1153 c 2,75,-1
 899 1176 l 2,76,77
 899 1186 899 1186 906 1193 c 128,-1,78
 913 1200 913 1200 923 1200 c 2,79,-1
 1071 1200 l 2,80,81
 1081 1200 1081 1200 1088 1193 c 128,-1,82
 1095 1186 1095 1186 1095 1176 c 1,83,-1
 1094.22 1169.92 l 1,84,85
 1083.47 1128.9 1083.47 1128.9 1076.64 1089.86 c 0,86,87
 1070 1051.91 1070 1051.91 1070 1017 c 0,88,89
 1070 963.013 1070 963.013 1075.42 895.935 c 0,90,91
 1080.87 828.59 1080.87 828.59 1090.84 741.741 c 0,92,93
 1091.93 732.272 1091.93 732.272 1085.87 724.635 c 128,-1,94
 1079.81 716.998 1079.81 716.998 1071.46 715.418 c 0,95,96
 1034.18 708.365 1034.18 708.365 1000.39 702.817 c 0,97,98
 967.16 697.363 967.16 697.363 932.055 691.345 c 0,99,100
 921.863 689.598 921.863 689.598 913.478 696.056 c 128,-1,101
 905.092 702.514 905.092 702.514 904.111 712.697 c 0,102,103
 888.901 870.478 888.901 870.478 820.092 942.979 c 0,104,105
 752.686 1014 752.686 1014 623 1014 c 0,106,107
 551.366 1014 551.366 1014 500.95 995.037 c 128,-1,108
 450.599 976.098 450.599 976.098 418.913 948.034 c 0,109,110
 387.803 920.48 387.803 920.48 373.419 888.225 c 128,-1,111
 359 855.891 359 855.891 359 828 c 0,112,113
 359 792.98 359 792.98 373.195 766.26 c 128,-1,114
 387.333 739.647 387.333 739.647 417.748 719.512 c 0,115,116
 449.927 698.21 449.927 698.21 501.567 684.721 c 0,117,118
 555.03 670.754 555.03 670.754 629.165 664.904 c 1,119,120
 678.326 659.888 678.326 659.888 720.087 655.36 c 0,121,122
 762.606 650.75 762.606 650.75 801.645 643.046 c 0,123,124
 841.397 635.202 841.397 635.202 878.072 622.102 c 0,125,126
 915.08 608.883 915.08 608.883 951.907 587.838 c 0,127,128
 952.519 587.488 952.519 587.488 953.11 587.103 c 0,129,130
 1102 489.998 1102 489.998 1102 322 c 0,131,132
 1102 243.525 1102 243.525 1068.63 174.104 c 0,133,134
 1035.4 104.97 1035.4 104.97 973.488 52.6667 c 0,135,136
 912.064 0.775985 912.064 0.775985 825.336 -29.1846 c 0,137,138
 739.029 -59 739.029 -59 631 -59 c 0,139,140
 585.059 -59 585.059 -59 540.144 -51.6882 c 128,-1,141
 495.239 -44.3781 495.239 -44.3781 454.411 -30.7684 c 0,142,143
 412.81 -16.9014 412.81 -16.9014 376.973 5.02879 c 0,144,145
 361.303 14.6181 361.303 14.6181 346.673 25.5082 c 1,146,147
 346.166 22.0088 346.166 22.0088 345.767 19.1643 c 0,148,149
 341.855 -8.709 341.855 -8.709 338.912 -43.0496 c 0,150,151
 338.121 -52.2805 338.121 -52.2805 331.089 -58.6402 c 128,-1,152
 324.057 -65 324.057 -65 315 -65 c 2,153,-1
 172 -65 l 2,154,155
 160.557 -65 160.557 -65 153.558 -55.8158 c 128,-1,156
 146.559 -46.6315 146.559 -46.6315 148.397 -36.6521 c 0,0,1
EndSplineSet
EndChar

StartChar: T
Encoding: 84 84 55
Width: 1228
Flags: W
LayerCount: 2
Fore
SplineSet
939 -24 m 2,0,-1
 289 -24 l 2,1,2
 279 -24 279 -24 272 -17 c 128,-1,3
 265 -10 265 -10 265 0 c 2,4,-1
 265 143 l 2,5,6
 265 153 265 153 272 160 c 128,-1,7
 279 167 279 167 289 167 c 2,8,-1
 515 167 l 1,9,-1
 515 986 l 1,10,-1
 266.335 986 l 1,11,-1
 238.938 605.277 l 2,12,13
 238.254 595.77 238.254 595.77 230.884 589.385 c 128,-1,14
 223.513 583 223.513 583 215 583 c 2,15,-1
 73 583 l 2,16,17
 62.702 583 62.702 583 55.6535 590.772 c 128,-1,18
 48.6051 598.543 48.6051 598.543 49.0232 608.054 c 2,19,-1
 73.0231 1154.05 l 2,20,21
 73.4451 1163.65 73.4451 1163.65 80.6582 1170.33 c 128,-1,22
 87.8713 1177 87.8713 1177 97 1177 c 2,23,-1
 1132 1177 l 2,24,25
 1141.61 1177 1141.61 1177 1148.59 1170.09 c 128,-1,26
 1155.58 1163.17 1155.58 1163.17 1155.98 1154.05 c 2,27,-1
 1179.98 608.054 l 2,28,29
 1180.43 597.766 1180.43 597.766 1172.97 590.383 c 128,-1,30
 1165.52 583 1165.52 583 1156 583 c 2,31,-1
 1012 583 l 2,32,33
 1002.45 583 1002.45 583 995.542 589.897 c 128,-1,34
 988.63 596.794 988.63 596.794 988.054 605.396 c 2,35,-1
 962.554 986 l 1,36,-1
 713 986 l 1,37,-1
 713 167 l 1,38,-1
 939 167 l 2,39,40
 949 167 949 167 956 160 c 128,-1,41
 963 153 963 153 963 143 c 2,42,-1
 963 0 l 2,43,44
 963 -10 963 -10 956 -17 c 128,-1,45
 949 -24 949 -24 939 -24 c 2,0,-1
EndSplineSet
EndChar

StartChar: U
Encoding: 85 85 56
Width: 1228
Flags: W
LayerCount: 2
Fore
SplineSet
1084 461 m 2,0,1
 1084 347.827 1084 347.827 1070.12 271.221 c 0,2,3
 1055.91 192.856 1055.91 192.856 1026.53 139.434 c 0,4,5
 996.49 84.8181 996.49 84.8181 950.252 50.6902 c 0,6,7
 906.548 18.432 906.548 18.432 848.169 -7.74336 c 1,8,9
 798.504 -31.9052 798.504 -31.9052 739.337 -45.3992 c 0,10,11
 679.701 -59 679.701 -59 619 -59 c 0,12,13
 529.404 -59 529.404 -59 457.465 -36.9459 c 0,14,15
 386.046 -15.051 386.046 -15.051 332.944 17.5463 c 0,16,17
 279.367 50.4352 279.367 50.4352 243.983 90.6449 c 0,18,19
 209.147 130.231 209.147 130.231 192.399 165.535 c 0,20,21
 179.379 191.812 179.379 191.812 170.923 221.407 c 128,-1,22
 162.439 251.102 162.439 251.102 157.707 286.851 c 0,23,24
 153.092 321.721 153.092 321.721 150.541 365.091 c 128,-1,25
 148 408.298 148 408.298 148 461 c 2,26,-1
 148 986 l 1,27,-1
 21 986 l 2,28,29
 11 986 11 986 4 993 c 128,-1,30
 -3 1000 -3 1000 -3 1010 c 2,31,-1
 -3 1153 l 2,32,33
 -3 1163 -3 1163 4 1170 c 128,-1,34
 11 1177 11 1177 21 1177 c 2,35,-1
 530 1177 l 2,36,37
 540 1177 540 1177 547 1170 c 128,-1,38
 554 1163 554 1163 554 1153 c 2,39,-1
 554 1010 l 2,40,41
 554 1000 554 1000 547 993 c 128,-1,42
 540 986 540 986 530 986 c 2,43,-1
 345 986 l 1,44,-1
 345 483 l 2,45,46
 345 392.708 345 392.708 354.759 324.394 c 0,47,48
 363.988 259.785 363.988 259.785 392.969 216.313 c 0,49,50
 420.929 174.372 420.929 174.372 473.204 152.665 c 0,51,52
 527.786 130 527.786 130 620 130 c 0,53,54
 709.788 130 709.788 130 767.542 156.337 c 0,55,56
 822.566 181.428 822.566 181.428 850.747 235.149 c 0,57,58
 851.021 235.671 851.021 235.671 851.631 236.754 c 128,-1,59
 852.241 237.837 852.241 237.837 852.572 238.469 c 0,60,61
 858.701 252.681 858.701 252.681 863.927 267.151 c 0,62,63
 869.867 283.601 869.867 283.601 875.505 305.976 c 1,64,65
 879.3 327.946 879.3 327.946 881.668 347.837 c 0,66,67
 884.098 368.244 884.098 368.244 885.558 389.17 c 0,68,69
 887 409.842 887 409.842 887 432.5 c 2,70,-1
 887 986 l 1,71,-1
 700 986 l 2,72,73
 690 986 690 986 683 993 c 128,-1,74
 676 1000 676 1000 676 1010 c 2,75,-1
 676 1153 l 2,76,77
 676 1163 676 1163 683 1170 c 128,-1,78
 690 1177 690 1177 700 1177 c 2,79,-1
 1209 1177 l 2,80,81
 1219 1177 1219 1177 1226 1170 c 128,-1,82
 1233 1163 1233 1163 1233 1153 c 2,83,-1
 1233 1010 l 2,84,85
 1233 1000 1233 1000 1226 993 c 128,-1,86
 1219 986 1219 986 1209 986 c 2,87,-1
 1084 986 l 1,88,-1
 1084 461 l 2,0,1
EndSplineSet
EndChar

StartChar: V
Encoding: 86 86 57
Width: 1228
Flags: W
LayerCount: 2
Fore
SplineSet
519.747 -8.98856 m 0,0,1
 416.738 246.042 416.738 246.042 316.723 495.571 c 0,2,3
 219.865 737.228 219.865 737.228 121.67 986 c 1,4,-1
 -14 986 l 2,5,6
 -24 986 -24 986 -31 993 c 128,-1,7
 -38 1000 -38 1000 -38 1010 c 2,8,-1
 -38 1153 l 2,9,10
 -38 1163 -38 1163 -31 1170 c 128,-1,11
 -24 1177 -24 1177 -14 1177 c 2,12,-1
 474 1177 l 2,13,14
 484 1177 484 1177 491 1170 c 128,-1,15
 498 1163 498 1163 498 1153 c 2,16,-1
 498 1010 l 2,17,18
 498 1000 498 1000 491 993 c 128,-1,19
 484 986 484 986 474 986 c 2,20,-1
 327.591 986 l 1,21,22
 393.747 809.307 393.747 809.307 461.867 634.202 c 0,23,24
 534.851 446.597 534.851 446.597 611.38 250.668 c 1,25,-1
 622.32 222.159 l 1,26,27
 695.66 408.156 695.66 408.156 766.623 591.176 c 0,28,29
 844.27 791.432 844.27 791.432 919.917 986 c 1,30,-1
 759 986 l 2,31,32
 749 986 749 986 742 993 c 128,-1,33
 735 1000 735 1000 735 1010 c 2,34,-1
 735 1153 l 2,35,36
 735 1163 735 1163 742 1170 c 128,-1,37
 749 1177 749 1177 759 1177 c 2,38,-1
 1246 1177 l 2,39,40
 1256 1177 1256 1177 1263 1170 c 128,-1,41
 1270 1163 1270 1163 1270 1153 c 2,42,-1
 1270 1010 l 2,43,44
 1270 1000 1270 1000 1263 993 c 128,-1,45
 1256 986 1256 986 1246 986 c 2,46,-1
 1120.27 986 l 1,47,48
 1021.77 738.877 1021.77 738.877 923.246 495.494 c 0,49,50
 822.248 246.004 822.248 246.004 719.253 -8.98856 c 0,51,52
 713.19 -24 713.19 -24 697 -24 c 2,53,-1
 542 -24 l 2,54,55
 525.81 -24 525.81 -24 519.747 -8.98856 c 0,0,1
EndSplineSet
EndChar

StartChar: W
Encoding: 87 87 58
Width: 1228
Flags: W
LayerCount: 2
Fore
SplineSet
837.322 -7.85501 m 0,0,1
 775.785 169.82 775.785 169.82 713.857 346.043 c 0,2,3
 663.584 489.103 663.584 489.103 612.504 636.184 c 1,4,5
 559.471 489.507 559.471 489.507 508.622 345.985 c 0,6,7
 447.007 172.076 447.007 172.076 383.639 -7.96783 c 0,8,9
 377.996 -24 377.996 -24 361 -24 c 2,10,-1
 222 -24 l 2,11,12
 213.123 -24 213.123 -24 206.291 -18.0135 c 128,-1,13
 199.46 -12.027 199.46 -12.027 198.236 -3.35497 c 0,14,15
 162.276 251.367 162.276 251.367 125.753 501.026 c 0,16,17
 90.7449 740.327 90.7449 740.327 56.1412 986 c 1,18,-1
 -22 986 l 2,19,20
 -32 986 -32 986 -39 993 c 128,-1,21
 -46 1000 -46 1000 -46 1010 c 2,22,-1
 -46 1153 l 2,23,24
 -46 1163 -46 1163 -39 1170 c 128,-1,25
 -32 1177 -32 1177 -22 1177 c 2,26,-1
 430 1177 l 2,27,28
 440 1177 440 1177 447 1170 c 128,-1,29
 454 1163 454 1163 454 1153 c 2,30,-1
 454 1010 l 2,31,32
 454 1000 454 1000 447 993 c 128,-1,33
 440 986 440 986 430 986 c 2,34,-1
 252.213 986 l 1,35,36
 274.548 809.087 274.548 809.087 297.786 636.197 c 0,37,38
 316.271 498.666 316.271 498.666 335.454 358.943 c 1,39,40
 378.124 480.655 378.124 480.655 421.912 602.61 c 0,41,42
 482.066 770.148 482.066 770.148 545.375 949.011 c 0,43,44
 551.036 965 551.036 965 568 965 c 2,45,-1
 670 965 l 2,46,47
 687.047 965 687.047 965 692.661 948.905 c 0,48,49
 753.638 774.087 753.638 774.087 811.187 607.33 c 2,50,-1
 896.648 359.685 l 1,51,52
 915.461 495.997 915.461 495.997 935.23 637.814 c 0,53,54
 959.511 812.002 959.511 812.002 983.471 986 c 1,55,-1
 804 986 l 2,56,57
 794 986 794 986 787 993 c 128,-1,58
 780 1000 780 1000 780 1010 c 2,59,-1
 780 1153 l 2,60,61
 780 1163 780 1163 787 1170 c 128,-1,62
 794 1177 794 1177 804 1177 c 2,63,-1
 1254 1177 l 2,64,65
 1264 1177 1264 1177 1271 1170 c 128,-1,66
 1278 1163 1278 1163 1278 1153 c 2,67,-1
 1278 1010 l 2,68,69
 1278 1000 1278 1000 1271 993 c 128,-1,70
 1264 986 1264 986 1254 986 c 2,71,-1
 1174.45 986 l 1,72,73
 1135.09 740.529 1135.09 740.529 1099.23 501.44 c 0,74,75
 1061.17 247.62 1061.17 247.62 1023.74 -3.53632 c 0,76,77
 1022.43 -12.2888 1022.43 -12.2888 1015.52 -18.1444 c 128,-1,78
 1008.6 -24 1008.6 -24 1000 -24 c 2,79,-1
 860 -24 l 2,80,81
 842.914 -24 842.914 -24 837.322 -7.85501 c 0,0,1
EndSplineSet
EndChar

StartChar: X
Encoding: 88 88 59
Width: 1228
Flags: W
LayerCount: 2
Fore
SplineSet
1188 -24 m 2,0,-1
 726 -24 l 2,1,2
 716 -24 716 -24 709 -17 c 128,-1,3
 702 -10 702 -10 702 0 c 2,4,-1
 702 143 l 2,5,6
 702 153 702 153 709 160 c 128,-1,7
 716 167 716 167 726 167 c 2,8,-1
 840.842 167 l 1,9,-1
 614.619 477.745 l 1,10,-1
 379.282 167 l 1,11,-1
 526 167 l 2,12,13
 536 167 536 167 543 160 c 128,-1,14
 550 153 550 153 550 143 c 2,15,-1
 550 0 l 2,16,17
 550 -10 550 -10 543 -17 c 128,-1,18
 536 -24 536 -24 526 -24 c 2,19,-1
 41 -24 l 2,20,21
 31 -24 31 -24 24 -17 c 128,-1,22
 17 -10 17 -10 17 0 c 2,23,-1
 17 143 l 2,24,25
 17 153 17 153 24 160 c 128,-1,26
 31 167 31 167 41 167 c 2,27,-1
 145.527 167 l 1,28,-1
 498.154 603.991 l 1,29,-1
 189.536 986 l 1,30,-1
 79 986 l 2,31,32
 69 986 69 986 62 993 c 128,-1,33
 55 1000 55 1000 55 1010 c 2,34,-1
 55 1153 l 2,35,36
 55 1163 55 1163 62 1170 c 128,-1,37
 69 1177 69 1177 79 1177 c 2,38,-1
 526 1177 l 2,39,40
 536 1177 536 1177 543 1170 c 128,-1,41
 550 1163 550 1163 550 1153 c 2,42,-1
 550 1010 l 2,43,44
 550 1000 550 1000 543 993 c 128,-1,45
 536 986 536 986 526 986 c 2,46,-1
 428.757 986 l 1,47,-1
 616.281 733.84 l 1,48,-1
 809.391 986 l 1,49,-1
 726 986 l 2,50,51
 716 986 716 986 709 993 c 128,-1,52
 702 1000 702 1000 702 1010 c 2,53,-1
 702 1153 l 2,54,55
 702 1163 702 1163 709 1170 c 128,-1,56
 716 1177 716 1177 726 1177 c 2,57,-1
 1148 1177 l 2,58,59
 1158 1177 1158 1177 1165 1170 c 128,-1,60
 1172 1163 1172 1163 1172 1153 c 2,61,-1
 1172 1010 l 2,62,63
 1172 1000 1172 1000 1165 993 c 128,-1,64
 1158 986 1158 986 1148 986 c 2,65,-1
 1043.45 986 l 1,66,-1
 734.733 604.814 l 1,67,-1
 1080.63 167 l 1,68,-1
 1188 167 l 2,69,70
 1198 167 1198 167 1205 160 c 128,-1,71
 1212 153 1212 153 1212 143 c 2,72,-1
 1212 0 l 2,73,74
 1212 -10 1212 -10 1205 -17 c 128,-1,75
 1198 -24 1198 -24 1188 -24 c 2,0,-1
EndSplineSet
EndChar

StartChar: Y
Encoding: 89 89 60
Width: 1228
Flags: W
LayerCount: 2
Fore
SplineSet
935 -24 m 2,0,-1
 297 -24 l 2,1,2
 287 -24 287 -24 280 -17 c 128,-1,3
 273 -10 273 -10 273 0 c 2,4,-1
 273 143 l 2,5,6
 273 153 273 153 280 160 c 128,-1,7
 287 167 287 167 297 167 c 2,8,-1
 517 167 l 1,9,-1
 517 439.95 l 1,10,-1
 165.899 986 l 1,11,-1
 39 986 l 2,12,13
 29 986 29 986 22 993 c 128,-1,14
 15 1000 15 1000 15 1010 c 2,15,-1
 15 1153 l 2,16,17
 15 1163 15 1163 22 1170 c 128,-1,18
 29 1177 29 1177 39 1177 c 2,19,-1
 490 1177 l 2,20,21
 500 1177 500 1177 507 1170 c 128,-1,22
 514 1163 514 1163 514 1153 c 2,23,-1
 514 1010 l 2,24,25
 514 1000 514 1000 507 993 c 128,-1,26
 500 986 500 986 490 986 c 2,27,-1
 393.684 986 l 1,28,-1
 620.885 612.38 l 1,29,-1
 845.562 986 l 1,30,-1
 744 986 l 2,31,32
 734 986 734 986 727 993 c 128,-1,33
 720 1000 720 1000 720 1010 c 2,34,-1
 720 1153 l 2,35,36
 720 1163 720 1163 727 1170 c 128,-1,37
 734 1177 734 1177 744 1177 c 2,38,-1
 1191 1177 l 2,39,40
 1201 1177 1201 1177 1208 1170 c 128,-1,41
 1215 1163 1215 1163 1215 1153 c 2,42,-1
 1215 1010 l 2,43,44
 1215 1000 1215 1000 1208 993 c 128,-1,45
 1201 986 1201 986 1191 986 c 2,46,-1
 1063.16 986 l 1,47,-1
 715 439.999 l 1,48,-1
 715 167 l 1,49,-1
 935 167 l 2,50,51
 945 167 945 167 952 160 c 128,-1,52
 959 153 959 153 959 143 c 2,53,-1
 959 0 l 2,54,55
 959 -10 959 -10 952 -17 c 128,-1,56
 945 -24 945 -24 935 -24 c 2,0,-1
EndSplineSet
EndChar

StartChar: Z
Encoding: 90 90 61
Width: 1228
Flags: W
LayerCount: 2
Fore
SplineSet
1084 -24 m 2,0,-1
 146 -24 l 2,1,2
 136 -24 136 -24 129 -17 c 128,-1,3
 122 -10 122 -10 122 0 c 2,4,-1
 122 121 l 2,5,6
 122 129.212 122 129.212 127.03 135.702 c 2,7,-1
 786.035 986 l 1,8,-1
 328 986 l 1,9,-1
 328 709 l 2,10,11
 328 699 328 699 321 692 c 128,-1,12
 314 685 314 685 304 685 c 2,13,-1
 160 685 l 2,14,15
 150 685 150 685 143 692 c 128,-1,16
 136 699 136 699 136 709 c 2,17,-1
 136 1153 l 2,18,19
 136 1163 136 1163 143 1170 c 128,-1,20
 150 1177 150 1177 160 1177 c 2,21,-1
 1036 1177 l 2,22,23
 1046 1177 1046 1177 1053 1170 c 128,-1,24
 1060 1163 1060 1163 1060 1153 c 2,25,-1
 1060 1044 l 2,26,27
 1060 1035.8 1060 1035.8 1054.98 1029.32 c 2,28,-1
 387.909 167 l 1,29,-1
 916 167 l 1,30,-1
 916 478 l 2,31,32
 916 488 916 488 923 495 c 128,-1,33
 930 502 930 502 940 502 c 2,34,-1
 1084 502 l 2,35,36
 1094 502 1094 502 1101 495 c 128,-1,37
 1108 488 1108 488 1108 478 c 2,38,-1
 1108 0 l 2,39,40
 1108 -10 1108 -10 1101 -17 c 128,-1,41
 1094 -24 1094 -24 1084 -24 c 2,0,-1
EndSplineSet
EndChar

StartChar: bracketleft
Encoding: 91 91 62
Width: 1228
Flags: W
LayerCount: 2
Fore
SplineSet
1018 -245 m 2,0,-1
 608 -245 l 2,1,2
 598 -245 598 -245 591 -238 c 128,-1,3
 584 -231 584 -231 584 -221 c 2,4,-1
 584 1367 l 2,5,6
 584 1377 584 1377 591 1384 c 128,-1,7
 598 1391 598 1391 608 1391 c 2,8,-1
 1018 1391 l 2,9,10
 1028 1391 1028 1391 1035 1384 c 128,-1,11
 1042 1377 1042 1377 1042 1367 c 2,12,-1
 1042 1216 l 2,13,14
 1042 1206 1042 1206 1035 1199 c 128,-1,15
 1028 1192 1028 1192 1018 1192 c 2,16,-1
 782 1192 l 1,17,-1
 782 -46 l 1,18,-1
 1018 -46 l 2,19,20
 1028 -46 1028 -46 1035 -53 c 128,-1,21
 1042 -60 1042 -60 1042 -70 c 2,22,-1
 1042 -221 l 2,23,24
 1042 -231 1042 -231 1035 -238 c 128,-1,25
 1028 -245 1028 -245 1018 -245 c 2,0,-1
EndSplineSet
EndChar

StartChar: backslash
Encoding: 92 92 63
Width: 1228
Flags: W
LayerCount: 2
Fore
SplineSet
1090.07 -279.786 m 2,0,-1
 958.068 -340.786 l 2,1,2
 948.777 -345.08 948.777 -345.08 939.249 -340.934 c 128,-1,3
 929.721 -336.789 929.721 -336.789 926.149 -328.927 c 2,4,-1
 136.149 1410.07 l 2,5,6
 131.911 1419.4 131.911 1419.4 136.112 1428.92 c 128,-1,7
 140.312 1438.44 140.312 1438.44 148.345 1441.97 c 2,8,-1
 280.345 1499.97 l 2,9,10
 289.438 1503.97 289.438 1503.97 298.779 1500.05 c 128,-1,11
 308.12 1496.13 308.12 1496.13 311.844 1487.94 c 2,12,-1
 1101.84 -248.059 l 2,13,14
 1105.79 -257.542 1105.79 -257.542 1102.09 -266.743 c 128,-1,15
 1098.38 -275.943 1098.38 -275.943 1090.07 -279.786 c 2,0,-1
EndSplineSet
EndChar

StartChar: bracketright
Encoding: 93 93 64
Width: 1228
Flags: W
LayerCount: 2
Fore
SplineSet
621 -245 m 2,0,-1
 212 -245 l 2,1,2
 202 -245 202 -245 195 -238 c 128,-1,3
 188 -231 188 -231 188 -221 c 2,4,-1
 188 -70 l 2,5,6
 188 -60 188 -60 195 -53 c 128,-1,7
 202 -46 202 -46 212 -46 c 2,8,-1
 448 -46 l 1,9,-1
 448 1192 l 1,10,-1
 212 1192 l 2,11,12
 202 1192 202 1192 195 1199 c 128,-1,13
 188 1206 188 1206 188 1216 c 2,14,-1
 188 1367 l 2,15,16
 188 1377 188 1377 195 1384 c 128,-1,17
 202 1391 202 1391 212 1391 c 2,18,-1
 621 1391 l 2,19,20
 631 1391 631 1391 638 1384 c 128,-1,21
 645 1377 645 1377 645 1367 c 2,22,-1
 645 -221 l 2,23,24
 645 -231 645 -231 638 -238 c 128,-1,25
 631 -245 631 -245 621 -245 c 2,0,-1
EndSplineSet
EndChar

StartChar: asciicircum
Encoding: 94 94 65
Width: 1228
Flags: W
LayerCount: 2
Fore
SplineSet
914.242 276.871 m 0,0,1
 833.258 450.827 833.258 450.827 753.783 619.784 c 0,2,3
 684.641 766.774 684.641 766.774 615.094 917.584 c 1,4,5
 608.667 904.383 608.667 904.383 602.702 891.752 c 0,6,7
 600.587 887.273 600.587 887.273 596.658 883.809 c 1,8,9
 570.272 825.638 570.272 825.638 539.68 761.206 c 0,10,11
 506.583 691.497 506.583 691.497 470.741 614.836 c 2,12,-1
 395.242 453.337 l 2,13,14
 355.842 369.048 355.842 369.048 314.922 277.231 c 0,15,16
 308.579 263 308.579 263 293 263 c 2,17,-1
 109 263 l 2,18,19
 99 263 99 263 92 270 c 128,-1,20
 85 277 85 277 85 287 c 0,21,22
 85 292.324 85 292.324 87.2516 297.149 c 0,23,24
 192.418 522.51 192.418 522.51 294.2 743.536 c 0,25,26
 396.68 966.085 396.68 966.085 501.234 1191.12 c 0,27,28
 507.687 1205 507.687 1205 523 1205 c 2,29,-1
 706 1205 l 2,30,31
 721.347 1205 721.347 1205 727.785 1191.07 c 0,32,33
 831.785 966.064 831.785 966.064 934.29 744.06 c 0,34,35
 1035.97 523.843 1035.97 523.843 1141.75 297.149 c 0,36,37
 1145.89 288.264 1145.89 288.264 1142.46 278.831 c 128,-1,38
 1139.03 269.398 1139.03 269.398 1130.15 265.252 c 0,39,40
 1125.32 263 1125.32 263 1120 263 c 2,41,-1
 936 263 l 2,42,43
 920.7 263 920.7 263 914.242 276.871 c 0,0,1
EndSplineSet
EndChar

StartChar: underscore
Encoding: 95 95 66
Width: 1228
Flags: W
LayerCount: 2
Fore
SplineSet
1355 -307 m 2,0,-1
 -124 -307 l 2,1,2
 -134 -307 -134 -307 -141 -300 c 128,-1,3
 -148 -293 -148 -293 -148 -283 c 2,4,-1
 -148 -134 l 2,5,6
 -148 -124 -148 -124 -141 -117 c 128,-1,7
 -134 -110 -134 -110 -124 -110 c 2,8,-1
 1355 -110 l 2,9,10
 1365 -110 1365 -110 1372 -117 c 128,-1,11
 1379 -124 1379 -124 1379 -134 c 2,12,-1
 1379 -283 l 2,13,14
 1379 -293 1379 -293 1372 -300 c 128,-1,15
 1365 -307 1365 -307 1355 -307 c 2,0,-1
EndSplineSet
EndChar

StartChar: grave
Encoding: 96 96 67
Width: 1228
Flags: W
LayerCount: 2
Fore
SplineSet
632.399 990.762 m 0,0,1
 549.18 1061.95 549.18 1061.95 469.069 1133.05 c 0,2,3
 389.292 1203.86 389.292 1203.86 306.399 1274.76 c 0,4,5
 298.949 1281.14 298.949 1281.14 298.169 1291.14 c 128,-1,6
 297.389 1301.15 297.389 1301.15 303.762 1308.6 c 0,7,8
 310.947 1317 310.947 1317 322 1317 c 2,9,-1
 617 1317 l 2,10,11
 629.745 1317 629.745 1317 636.883 1306.44 c 0,12,13
 685.624 1234.34 685.624 1234.34 732.448 1164.35 c 0,14,15
 779.669 1093.76 779.669 1093.76 827.883 1022.45 c 0,16,17
 833.374 1014.32 833.374 1014.32 831.469 1004.46 c 128,-1,18
 829.564 994.609 829.564 994.609 821.442 989.117 c 0,19,20
 815.351 985 815.351 985 808 985 c 2,21,-1
 648 985 l 2,22,23
 639.135 985 639.135 985 632.399 990.762 c 0,0,1
EndSplineSet
EndChar

StartChar: a
Encoding: 97 97 68
Width: 1228
Flags: W
LayerCount: 2
Fore
SplineSet
797 410.033 m 1,0,1
 688.511 424 688.511 424 581 424 c 0,2,3
 509.114 424 509.114 424 457.696 414.87 c 0,4,5
 406.594 405.795 406.594 405.795 372.361 392.196 c 0,6,7
 339.556 379.163 339.556 379.163 322.082 364.246 c 0,8,9
 304.827 349.516 304.827 349.516 297.918 337.234 c 0,10,11
 297.646 336.751 297.646 336.751 297.352 336.28 c 0,12,13
 288.373 321.913 288.373 321.913 281.119 304.687 c 0,14,15
 275.747 291.928 275.747 291.928 275 286.717 c 2,16,-1
 275 277 l 2,17,18
 275 248.42 275 248.42 288.794 224.483 c 0,19,20
 303.446 199.058 303.446 199.058 326.735 180.944 c 0,21,22
 350.53 162.436 350.53 162.436 382.185 151.736 c 128,-1,23
 413.947 141 413.947 141 448 141 c 0,24,25
 622.326 141 622.326 141 797 313.934 c 1,26,-1
 797 410.033 l 1,0,1
1154 -24 m 2,27,-1
 821 -24 l 2,28,29
 811 -24 811 -24 804 -17 c 128,-1,30
 797 -10 797 -10 797 0 c 2,31,-1
 797 73.2235 l 1,32,33
 623.421 -53 623.421 -53 450 -53 c 0,34,35
 367.544 -53 367.544 -53 298.384 -26.4003 c 128,-1,36
 229.345 0.153165 229.345 0.153165 178.602 45.0205 c 0,37,38
 127.581 90.1343 127.581 90.1343 98.4944 148.846 c 0,39,40
 69.2483 207.88 69.2483 207.88 68.9994 272.607 c 0,41,42
 68.0624 307.643 68.0624 307.643 79.46 346.72 c 128,-1,43
 90.8895 385.907 90.8895 385.907 115.148 424.72 c 128,-1,44
 139.471 463.636 139.471 463.636 178.54 498.424 c 128,-1,45
 217.452 533.073 217.452 533.073 271.85 560.008 c 0,46,47
 325.959 586.799 325.959 586.799 396.294 602.428 c 0,48,49
 466.37 618 466.37 618 555 618 c 0,50,51
 626.106 618 626.106 618 692.205 611.898 c 0,52,53
 743.939 607.123 743.939 607.123 797 599.743 c 1,54,-1
 797 607 l 2,55,56
 797 651.608 797 651.608 786.056 680.499 c 0,57,58
 775.985 707.086 775.985 707.086 753.934 723.926 c 0,59,60
 730.323 741.957 730.323 741.957 692.052 751.749 c 0,61,62
 651.808 762.045 651.808 762.045 593.414 765 c 1,63,64
 511.638 764.87 511.638 764.87 426.659 742.304 c 0,65,66
 339.494 719.157 339.494 719.157 236.802 678.672 c 0,67,68
 228.154 675.263 228.154 675.263 219.296 678.728 c 128,-1,69
 210.439 682.192 210.439 682.192 206.396 690.547 c 0,70,71
 191.224 721.902 191.224 721.902 177.554 752.786 c 0,72,73
 164.106 783.168 164.106 783.168 149.151 816.069 c 0,74,75
 145.053 825.83 145.053 825.83 149.126 835.279 c 128,-1,76
 153.199 844.728 153.199 844.728 162.087 848.283 c 0,77,78
 222.84 872.585 222.84 872.585 279.656 890.849 c 0,79,80
 336.762 909.206 336.762 909.206 390.911 920.954 c 128,-1,81
 444.899 932.668 444.899 932.668 495.375 939.296 c 0,82,83
 546.434 946 546.434 946 596 946 c 0,84,85
 691.502 946 691.502 946 761.865 924.997 c 0,86,87
 833.569 903.594 833.569 903.594 881.844 863.454 c 0,88,89
 930.4 823.081 930.4 823.081 957.669 765.818 c 0,90,91
 984.323 709.846 984.323 709.846 992.809 643.023 c 0,92,93
 993 641.518 993 641.518 993 640 c 2,94,-1
 993 623 l 2,95,96
 993 620.33 993 620.33 993.353 617.15 c 0,97,98
 994 611.328 994 611.328 994 605 c 2,99,-1
 994 167 l 1,100,-1
 1154 167 l 2,101,102
 1164 167 1164 167 1171 160 c 128,-1,103
 1178 153 1178 153 1178 143 c 2,104,-1
 1178 0 l 2,105,106
 1178 -10 1178 -10 1171 -17 c 128,-1,107
 1164 -24 1164 -24 1154 -24 c 2,27,-1
EndSplineSet
EndChar

StartChar: b
Encoding: 98 98 69
Width: 1228
Flags: W
LayerCount: 2
Fore
SplineSet
323 -24 m 2,0,-1
 8 -24 l 2,1,2
 -2 -24 -2 -24 -9 -17 c 128,-1,3
 -16 -10 -16 -10 -16 0 c 2,4,-1
 -16 143 l 2,5,6
 -16 153 -16 153 -9 160 c 128,-1,7
 -2 167 -2 167 8 167 c 2,8,-1
 149 167 l 1,9,-1
 149 1113.51 l 1,10,11
 114.012 1111.42 114.012 1111.42 79.3024 1109.54 c 0,12,13
 33.2908 1107.03 33.2908 1107.03 -16.0212 1105.02 c 0,14,15
 -26.3059 1104.6 -26.3059 1104.6 -33.6529 1112.08 c 128,-1,16
 -41 1119.55 -41 1119.55 -41 1129 c 2,17,-1
 -41 1272 l 2,18,19
 -41 1281.57 -41 1281.57 -34.0952 1288.52 c 128,-1,20
 -27.1903 1295.46 -27.1903 1295.46 -18.3614 1295.96 c 0,21,22
 71.723 1301.08 71.723 1301.08 152.557 1305.96 c 0,23,24
 235.439 1310.95 235.439 1310.95 321.33 1316.94 c 0,25,26
 331.64 1317.66 331.64 1317.66 339.32 1310.4 c 128,-1,27
 347 1303.13 347 1303.13 347 1293 c 2,28,-1
 347 798.599 l 1,29,30
 361.527 811.497 361.527 811.497 376.683 822.762 c 0,31,32
 415.8 851.835 415.8 851.835 460.705 871.91 c 128,-1,33
 505.493 891.933 505.493 891.933 554.454 902.464 c 128,-1,34
 603.445 913 603.445 913 655 913 c 0,35,36
 717.959 913 717.959 913 780.821 897.283 c 128,-1,37
 843.509 881.61 843.509 881.61 900.468 852.347 c 128,-1,38
 957.564 823.013 957.564 823.013 1006.26 780.598 c 0,39,40
 1055.22 737.959 1055.22 737.959 1090.5 684.767 c 128,-1,41
 1125.83 631.498 1125.83 631.498 1146.34 567.863 c 0,42,43
 1167 503.77 1167 503.77 1167 432 c 0,44,45
 1167 337.881 1167 337.881 1128.4 251.69 c 0,46,47
 1090.04 166.026 1090.04 166.026 1022.77 100.329 c 128,-1,48
 955.582 34.7191 955.582 34.7191 864.5 -4.53978 c 0,49,50
 772.951 -44 772.951 -44 666 -44 c 0,51,52
 592.991 -44 592.991 -44 537.076 -29.7574 c 0,53,54
 481.884 -15.699 481.884 -15.699 441.335 3.25882 c 0,55,56
 400.213 22.4849 400.213 22.4849 374.958 42.7989 c 0,57,58
 357.029 57.2204 357.029 57.2204 347 67.9952 c 1,59,-1
 347 0 l 2,60,61
 347 -10 347 -10 340 -17 c 128,-1,62
 333 -24 333 -24 323 -24 c 2,0,-1
764.775 169.151 m 1,63,64
 793.595 182.851 793.595 182.851 821.041 198.808 c 0,65,66
 862.091 222.132 862.091 222.132 893.667 255.1 c 0,67,68
 924.678 287.478 924.678 287.478 943.465 331.01 c 0,69,70
 962 373.959 962 373.959 962 434 c 0,71,72
 962 489.805 962 489.805 939.151 540.069 c 0,73,74
 916.071 590.843 916.071 590.843 875.429 629.639 c 128,-1,75
 834.634 668.582 834.634 668.582 779.203 691.874 c 0,76,77
 724.166 715 724.166 715 661 715 c 0,78,79
 595.728 715 595.728 715 539.101 691.793 c 0,80,81
 482.033 668.404 482.033 668.404 439.673 629.768 c 0,82,83
 397.57 591.366 397.57 591.366 373.084 541.005 c 0,84,85
 349 491.473 349 491.473 349 436 c 0,86,87
 349 377.343 349 377.343 372.733 326.681 c 0,88,89
 396.677 275.572 396.677 275.572 439.077 237.32 c 0,90,91
 481.881 198.702 481.881 198.702 539.382 175.796 c 0,92,93
 596.606 153 596.606 153 663 153 c 0,94,95
 718.017 153 718.017 153 764.775 169.151 c 1,63,64
EndSplineSet
EndChar

StartChar: c
Encoding: 99 99 70
Width: 1228
Flags: W
LayerCount: 2
Fore
SplineSet
1140.23 259.927 m 1,0,1
 1158.98 232.327 1158.98 232.327 1179.44 204.076 c 0,2,3
 1185.02 195.964 1185.02 195.964 1183.53 186.434 c 128,-1,4
 1182.05 176.905 1182.05 176.905 1174.99 171.259 c 0,5,6
 1144.44 146.814 1144.44 146.814 1119.87 129.415 c 0,7,8
 1095.56 112.195 1095.56 112.195 1071.71 96.4655 c 128,-1,9
 1047.7 80.6276 1047.7 80.6276 1020.62 64.7835 c 0,10,11
 999.073 52.1817 999.073 52.1817 970.466 36.5284 c 0,12,13
 967.774 34.8311 967.774 34.8311 963.953 32.9756 c 0,14,15
 960.592 31.1465 960.592 31.1465 956.412 28.8871 c 2,16,-1
 956.655 29.0202 l 2,17,18
 881.771 -12.5828 881.771 -12.5828 796.552 -32.8489 c 0,19,20
 711.817 -53 711.817 -53 627.115 -53 c 0,21,22
 518.921 -54.0401 518.921 -54.0401 421.866 -19.0798 c 0,23,24
 324.587 15.9614 324.587 15.9614 251.668 79.9623 c 0,25,26
 178.393 144.276 178.393 144.276 135.764 235.323 c 0,27,28
 93 326.662 93 326.662 93 438 c 2,29,-1
 93 440 l 2,30,31
 93 498.006 93 498.006 108.241 557.917 c 128,-1,32
 123.515 617.958 123.515 617.958 154.039 672.69 c 128,-1,33
 184.504 727.315 184.504 727.315 230.062 775.49 c 0,34,35
 275.934 823.997 275.934 823.997 336.418 859.237 c 0,36,37
 396.659 894.335 396.659 894.335 471.726 914.665 c 128,-1,38
 546.809 935 546.809 935 635 935 c 0,39,40
 682.008 935 682.008 935 725.492 927.666 c 128,-1,41
 769.003 920.327 769.003 920.327 809.442 906.148 c 128,-1,42
 849.758 892.012 849.758 892.012 886.45 872.092 c 0,43,44
 904.681 862.195 904.681 862.195 922.562 850.817 c 1,45,46
 923.291 854.955 923.291 854.955 923.874 858.219 c 0,47,48
 926.46 872.701 926.46 872.701 929.572 886.706 c 0,49,50
 932.218 898.615 932.218 898.615 933.083 908.993 c 128,-1,51
 933.939 919.261 933.939 919.261 942.271 925.655 c 128,-1,52
 950.604 932.048 950.604 932.048 960.131 930.795 c 0,53,54
 997.8 925.839 997.8 925.839 1031.92 922.379 c 0,55,56
 1066.47 918.872 1066.47 918.872 1104.51 914.868 c 0,57,58
 1114.8 913.785 1114.8 913.785 1121.13 905.293 c 128,-1,59
 1127.46 896.8 1127.46 896.8 1125.61 886.672 c 0,60,61
 1114.78 827.624 1114.78 827.624 1109.88 779.564 c 0,62,63
 1105 731.803 1105 731.803 1105 699 c 0,64,65
 1105 660.154 1105 660.154 1105.5 618.789 c 0,66,67
 1105.98 578.566 1105.98 578.566 1111.83 529.859 c 0,68,69
 1112.98 520.278 1112.98 520.278 1106.95 512.459 c 128,-1,70
 1100.91 504.641 1100.91 504.641 1091.49 503.255 c 0,71,72
 1057.47 498.251 1057.47 498.251 1022.94 493.248 c 128,-1,73
 988.467 488.252 988.467 488.252 954.492 483.255 c 0,74,75
 945.902 481.992 945.902 481.992 938.401 486.863 c 128,-1,76
 930.899 491.735 930.899 491.735 928.332 499.116 c 0,77,78
 919.822 523.584 919.822 523.584 915.009 546.583 c 0,79,80
 910.757 566.901 910.757 566.901 905.866 589.436 c 1,81,82
 893.065 625.209 893.065 625.209 872.374 652.501 c 128,-1,83
 851.608 679.894 851.608 679.894 821.973 698.029 c 0,84,85
 791.664 716.576 791.664 716.576 750.301 726.686 c 0,86,87
 707.892 737.052 707.892 737.052 653.788 738 c 0,88,89
 641.501 738 641.501 738 629.999 737.521 c 128,-1,90
 618.415 737.038 618.415 737.038 605.818 736.069 c 0,91,92
 531.265 730.406 531.265 730.406 474.305 703.325 c 128,-1,93
 417.233 676.191 417.233 676.191 378.266 635.83 c 0,94,95
 339.575 595.755 339.575 595.755 319.826 545.693 c 128,-1,96
 300 495.437 300 495.437 300 444 c 0,97,98
 300 387.413 300 387.413 319.931 335.036 c 0,99,100
 339.678 283.141 339.678 283.141 379.756 241.681 c 128,-1,101
 419.879 200.173 419.879 200.173 479.913 174.577 c 0,102,103
 540.169 148.887 540.169 148.887 622.028 146.983 c 0,104,105
 637.397 146.022 637.397 146.022 653.294 146.49 c 128,-1,106
 669.157 146.956 669.157 146.956 683.89 148.798 c 0,107,108
 725.782 154.511 725.782 154.511 768.87 167.917 c 0,109,110
 812.307 181.431 812.307 181.431 858.814 203.231 c 0,111,112
 905.784 225.249 905.784 225.249 957.297 255.666 c 0,113,114
 1009.12 286.263 1009.12 286.263 1067.53 325.865 c 0,115,116
 1075.64 331.251 1075.64 331.251 1085.28 329.479 c 128,-1,117
 1094.91 327.708 1094.91 327.708 1100.44 320.076 c 0,118,119
 1121.72 290.69 1121.72 290.69 1140.23 259.927 c 1,0,1
EndSplineSet
EndChar

StartChar: d
Encoding: 100 100 71
Width: 1228
Flags: W
LayerCount: 2
Fore
SplineSet
1218 -24 m 2,0,-1
 892 -24 l 2,1,2
 882 -24 882 -24 875 -17 c 128,-1,3
 868 -10 868 -10 868 0 c 2,4,-1
 868 64.9782 l 1,5,6
 853.977 52.8087 853.977 52.8087 839.857 42.2675 c 0,7,8
 802.261 14.2025 802.261 14.2025 758.871 -5.37612 c 128,-1,9
 715.292 -25.04 715.292 -25.04 665.514 -34.5717 c 0,10,11
 616.276 -44 616.276 -44 562 -44 c 0,12,13
 459.377 -44 459.377 -44 367.587 -7.28344 c 128,-1,14
 275.921 29.3831 275.921 29.3831 206.639 93.9414 c 128,-1,15
 137.204 158.641 137.204 158.641 96.7282 245.901 c 0,16,17
 56 333.705 56 333.705 56 434 c 0,18,19
 56 531.169 56 531.169 95.6287 618.882 c 0,20,21
 135.033 706.098 135.033 706.098 202.868 771.303 c 128,-1,22
 270.587 836.396 270.587 836.396 361.715 874.631 c 0,23,24
 453.161 913 453.161 913 558 913 c 0,25,26
 607.86 913 607.86 913 658.147 900.826 c 0,27,28
 707.862 888.791 707.862 888.791 753.931 867.849 c 128,-1,29
 800 846.907 800 846.907 839.351 819.1 c 0,30,31
 854.122 808.662 854.122 808.662 868 797.261 c 1,32,-1
 868 1103.24 l 1,33,34
 797.038 1098.29 797.038 1098.29 727.97 1094.05 c 0,35,36
 645.939 1089.01 645.939 1089.01 563.729 1083.06 c 0,37,38
 553.821 1082.35 553.821 1082.35 546.328 1089.17 c 128,-1,39
 538.834 1096 538.834 1096 538.083 1105.01 c 0,40,41
 535.059 1141.28 535.059 1141.28 533.041 1175.59 c 0,42,43
 531.04 1209.61 531.04 1209.61 529.039 1244.63 c 0,44,45
 528.489 1254.25 528.489 1254.25 534.996 1261.66 c 128,-1,46
 541.503 1269.07 541.503 1269.07 550.862 1269.9 c 0,47,48
 673.893 1280.91 673.893 1280.91 794.925 1291.41 c 0,49,50
 915.322 1301.85 915.322 1301.85 1039.69 1313.89 c 0,51,52
 1050.48 1314.93 1050.48 1314.93 1058.24 1307.19 c 128,-1,53
 1066 1299.44 1066 1299.44 1066 1290 c 2,54,-1
 1066 167 l 1,55,-1
 1218 167 l 2,56,57
 1228 167 1228 167 1235 160 c 128,-1,58
 1242 153 1242 153 1242 143 c 2,59,-1
 1242 0 l 2,60,61
 1242 -10 1242 -10 1235 -17 c 128,-1,62
 1228 -24 1228 -24 1218 -24 c 2,0,-1
655.55 166.503 m 1,63,64
 686.561 179.734 686.561 179.734 716.607 196.124 c 0,65,66
 758.557 218.498 758.557 218.498 791.029 250.971 c 0,67,68
 823.09 283.032 823.09 283.032 843.81 326.774 c 0,69,70
 864 369.396 864 369.396 864 430 c 0,71,72
 864 479.38 864 479.38 843.717 530.087 c 128,-1,73
 823.384 580.916 823.384 580.916 784.948 622.131 c 128,-1,74
 746.683 663.163 746.683 663.163 689.988 689.188 c 0,75,76
 633.757 715 633.757 715 562 715 c 0,77,78
 500.51 715 500.51 715 445.717 693.639 c 128,-1,79
 390.854 672.251 390.854 672.251 350.144 635.241 c 0,80,81
 309.797 598.562 309.797 598.562 286.342 547.054 c 0,82,83
 263 495.794 263 495.794 263 436 c 0,84,85
 263 374.114 263 374.114 285.915 322.784 c 128,-1,86
 308.899 271.299 308.899 271.299 349.762 233.65 c 0,87,88
 390.96 195.693 390.96 195.693 445.282 174.336 c 128,-1,89
 499.548 153 499.548 153 562 153 c 0,90,91
 610.59 153 610.59 153 655.55 166.503 c 1,63,64
EndSplineSet
EndChar

StartChar: e
Encoding: 101 101 72
Width: 1228
Flags: W
LayerCount: 2
Fore
SplineSet
937.879 556 m 1,0,1
 930.397 580.915 930.397 580.915 916.95 605.472 c 0,2,3
 896.275 643.228 896.275 643.228 858.563 673.215 c 0,4,5
 820.257 703.674 820.257 703.674 765.123 722.829 c 128,-1,6
 709.947 742 709.947 742 637 742 c 0,7,8
 556.412 742 556.412 742 497.544 719.572 c 0,9,10
 438.367 697.027 438.367 697.027 399.493 664.17 c 128,-1,11
 360.674 631.36 360.674 631.36 339.259 594.455 c 0,12,13
 327.673 574.489 327.673 574.489 320.316 556 c 1,14,-1
 937.879 556 l 1,0,1
1129 365 m 2,15,-1
 313.342 365 l 1,16,17
 320.256 338.464 320.256 338.464 332.535 310.01 c 0,18,19
 351.156 266.863 351.156 266.863 389.765 229.174 c 128,-1,20
 428.325 191.532 428.325 191.532 491.857 166.306 c 0,21,22
 555.59 141 555.59 141 651 141 c 0,23,24
 738.172 141 738.172 141 846.033 176.309 c 0,25,26
 955.877 212.267 955.877 212.267 1101.33 284.495 c 0,27,28
 1110.76 288.712 1110.76 288.712 1120 285.331 c 128,-1,29
 1129.24 281.949 1129.24 281.949 1133.34 273.991 c 0,30,31
 1150.27 241.123 1150.27 241.123 1167.19 209.26 c 128,-1,32
 1184.13 177.38 1184.13 177.38 1202.07 144.492 c 0,33,34
 1206.67 135.27 1206.67 135.27 1203.64 125.87 c 128,-1,35
 1200.61 116.471 1200.61 116.471 1192.72 112.054 c 0,36,37
 1132.74 78.5079 1132.74 78.5079 1065.23 48.5617 c 128,-1,38
 997.572 18.5461 997.572 18.5461 927.839 -3.85042 c 128,-1,39
 857.916 -26.3078 857.916 -26.3078 787.444 -39.5851 c 0,40,41
 716.241 -53 716.241 -53 649 -53 c 0,42,43
 524.803 -53 524.803 -53 423.854 -16.5754 c 0,44,45
 322.313 20.0632 322.313 20.0632 250.759 85.8299 c 0,46,47
 178.98 151.803 178.98 151.803 139.954 242.515 c 128,-1,48
 101 333.058 101 333.058 101 440 c 0,49,50
 101 534.621 101 534.621 136.717 623.913 c 0,51,52
 172.547 713.489 172.547 713.489 241.529 782.471 c 128,-1,53
 310.345 851.284 310.345 851.284 409.145 893.102 c 128,-1,54
 508.137 935 508.137 935 634 935 c 0,55,56
 752.464 935 752.464 935 847.615 898.4 c 128,-1,57
 942.755 861.805 942.755 861.805 1010.55 800.846 c 0,58,59
 1078.66 739.596 1078.66 739.596 1115.72 660.705 c 0,60,61
 1153 581.349 1153 581.349 1153 498 c 2,62,-1
 1153 389 l 2,63,64
 1153 379 1153 379 1146 372 c 128,-1,65
 1139 365 1139 365 1129 365 c 2,15,-1
EndSplineSet
EndChar

StartChar: f
Encoding: 102 102 73
Width: 1228
Flags: W
LayerCount: 2
Fore
SplineSet
976 -24 m 2,0,-1
 172 -24 l 2,1,2
 162 -24 162 -24 155 -17 c 128,-1,3
 148 -10 148 -10 148 0 c 2,4,-1
 148 143 l 2,5,6
 148 153 148 153 155 160 c 128,-1,7
 162 167 162 167 172 167 c 2,8,-1
 364 167 l 1,9,-1
 364 688 l 1,10,-1
 172 688 l 2,11,12
 162 688 162 688 155 695 c 128,-1,13
 148 702 148 702 148 712 c 2,14,-1
 148 856 l 2,15,16
 148 866 148 866 155 873 c 128,-1,17
 162 880 162 880 172 880 c 2,18,-1
 364 880 l 1,19,-1
 364 940 l 2,20,21
 364 964.283 364 964.283 364.507 986.058 c 128,-1,22
 365.015 1007.93 365.015 1007.93 367.079 1028.98 c 0,23,24
 369.31 1061.14 369.31 1061.14 376.167 1089.62 c 0,25,26
 383.212 1118.88 383.212 1118.88 395.182 1145 c 0,27,28
 407.471 1171.81 407.471 1171.81 427.425 1196.2 c 128,-1,29
 447.28 1220.46 447.28 1220.46 475.219 1239.65 c 0,30,31
 519.072 1271.18 519.072 1271.18 578.79 1287.18 c 0,32,33
 637.829 1303 637.829 1303 712 1303 c 0,34,35
 761.794 1303 761.794 1303 808.079 1299.95 c 0,36,37
 854.12 1296.91 854.12 1296.91 899.18 1291.85 c 0,38,39
 943.974 1286.82 943.974 1286.82 987.779 1280.77 c 0,40,41
 1031.32 1274.77 1031.32 1274.77 1076.69 1267.71 c 0,42,43
 1086.38 1266.21 1086.38 1266.21 1092.3 1258.1 c 128,-1,44
 1098.22 1250 1098.22 1250 1096.71 1240.31 c 0,45,46
 1096.22 1237.13 1096.22 1237.13 1094.91 1234.2 c 0,47,48
 1078.03 1196.46 1078.03 1196.46 1063.15 1160.77 c 128,-1,49
 1048.2 1124.88 1048.2 1124.88 1033.24 1087.98 c 0,50,51
 1029.97 1079.9 1029.97 1079.9 1021.95 1075.89 c 128,-1,52
 1013.92 1071.88 1013.92 1071.88 1006.12 1073.5 c 0,53,54
 929.797 1089.36 929.797 1089.36 859.489 1099.76 c 0,55,56
 790.369 1109.98 790.369 1109.98 717.667 1112 c 1,57,58
 670.383 1111.91 670.383 1111.91 638.921 1104.62 c 0,59,60
 609.876 1097.89 609.876 1097.89 592.198 1083.43 c 0,61,62
 575.465 1069.74 575.465 1069.74 568.185 1048.66 c 0,63,64
 560 1024.97 560 1024.97 560 990 c 2,65,-1
 560 880 l 1,66,-1
 976 880 l 2,67,68
 986 880 986 880 993 873 c 128,-1,69
 1000 866 1000 866 1000 856 c 2,70,-1
 1000 712 l 2,71,72
 1000 702 1000 702 993 695 c 128,-1,73
 986 688 986 688 976 688 c 2,74,-1
 560 688 l 1,75,-1
 560 167 l 1,76,-1
 976 167 l 2,77,78
 986 167 986 167 993 160 c 128,-1,79
 1000 153 1000 153 1000 143 c 2,80,-1
 1000 0 l 2,81,82
 1000 -10 1000 -10 993 -17 c 128,-1,83
 986 -24 986 -24 976 -24 c 2,0,-1
EndSplineSet
EndChar

StartChar: g
Encoding: 103 103 74
Width: 1228
Flags: W
LayerCount: 2
Fore
SplineSet
736.682 269.601 m 1,0,1
 775.404 304.636 775.404 304.636 797.867 351.392 c 0,2,3
 820 397.464 820 397.464 820 452 c 0,4,5
 820 508.579 820 508.579 797.331 556.182 c 0,6,7
 774.337 604.468 774.337 604.468 735.783 639.808 c 128,-1,8
 697.109 675.258 697.109 675.258 645.831 695.121 c 128,-1,9
 594.509 715 594.509 715 539 715 c 0,10,11
 426.06 715 426.06 715 339.007 642.63 c 0,12,13
 337.286 641.199 337.286 641.199 335.561 639.729 c 0,14,15
 251 567.898 251 567.898 251 457 c 0,16,17
 251 403.225 251 403.225 272.827 355.478 c 0,18,19
 294.838 307.331 294.838 307.331 333.331 271.587 c 128,-1,20
 371.948 235.728 371.948 235.728 424.642 215.39 c 128,-1,21
 477.471 195 477.471 195 539 195 c 0,22,23
 597.575 195 597.575 195 648.332 214.38 c 0,24,25
 699.868 234.627 699.868 234.627 736.682 269.601 c 1,0,1
1018 76 m 2,26,27
 1018 -25.1437 1018 -25.1437 990.112 -103.543 c 0,28,29
 961.467 -184.072 961.467 -184.072 897.606 -238.733 c 0,30,31
 834.491 -292.757 834.491 -292.757 734.753 -319.671 c 0,32,33
 637.185 -346 637.185 -346 497 -346 c 2,34,-1
 343 -346 l 2,35,36
 333 -346 333 -346 326 -339 c 128,-1,37
 319 -332 319 -332 319 -322 c 2,38,-1
 319 -178 l 2,39,40
 319 -168 319 -168 326 -161 c 128,-1,41
 333 -154 333 -154 343 -154 c 2,42,-1
 453.782 -154 l 2,43,44
 508.317 -153.009 508.317 -153.009 560.586 -151.017 c 0,45,46
 611.248 -149.087 611.248 -149.087 655.939 -140.437 c 0,47,48
 699.401 -132.025 699.401 -132.025 734.114 -115.363 c 0,49,50
 765.53 -100.285 765.53 -100.285 785.024 -72.6872 c 1,51,52
 803.553 -43.2693 803.553 -43.2693 811.545 -6.41342 c 0,53,54
 820 32.5773 820 32.5773 820 88 c 2,55,-1
 820 95.544 l 1,56,57
 815.243 91.7947 815.243 91.7947 811.364 88.5627 c 0,58,59
 804.899 83.1751 804.899 83.1751 798.402 78.3 c 0,60,61
 791.679 73.2594 791.679 73.2594 783.688 68.6107 c 0,62,63
 734.926 35.9472 734.926 35.9472 670.584 16.0694 c 0,64,65
 605.623 -4 605.623 -4 535 -4 c 0,66,67
 467.094 -4 467.094 -4 405.272 11.1935 c 128,-1,68
 343.419 26.3947 343.419 26.3947 285.216 60.0891 c 1,69,70
 227.363 91.7966 227.363 91.7966 182.943 134.126 c 0,71,72
 138.078 176.879 138.078 176.879 107.401 228.183 c 128,-1,73
 76.7797 279.396 76.7797 279.396 60.4155 336.935 c 128,-1,74
 44 394.653 44 394.653 44 456 c 0,75,76
 44 546.239 44 546.239 82.1846 629.505 c 0,77,78
 120.127 712.241 120.127 712.241 186.521 774.948 c 0,79,80
 252.636 837.392 252.636 837.392 341.093 875.08 c 0,81,82
 430.095 913 430.095 913 534 913 c 0,83,84
 547.291 913 547.291 913 577.893 912.495 c 0,85,86
 610.939 911.954 610.939 911.954 654.417 901.881 c 0,87,88
 698.243 891.727 698.243 891.727 748.323 866.421 c 0,89,90
 784.378 848.202 784.378 848.202 820 817.387 c 1,91,-1
 820 881 l 2,92,93
 820 891 820 891 827 898 c 128,-1,94
 834 905 834 905 844 905 c 2,95,-1
 1162 905 l 2,96,97
 1172 905 1172 905 1179 898 c 128,-1,98
 1186 891 1186 891 1186 881 c 2,99,-1
 1186 737 l 2,100,101
 1186 727 1186 727 1179 720 c 128,-1,102
 1172 713 1172 713 1162 713 c 2,103,-1
 1018 713 l 1,104,-1
 1018 76 l 2,26,27
EndSplineSet
EndChar

StartChar: h
Encoding: 104 104 75
Width: 1228
Flags: W
LayerCount: 2
Fore
SplineSet
1206 -24 m 2,0,-1
 706 -24 l 2,1,2
 696 -24 696 -24 689 -17 c 128,-1,3
 682 -10 682 -10 682 0 c 2,4,-1
 682 143 l 2,5,6
 682 153 682 153 689 160 c 128,-1,7
 696 167 696 167 706 167 c 2,8,-1
 858 167 l 1,9,-1
 858 557 l 2,10,11
 858 594.554 858 594.554 847.97 628.745 c 0,12,13
 838.271 661.808 838.271 661.808 819.128 686.172 c 0,14,15
 800.407 710 800.407 710 772.635 724.1 c 0,16,17
 745.257 738 745.257 738 707 738 c 0,18,19
 573.649 738 573.649 738 396 608.852 c 1,20,-1
 396 167 l 1,21,-1
 536 167 l 2,22,23
 546 167 546 167 553 160 c 128,-1,24
 560 153 560 153 560 143 c 2,25,-1
 560 0 l 2,26,27
 560 -10 560 -10 553 -17 c 128,-1,28
 546 -24 546 -24 536 -24 c 2,29,-1
 50 -24 l 2,30,31
 40 -24 40 -24 33 -17 c 128,-1,32
 26 -10 26 -10 26 0 c 2,33,-1
 26 143 l 2,34,35
 26 153 26 153 33 160 c 128,-1,36
 40 167 40 167 50 167 c 2,37,-1
 199 167 l 1,38,-1
 199 1111.39 l 1,39,40
 165.209 1108.07 165.209 1108.07 131.264 1105.56 c 0,41,42
 84.0933 1102.09 84.0933 1102.09 34.3881 1097.12 c 0,43,44
 24.1821 1096.1 24.1821 1096.1 16.4909 1103.13 c 128,-1,45
 8.79975 1110.17 8.79975 1110.17 8.0785 1119.06 c 0,46,47
 5.08265 1156.01 5.08265 1156.01 2.08768 1190.95 c 128,-1,48
 -0.917346 1226.01 -0.917346 1226.01 -3.9215 1263.06 c 0,49,50
 -4.74949 1273.27 -4.74949 1273.27 2.42685 1280.81 c 128,-1,51
 9.60319 1288.34 9.60319 1288.34 18.3487 1288.94 c 0,52,53
 76.4088 1292.95 76.4088 1292.95 131.476 1296.45 c 0,54,55
 185.925 1299.91 185.925 1299.91 239.681 1305.89 c 0,56,57
 263.797 1307.9 263.797 1307.9 288.064 1310.38 c 0,58,59
 312.78 1312.9 312.78 1312.9 337.007 1314.92 c 0,60,61
 338.001 1315 338.001 1315 339 1315 c 2,62,-1
 354 1315 l 2,63,64
 358.39 1315 358.39 1315 361.906 1315.31 c 1,65,66
 381.599 1324.37 381.599 1324.37 392.969 1307.31 c 0,67,68
 397 1301.27 397 1301.27 397 1294 c 0,69,70
 397 1230.9 397 1230.9 396.499 1169.3 c 128,-1,71
 396.001 1107.9 396.001 1107.9 396 1046 c 2,72,-1
 396 829.648 l 1,73,74
 407.411 837.013 407.411 837.013 417.275 843.527 c 0,75,76
 444.906 861.775 444.906 861.775 475.622 877.393 c 0,77,78
 506.584 893.137 506.584 893.137 542.615 905.668 c 128,-1,79
 578.729 918.228 578.729 918.228 626.823 927.638 c 0,80,81
 646.819 930.795 646.819 930.795 665.35 932.853 c 0,82,83
 684.659 934.998 684.659 934.998 704 935.003 c 0,84,85
 778.624 935 778.624 935 842.913 909.283 c 0,86,87
 907.489 883.453 907.489 883.453 954.971 835.971 c 128,-1,88
 1002.46 788.481 1002.46 788.481 1029.28 721.413 c 0,89,90
 1056 654.613 1056 654.613 1056 572 c 2,91,-1
 1056 167 l 1,92,-1
 1206 167 l 2,93,94
 1216 167 1216 167 1223 160 c 128,-1,95
 1230 153 1230 153 1230 143 c 2,96,-1
 1230 0 l 2,97,98
 1230 -10 1230 -10 1223 -17 c 128,-1,99
 1216 -24 1216 -24 1206 -24 c 2,0,-1
EndSplineSet
EndChar

StartChar: i
Encoding: 105 105 76
Width: 1228
Flags: W
LayerCount: 2
Fore
SplineSet
693 1027 m 2,0,-1
 498 1027 l 2,1,2
 488 1027 488 1027 481 1034 c 128,-1,3
 474 1041 474 1041 474 1051 c 2,4,-1
 474 1343 l 2,5,6
 474 1353 474 1353 481 1360 c 128,-1,7
 488 1367 488 1367 498 1367 c 2,8,-1
 693 1367 l 2,9,10
 703 1367 703 1367 710 1360 c 128,-1,11
 717 1353 717 1353 717 1343 c 2,12,-1
 717 1051 l 2,13,14
 717 1041 717 1041 710 1034 c 128,-1,15
 703 1027 703 1027 693 1027 c 2,0,-1
1051 -24 m 2,16,-1
 180 -24 l 2,17,18
 170 -24 170 -24 163 -17 c 128,-1,19
 156 -10 156 -10 156 0 c 2,20,-1
 156 143 l 2,21,22
 156 153 156 153 163 160 c 128,-1,23
 170 167 170 167 180 167 c 2,24,-1
 519 167 l 1,25,-1
 519 713 l 1,26,-1
 240 713 l 2,27,28
 230 713 230 713 223 720 c 128,-1,29
 216 727 216 727 216 737 c 2,30,-1
 216 881 l 2,31,32
 216 891 216 891 223 898 c 128,-1,33
 230 905 230 905 240 905 c 2,34,-1
 693 905 l 2,35,36
 703 905 703 905 710 898 c 128,-1,37
 717 891 717 891 717 881 c 2,38,-1
 717 167 l 1,39,-1
 1051 167 l 2,40,41
 1061 167 1061 167 1068 160 c 128,-1,42
 1075 153 1075 153 1075 143 c 2,43,-1
 1075 0 l 2,44,45
 1075 -10 1075 -10 1068 -17 c 128,-1,46
 1061 -24 1061 -24 1051 -24 c 2,16,-1
EndSplineSet
EndChar

StartChar: j
Encoding: 106 106 77
Width: 1228
Flags: W
LayerCount: 2
Fore
SplineSet
783 1027 m 2,0,-1
 588 1027 l 2,1,2
 578 1027 578 1027 571 1034 c 128,-1,3
 564 1041 564 1041 564 1051 c 2,4,-1
 564 1343 l 2,5,6
 564 1353 564 1353 571 1360 c 128,-1,7
 578 1367 578 1367 588 1367 c 2,8,-1
 783 1367 l 2,9,10
 793 1367 793 1367 800 1360 c 128,-1,11
 807 1353 807 1353 807 1343 c 2,12,-1
 807 1051 l 2,13,14
 807 1041 807 1041 800 1034 c 128,-1,15
 793 1027 793 1027 783 1027 c 2,0,-1
849 106 m 2,16,17
 849 59.7037 849 59.7037 843.862 11.9341 c 0,18,19
 838.581 -37.1771 838.581 -37.1771 822.743 -84.1661 c 0,20,21
 806.642 -131.936 806.642 -131.936 776.662 -174.763 c 0,22,23
 746.103 -218.416 746.103 -218.416 696.412 -251.902 c 0,24,25
 647.485 -284.875 647.485 -284.875 578.119 -306.42 c 0,26,27
 509.292 -327.798 509.292 -327.798 416.331 -332.963 c 0,28,29
 415.666 -333 415.666 -333 415 -333 c 0,30,31
 353.175 -333 353.175 -333 276.363 -321.223 c 0,32,33
 201.09 -309.682 201.09 -309.682 103.857 -292.64 c 0,34,35
 93.7289 -290.865 93.7289 -290.865 88.1655 -282.003 c 128,-1,36
 82.6021 -273.141 82.6021 -273.141 84.5148 -264.056 c 0,37,38
 92.5573 -225.854 92.5573 -225.854 100.603 -190.652 c 0,39,40
 108.709 -155.192 108.709 -155.192 118.831 -117.738 c 0,41,42
 121.325 -108.513 121.325 -108.513 129.792 -103.63 c 128,-1,43
 138.259 -98.7477 138.259 -98.7477 146.783 -100.482 c 0,44,45
 205.19 -112.361 205.19 -112.361 260.602 -120.772 c 0,46,47
 315.359 -129.083 315.359 -129.083 371.853 -134.071 c 0,48,49
 386.688 -135.043 386.688 -135.043 400.8 -135.513 c 0,50,51
 414.601 -135.973 414.601 -135.973 428.404 -135.053 c 0,52,53
 429.053 -135.01 429.053 -135.01 429.704 -135.002 c 0,54,55
 505.562 -134.065 505.562 -134.065 549.4 -113.729 c 0,56,57
 591.916 -94.0056 591.916 -94.0056 614.193 -61.4476 c 0,58,59
 637.033 -28.0669 637.033 -28.0669 643.741 18.8941 c 0,60,61
 651 69.7069 651 69.7069 651 130 c 2,62,-1
 651 713 l 1,63,-1
 148 713 l 2,64,65
 138 713 138 713 131 720 c 128,-1,66
 124 727 124 727 124 737 c 2,67,-1
 124 881 l 2,68,69
 124 891 124 891 131 898 c 128,-1,70
 138 905 138 905 148 905 c 2,71,-1
 825 905 l 2,72,73
 835 905 835 905 842 898 c 128,-1,74
 849 891 849 891 849 881 c 2,75,-1
 849 106 l 2,16,17
EndSplineSet
EndChar

StartChar: k
Encoding: 107 107 78
Width: 1228
Flags: W
LayerCount: 2
Fore
SplineSet
1181 -24 m 2,0,-1
 704 -24 l 2,1,2
 694 -24 694 -24 687 -17 c 128,-1,3
 680 -10 680 -10 680 0 c 2,4,-1
 680 143 l 2,5,6
 680 153 680 153 687 160 c 128,-1,7
 694 167 694 167 704 167 c 2,8,-1
 752.721 167 l 1,9,10
 708.419 213.796 708.419 213.796 656.474 266.086 c 0,11,12
 587.091 335.928 587.091 335.928 498.603 420.212 c 1,13,14
 481.655 406.789 481.655 406.789 465.208 394.035 c 0,15,16
 445.34 378.627 445.34 378.627 424.992 363.103 c 1,17,18
 424.936 320.927 424.936 320.927 424.499 280.242 c 0,19,20
 424 233.872 424 233.872 424 187 c 2,21,-1
 424 0 l 2,22,23
 424 -10 424 -10 417 -17 c 128,-1,24
 410 -24 410 -24 400 -24 c 2,25,-1
 78 -24 l 2,26,27
 68 -24 68 -24 61 -17 c 128,-1,28
 54 -10 54 -10 54 0 c 2,29,-1
 54 143 l 2,30,31
 54 153 54 153 61 160 c 128,-1,32
 68 167 68 167 78 167 c 2,33,-1
 226 167 l 1,34,-1
 226 1109.44 l 1,35,36
 191.231 1106.09 191.231 1106.09 156.227 1103.56 c 0,37,38
 108.069 1100.08 108.069 1100.08 58.3881 1095.12 c 0,39,40
 48.1821 1094.1 48.1821 1094.1 40.4909 1101.13 c 128,-1,41
 32.7997 1108.17 32.7997 1108.17 32.0785 1117.06 c 0,42,43
 29.0826 1154.01 29.0826 1154.01 26.0877 1188.95 c 128,-1,44
 23.0826 1224.01 23.0826 1224.01 20.0785 1261.06 c 0,45,46
 19.2487 1271.29 19.2487 1271.29 26.4252 1278.88 c 128,-1,47
 33.6017 1286.46 33.6017 1286.46 42.6687 1286.96 c 2,48,-1
 60.6687 1287.96 l 1,49,-1
 62 1288 l 1,50,51
 103.306 1288 103.306 1288 147.642 1294.26 c 0,52,53
 194.505 1300.89 194.505 1300.89 238.404 1303.95 c 0,54,55
 316.896 1308.91 316.896 1308.91 397.35 1317.85 c 0,56,57
 408.141 1319.05 408.141 1319.05 416.07 1311.41 c 128,-1,58
 424 1303.78 424 1303.78 424 1294 c 2,59,-1
 424 531.214 l 1,60,61
 485.861 579.616 485.861 579.616 547.636 628.343 c 0,62,63
 601.223 670.613 601.223 670.613 655.781 713 c 1,64,-1
 623 713 l 2,65,66
 613 713 613 713 606 720 c 128,-1,67
 599 727 599 727 599 737 c 2,68,-1
 599 881 l 2,69,70
 599 891 599 891 606 898 c 128,-1,71
 613 905 613 905 623 905 c 2,72,-1
 1103 905 l 2,73,74
 1113 905 1113 905 1120 898 c 128,-1,75
 1127 891 1127 891 1127 881 c 2,76,-1
 1127 737 l 2,77,78
 1127 727 1127 727 1120 720 c 128,-1,79
 1113 713 1113 713 1103 713 c 2,80,-1
 885.508 713 l 1,81,82
 819.465 659.5 819.465 659.5 753.791 608.1 c 0,83,84
 696.234 563.052 696.234 563.052 638.162 516.904 c 1,85,86
 684.791 474.961 684.791 474.961 730.753 432.659 c 0,87,88
 787.349 380.57 787.349 380.57 839.459 331.467 c 128,-1,89
 891.612 282.324 891.612 282.324 936.374 238.066 c 0,90,91
 976.2 198.69 976.2 198.69 1006.33 167 c 1,92,-1
 1181 167 l 2,93,94
 1191 167 1191 167 1198 160 c 128,-1,95
 1205 153 1205 153 1205 143 c 2,96,-1
 1205 0 l 2,97,98
 1205 -10 1205 -10 1198 -17 c 128,-1,99
 1191 -24 1191 -24 1181 -24 c 2,0,-1
EndSplineSet
EndChar

StartChar: l
Encoding: 108 108 79
Width: 1228
Flags: W
LayerCount: 2
Fore
SplineSet
1048 -24 m 2,0,-1
 179 -24 l 2,1,2
 169 -24 169 -24 162 -17 c 128,-1,3
 155 -10 155 -10 155 0 c 2,4,-1
 155 143 l 2,5,6
 155 153 155 153 162 160 c 128,-1,7
 169 167 169 167 179 167 c 2,8,-1
 515 167 l 1,9,-1
 515 1081.14 l 1,10,-1
 206.791 1058.07 l 2,11,12
 197.191 1057.35 197.191 1057.35 189.687 1063.72 c 128,-1,13
 182.182 1070.1 182.182 1070.1 181.149 1079.33 c 2,14,-1
 165.149 1222.33 l 2,15,16
 164.003 1232.57 164.003 1232.57 170.942 1240.47 c 128,-1,17
 177.881 1248.36 177.881 1248.36 187.515 1248.95 c 2,18,-1
 687.515 1279.95 l 2,19,20
 697.819 1280.59 697.819 1280.59 705.41 1273.27 c 128,-1,21
 713 1265.95 713 1265.95 713 1256 c 2,22,-1
 713 167 l 1,23,-1
 1048 167 l 2,24,25
 1058 167 1058 167 1065 160 c 128,-1,26
 1072 153 1072 153 1072 143 c 2,27,-1
 1072 0 l 2,28,29
 1072 -10 1072 -10 1065 -17 c 128,-1,30
 1058 -24 1058 -24 1048 -24 c 2,0,-1
EndSplineSet
EndChar

StartChar: m
Encoding: 109 109 80
Width: 1228
Flags: W
LayerCount: 2
Fore
SplineSet
1255 -24 m 2,0,-1
 988 -24 l 2,1,2
 978 -24 978 -24 971 -17 c 128,-1,3
 964 -10 964 -10 964 0 c 2,4,-1
 964 589 l 2,5,6
 964 625.427 964 625.427 960.204 654.379 c 0,7,8
 956.787 680.439 956.787 680.439 946.93 698.508 c 0,9,10
 938.033 714.818 938.033 714.818 922.082 724.462 c 128,-1,11
 906.002 734.185 906.002 734.185 876.294 736.973 c 1,12,13
 798.398 734.467 798.398 734.467 723 633.162 c 1,14,-1
 723 167 l 1,15,-1
 828 167 l 2,16,17
 838 167 838 167 845 160 c 128,-1,18
 852 153 852 153 852 143 c 2,19,-1
 852 0 l 2,20,21
 852 -10 852 -10 845 -17 c 128,-1,22
 838 -24 838 -24 828 -24 c 2,23,-1
 549 -24 l 2,24,25
 539 -24 539 -24 532 -17 c 128,-1,26
 525 -10 525 -10 525 0 c 2,27,-1
 525 539 l 2,28,29
 525 589.297 525 589.297 523.04 623.111 c 0,30,31
 521.192 654.995 521.192 654.995 515.405 675.473 c 0,32,33
 510.251 693.709 510.251 693.709 500.373 705.866 c 128,-1,34
 490.502 718.016 490.502 718.016 471.898 727.722 c 0,35,36
 471.145 728.115 471.145 728.115 470.422 728.56 c 0,37,38
 460.699 734.544 460.699 734.544 453.941 736.153 c 0,39,40
 446.878 737.834 446.878 737.834 436.099 737.998 c 1,41,42
 397.192 734.079 397.192 734.079 355.865 711.861 c 0,43,44
 317.355 691.158 317.355 691.158 288 652.179 c 1,45,-1
 288 167 l 1,46,-1
 405 167 l 2,47,48
 415 167 415 167 422 160 c 128,-1,49
 429 153 429 153 429 143 c 2,50,-1
 429 0 l 2,51,52
 429 -10 429 -10 422 -17 c 128,-1,53
 415 -24 415 -24 405 -24 c 2,54,-1
 -26 -24 l 2,55,56
 -36 -24 -36 -24 -43 -17 c 128,-1,57
 -50 -10 -50 -10 -50 0 c 2,58,-1
 -50 143 l 2,59,60
 -50 153 -50 153 -43 160 c 128,-1,61
 -36 167 -36 167 -26 167 c 2,62,-1
 90 167 l 1,63,-1
 90 713 l 1,64,-1
 -26 713 l 2,65,66
 -36 713 -36 713 -43 720 c 128,-1,67
 -50 727 -50 727 -50 737 c 2,68,-1
 -50 881 l 2,69,70
 -50 891 -50 891 -43 898 c 128,-1,71
 -36 905 -36 905 -26 905 c 2,72,-1
 257 905 l 2,73,74
 267 905 267 905 274 898 c 128,-1,75
 281 891 281 891 281 881 c 2,76,-1
 281 878.755 l 1,77,78
 303.703 892.552 303.703 892.552 328.276 903.442 c 0,79,80
 376.923 925 376.923 925 428 925 c 0,81,82
 461.632 925 461.632 925 495.706 917.428 c 0,83,84
 530.089 909.788 530.089 909.788 560.733 894.466 c 128,-1,85
 591.377 879.145 591.377 879.145 618.119 856.222 c 0,86,87
 634.294 842.358 634.294 842.358 648.362 824.838 c 1,88,89
 756.542 925 756.542 925 875 925 c 0,90,91
 923.418 925 923.418 925 969.544 907.428 c 0,92,93
 1015 890.112 1015 890.112 1051.39 861.323 c 128,-1,94
 1087.83 832.5 1087.83 832.5 1113.43 794.378 c 0,95,96
 1139.31 755.834 1139.31 755.834 1149.32 714.672 c 0,97,98
 1149.5 713.951 1149.5 713.951 1149.63 713.219 c 0,99,100
 1154.87 683.868 1154.87 683.868 1157.45 641.979 c 0,101,102
 1160 600.762 1160 600.762 1160 548 c 2,103,-1
 1160 167 l 1,104,-1
 1255 167 l 2,105,106
 1265 167 1265 167 1272 160 c 128,-1,107
 1279 153 1279 153 1279 143 c 2,108,-1
 1279 0 l 2,109,110
 1279 -10 1279 -10 1272 -17 c 128,-1,111
 1265 -24 1265 -24 1255 -24 c 2,0,-1
EndSplineSet
EndChar

StartChar: n
Encoding: 110 110 81
Width: 1228
Flags: W
LayerCount: 2
Fore
SplineSet
1188 -24 m 2,0,-1
 695 -24 l 2,1,2
 685 -24 685 -24 678 -17 c 128,-1,3
 671 -10 671 -10 671 0 c 2,4,-1
 671 143 l 2,5,6
 671 153 671 153 678 160 c 128,-1,7
 685 167 685 167 695 167 c 2,8,-1
 849 167 l 1,9,-1
 849 557 l 2,10,11
 849 595.208 849 595.208 838.171 628.596 c 0,12,13
 827.528 661.407 827.528 661.407 807.792 685.967 c 0,14,15
 788.575 709.88 788.575 709.88 760.267 724.034 c 0,16,17
 732.334 738 732.334 738 695 738 c 0,18,19
 659.125 738 659.125 738 620.649 727.801 c 0,20,21
 581.074 717.311 581.074 717.311 540.892 699.133 c 0,22,23
 500.255 680.75 500.255 680.75 459.025 655.527 c 0,24,25
 422.487 633.175 422.487 633.175 385 607.428 c 1,26,-1
 385 167 l 1,27,-1
 535 167 l 2,28,29
 545 167 545 167 552 160 c 128,-1,30
 559 153 559 153 559 143 c 2,31,-1
 559 0 l 2,32,33
 559 -10 559 -10 552 -17 c 128,-1,34
 545 -24 545 -24 535 -24 c 2,35,-1
 43 -24 l 2,36,37
 33 -24 33 -24 26 -17 c 128,-1,38
 19 -10 19 -10 19 0 c 2,39,-1
 19 143 l 2,40,41
 19 153 19 153 26 160 c 128,-1,42
 33 167 33 167 43 167 c 2,43,-1
 189 167 l 1,44,-1
 189 713 l 1,45,-1
 43 713 l 2,46,47
 33 713 33 713 26 720 c 128,-1,48
 19 727 19 727 19 737 c 2,49,-1
 19 881 l 2,50,51
 19 891 19 891 26 898 c 128,-1,52
 33 905 33 905 43 905 c 2,53,-1
 361 905 l 2,54,55
 371 905 371 905 378 898 c 128,-1,56
 385 891 385 891 385 881 c 2,57,-1
 385 829.128 l 1,58,59
 402.184 839.647 402.184 839.647 419.694 850.105 c 0,60,61
 456.809 872.271 456.809 872.271 494.98 889.808 c 0,62,63
 533.48 907.496 533.48 907.496 573.048 919.471 c 0,64,65
 613.833 931.814 613.833 931.814 654.739 933.967 c 1,66,-1
 656 934 l 2,67,68
 663.335 934 663.335 934 671.669 934.463 c 0,69,70
 681.332 935 681.332 935 691 935 c 0,71,72
 766.584 935 766.584 935 831.35 909.309 c 0,73,74
 896.46 883.481 896.46 883.481 944.471 835.471 c 128,-1,75
 992.396 787.545 992.396 787.545 1019.72 720.566 c 128,-1,76
 1047 653.704 1047 653.704 1047 572 c 2,77,-1
 1047 167 l 1,78,-1
 1188 167 l 2,79,80
 1198 167 1198 167 1205 160 c 128,-1,81
 1212 153 1212 153 1212 143 c 2,82,-1
 1212 0 l 2,83,84
 1212 -10 1212 -10 1205 -17 c 128,-1,85
 1198 -24 1198 -24 1188 -24 c 2,0,-1
EndSplineSet
EndChar

StartChar: o
Encoding: 111 111 82
Width: 1228
Flags: W
LayerCount: 2
Fore
SplineSet
872.234 231.096 m 0,0,1
 918.373 270.775 918.373 270.775 943.682 326 c 128,-1,2
 969 381.241 969 381.241 969 446 c 0,3,4
 969 503.178 969 503.178 946.363 557.229 c 128,-1,5
 923.79 611.127 923.79 611.127 879.394 653.672 c 128,-1,6
 834.882 696.329 834.882 696.329 767.885 722.1 c 0,7,8
 700.549 748 700.549 748 612 748 c 0,9,10
 525.471 748 525.471 748 459.637 722.608 c 0,11,12
 394.131 697.342 394.131 697.342 350.102 655.168 c 128,-1,13
 306.238 613.153 306.238 613.153 283.665 558.796 c 0,14,15
 261 504.218 261 504.218 261 446 c 0,16,17
 261 383.054 261 383.054 284.962 328.678 c 128,-1,18
 308.93 274.288 308.93 274.288 353.217 233.692 c 0,19,20
 397.721 192.897 397.721 192.897 462.767 169.031 c 0,21,22
 528.265 145 528.265 145 612 145 c 0,23,24
 691.133 145 691.133 145 758.459 167.284 c 0,25,26
 824.803 189.244 824.803 189.244 872.234 231.096 c 0,0,1
1078.22 156.629 m 0,27,28
 1031.91 94.5236 1031.91 94.5236 963.192 46.7891 c 128,-1,29
 894.421 -0.983614 894.421 -0.983614 806.696 -26.0472 c 0,30,31
 761.104 -39.5172 761.104 -39.5172 713.358 -46.2639 c 128,-1,32
 665.687 -53 665.687 -53 616 -53 c 2,33,-1
 610 -53 l 2,34,35
 485.64 -53 485.64 -53 383.061 -14.4672 c 0,36,37
 280.182 24.178 280.182 24.178 207.242 91.3453 c 0,38,39
 133.983 158.807 133.983 158.807 94.4602 250.5 c 128,-1,40
 55 342.048 55 342.048 55 446 c 0,41,42
 55 541.657 55 541.657 91.2436 631.481 c 0,43,44
 127.608 721.602 127.608 721.602 198.657 791.597 c 128,-1,45
 269.569 861.456 269.569 861.456 373.991 903.745 c 128,-1,46
 478.33 946 478.33 946 614 946 c 0,47,48
 735.187 946 735.187 946 837.637 909.078 c 0,49,50
 940.562 871.986 940.562 871.986 1015.07 804.83 c 128,-1,51
 1089.76 737.501 1089.76 737.501 1131.83 645.478 c 0,52,53
 1174 553.227 1174 553.227 1174 446 c 0,54,55
 1174 367.163 1174 367.163 1149.8 293.508 c 128,-1,56
 1125.57 219.767 1125.57 219.767 1078.22 156.629 c 0,27,28
EndSplineSet
EndChar

StartChar: p
Encoding: 112 112 83
Width: 1228
Flags: W
LayerCount: 2
Fore
SplineSet
856.069 223.791 m 0,0,1
 890.515 250.789 890.515 250.789 915.523 285.523 c 128,-1,2
 940.436 320.126 940.436 320.126 954.782 362.239 c 0,3,4
 969 403.978 969 403.978 969 451 c 0,5,6
 969 485.012 969 485.012 960.235 519.606 c 128,-1,7
 951.474 554.185 951.474 554.185 934.419 585.529 c 128,-1,8
 917.421 616.767 917.421 616.767 892.085 643.486 c 128,-1,9
 866.826 670.123 866.826 670.123 833.111 690.445 c 128,-1,10
 799.357 710.791 799.357 710.791 758.441 722.414 c 128,-1,11
 717.655 734 717.655 734 669 734 c 0,12,13
 598.467 734 598.467 734 539.139 711.109 c 128,-1,14
 479.778 688.205 479.778 688.205 437.077 649.68 c 128,-1,15
 394.575 611.336 394.575 611.336 370.121 560.583 c 0,16,17
 346 510.519 346 510.519 346 454 c 0,18,19
 346 390.313 346 390.313 370.758 337.129 c 0,20,21
 395.705 283.538 395.705 283.538 439.097 244.301 c 0,22,23
 482.82 204.765 482.82 204.765 541.699 181.868 c 128,-1,24
 600.503 159 600.503 159 668 159 c 0,25,26
 698.624 159 698.624 159 726.293 164.534 c 128,-1,27
 754.132 170.102 754.132 170.102 782.218 181.336 c 0,28,29
 822.86 197.038 822.86 197.038 856.069 223.791 c 0,0,1
637 -346 m 2,30,-1
 11 -346 l 2,31,32
 1 -346 1 -346 -6 -339 c 128,-1,33
 -13 -332 -13 -332 -13 -322 c 2,34,-1
 -13 -178 l 2,35,36
 -13 -168 -13 -168 -6 -161 c 128,-1,37
 1 -154 1 -154 11 -154 c 2,38,-1
 156 -154 l 1,39,-1
 156 713 l 1,40,-1
 11 713 l 2,41,42
 1 713 1 713 -6 720 c 128,-1,43
 -13 727 -13 727 -13 737 c 2,44,-1
 -13 881 l 2,45,46
 -13 891 -13 891 -6 898 c 128,-1,47
 1 905 1 905 11 905 c 2,48,-1
 330 905 l 2,49,50
 340 905 340 905 347 898 c 128,-1,51
 354 891 354 891 354 881 c 2,52,-1
 354 822.302 l 1,53,54
 369.366 835.089 369.366 835.089 385.687 845.969 c 0,55,56
 426.598 873.242 426.598 873.242 472.698 892.624 c 0,57,58
 519.044 912.109 519.044 912.109 569.032 921.58 c 0,59,60
 618.749 931 618.749 931 667 931 c 0,61,62
 776.838 931 776.838 931 869.302 892.124 c 0,63,64
 961.458 853.377 961.458 853.377 1029.2 787.736 c 128,-1,65
 1097.07 721.971 1097.07 721.971 1135.47 634.661 c 0,66,67
 1174 547.051 1174 547.051 1174 450 c 0,68,69
 1174 398.225 1174 398.225 1162.37 348.531 c 0,70,71
 1150.83 299.241 1150.83 299.241 1130.36 254.088 c 0,72,73
 1109.79 208.734 1109.79 208.734 1080.23 169.141 c 128,-1,74
 1050.75 129.654 1050.75 129.654 1014.88 98.0039 c 0,75,76
 943.828 35.3101 943.828 35.3101 854.047 -1.22956 c 0,77,78
 763.699 -38 763.699 -38 671 -38 c 0,79,80
 642.133 -38 642.133 -38 598.786 -31.2109 c 0,81,82
 555.079 -24.3654 555.079 -24.3654 506.474 -7.11827 c 128,-1,83
 457.764 10.1664 457.764 10.1664 407.747 39.8635 c 0,84,85
 380.249 56.1906 380.249 56.1906 354 78.1093 c 1,86,-1
 354 -154 l 1,87,-1
 637 -154 l 2,88,89
 647 -154 647 -154 654 -161 c 128,-1,90
 661 -168 661 -168 661 -178 c 2,91,-1
 661 -322 l 2,92,93
 661 -332 661 -332 654 -339 c 128,-1,94
 647 -346 647 -346 637 -346 c 2,30,-1
EndSplineSet
EndChar

StartChar: q
Encoding: 113 113 84
Width: 1228
Flags: W
LayerCount: 2
Fore
SplineSet
647.665 171.149 m 0,0,1
 692.564 183.309 692.564 183.309 735.897 206.738 c 1,2,3
 765.884 225.577 765.884 225.577 793.153 250.026 c 0,4,5
 819.851 273.042 819.851 273.042 840.031 303.313 c 128,-1,6
 860.096 333.413 860.096 333.413 871.567 370.578 c 128,-1,7
 883 407.619 883 407.619 883 454 c 0,8,9
 883 510.428 883 510.428 858.456 560.424 c 0,10,11
 833.519 611.22 833.519 611.22 790.519 649.594 c 0,12,13
 747.298 688.166 747.298 688.166 687.42 711.086 c 128,-1,14
 627.559 734 627.559 734 560 734 c 0,15,16
 484.113 734 484.113 734 428.281 709.083 c 0,17,18
 372.173 684.044 372.173 684.044 334.971 644.545 c 128,-1,19
 297.821 605.102 297.821 605.102 279.013 554.184 c 0,20,21
 260 502.711 260 502.711 260 450 c 0,22,23
 260 389.174 260 389.174 283.868 336.388 c 0,24,25
 307.947 283.136 307.947 283.136 349.076 243.856 c 128,-1,26
 390.34 204.447 390.34 204.447 445.204 181.665 c 0,27,28
 499.786 159 499.786 159 562 159 c 0,29,30
 603.742 159 603.742 159 647.665 171.149 c 0,0,1
1217 -346 m 2,31,-1
 590 -346 l 2,32,33
 580 -346 580 -346 573 -339 c 128,-1,34
 566 -332 566 -332 566 -322 c 2,35,-1
 566 -178 l 2,36,37
 566 -168 566 -168 573 -161 c 128,-1,38
 580 -154 580 -154 590 -154 c 2,39,-1
 875 -154 l 1,40,-1
 875 81.1411 l 1,41,42
 857.244 65.3123 857.244 65.3123 840.312 52.7341 c 0,43,44
 803.387 25.3041 803.387 25.3041 767.219 8.28435 c 128,-1,45
 731.132 -8.69731 731.132 -8.69731 695.403 -17.7629 c 0,46,47
 661.041 -26.4814 661.041 -26.4814 625.911 -32.6807 c 0,48,49
 613.179 -34.6395 613.179 -34.6395 606.207 -36.0339 c 0,50,51
 596.376 -38 596.376 -38 587 -38 c 2,52,-1
 579 -38 l 2,53,54
 559.274 -38 559.274 -38 542.048 -36.956 c 0,55,56
 525.614 -35.9601 525.614 -35.9601 507.669 -34.963 c 0,57,58
 507.007 -34.9263 507.007 -34.9263 506.35 -34.8532 c 0,59,60
 421.448 -25.4198 421.448 -25.4198 340.389 12.2337 c 0,61,62
 259.129 49.9805 259.129 49.9805 195.671 112.389 c 128,-1,63
 132.032 174.975 132.032 174.975 93.1931 259.477 c 0,64,65
 54 344.75 54 344.75 54 448 c 0,66,67
 54 534.584 54 534.584 88.1885 620.843 c 128,-1,68
 122.375 707.097 122.375 707.097 187.004 775.928 c 128,-1,69
 251.764 844.9 251.764 844.9 346.596 887.861 c 0,70,71
 441.819 931 441.819 931 562 931 c 0,72,73
 611.341 931 611.341 931 659.157 921.546 c 128,-1,74
 707.147 912.052 707.147 912.052 752.485 892.546 c 128,-1,75
 797.627 873.125 797.627 873.125 839.043 844.814 c 0,76,77
 857.211 832.394 857.211 832.394 875 817.767 c 1,78,-1
 875 881 l 2,79,80
 875 891 875 891 882 898 c 128,-1,81
 889 905 889 905 899 905 c 2,82,-1
 1217 905 l 2,83,84
 1227 905 1227 905 1234 898 c 128,-1,85
 1241 891 1241 891 1241 881 c 2,86,-1
 1241 737 l 2,87,88
 1241 727 1241 727 1234 720 c 128,-1,89
 1227 713 1227 713 1217 713 c 2,90,-1
 1072 713 l 1,91,-1
 1072 -154 l 1,92,-1
 1217 -154 l 2,93,94
 1227 -154 1227 -154 1234 -161 c 128,-1,95
 1241 -168 1241 -168 1241 -178 c 2,96,-1
 1241 -322 l 2,97,98
 1241 -332 1241 -332 1234 -339 c 128,-1,99
 1227 -346 1227 -346 1217 -346 c 2,31,-1
EndSplineSet
EndChar

StartChar: r
Encoding: 114 114 85
Width: 1228
Flags: W
LayerCount: 2
Fore
SplineSet
926 -24 m 2,0,-1
 128 -24 l 2,1,2
 118 -24 118 -24 111 -17 c 128,-1,3
 104 -10 104 -10 104 0 c 2,4,-1
 104 143 l 2,5,6
 104 153 104 153 111 160 c 128,-1,7
 118 167 118 167 128 167 c 2,8,-1
 360 167 l 1,9,-1
 360 713 l 1,10,-1
 144 713 l 2,11,12
 134 713 134 713 127 720 c 128,-1,13
 120 727 120 727 120 737 c 2,14,-1
 120 881 l 2,15,16
 120 891 120 891 127 898 c 128,-1,17
 134 905 134 905 144 905 c 2,18,-1
 533 905 l 2,19,20
 543 905 543 905 550 898 c 128,-1,21
 557 891 557 891 557 881 c 2,22,-1
 557 761.254 l 1,23,24
 560.634 764.4 560.634 764.4 563.752 767.111 c 0,25,26
 575.31 777.162 575.31 777.162 585.881 786.222 c 0,27,28
 596.754 795.542 596.754 795.542 606.629 803.337 c 128,-1,29
 616.37 811.027 616.37 811.027 626.6 818.7 c 128,-1,30
 637.028 826.521 637.028 826.521 648.479 834.329 c 128,-1,31
 659.741 842.007 659.741 842.007 674.167 851.282 c 0,32,33
 729.59 885.791 729.59 885.791 791.123 907.171 c 0,34,35
 853.293 928.771 853.293 928.771 927.65 932.962 c 1,36,-1
 929 933 l 2,37,38
 953.004 933 953.004 933 977.996 930.917 c 0,39,40
 978.647 930.863 978.647 930.863 979.302 930.772 c 0,41,42
 1056.14 920.099 1056.14 920.099 1112.85 886.08 c 0,43,44
 1168.67 852.592 1168.67 852.592 1220.2 792.645 c 0,45,46
 1227.21 783.966 1227.21 783.966 1225.44 773.286 c 128,-1,47
 1223.67 762.605 1223.67 762.605 1215.31 757.031 c 0,48,49
 1176.62 731.237 1176.62 731.237 1140.87 705.915 c 0,50,51
 1104.52 680.17 1104.52 680.17 1066.19 654.95 c 0,52,53
 1058.62 650.12 1058.62 650.12 1049.75 651.356 c 128,-1,54
 1040.88 652.593 1040.88 652.593 1035.16 658.945 c 0,55,56
 1024.92 670.329 1024.92 670.329 1016.4 683.39 c 0,57,58
 1009.46 694.029 1009.46 694.029 1001.1 704.709 c 0,59,60
 993.368 714.588 993.368 714.588 984.398 722.703 c 0,61,62
 977.436 729.002 977.436 729.002 967.928 732.398 c 0,63,64
 967.389 732.591 967.389 732.591 966.862 732.808 c 0,65,66
 953.301 738.391 953.301 738.391 939.007 739.583 c 0,67,68
 922.859 740.929 922.859 740.929 902.225 740.999 c 1,69,70
 847.43 735.137 847.43 735.137 799.305 713.594 c 0,71,72
 748.929 691.044 748.929 691.044 706.823 661.38 c 0,73,74
 664.228 631.372 664.228 631.372 630.464 599.538 c 0,75,76
 595.889 566.938 595.889 566.938 572.143 542.202 c 0,77,78
 569.623 539.682 569.623 539.682 567.222 536.881 c 0,79,80
 563.464 532.497 563.464 532.497 559.133 529.068 c 2,81,-1
 557 526.721 l 1,82,-1
 557 167 l 1,83,-1
 926 167 l 2,84,85
 936 167 936 167 943 160 c 128,-1,86
 950 153 950 153 950 143 c 2,87,-1
 950 0 l 2,88,89
 950 -10 950 -10 943 -17 c 128,-1,90
 936 -24 936 -24 926 -24 c 2,0,-1
EndSplineSet
EndChar

StartChar: s
Encoding: 115 115 86
Width: 1228
Flags: W
LayerCount: 2
Fore
SplineSet
144.153 -24.2902 m 0,0,1
 149.198 20.1004 149.198 20.1004 154.754 57.9827 c 0,2,3
 160 93.7514 160 93.7514 160 132 c 0,4,5
 160 168.326 160 168.326 157.038 221.156 c 0,6,7
 154.063 274.204 154.063 274.204 147.104 348.77 c 0,8,9
 146.214 358.302 146.214 358.302 152.444 365.854 c 128,-1,10
 158.673 373.406 158.673 373.406 167.405 374.729 c 0,11,12
 201.278 379.862 201.278 379.862 234.659 382.429 c 0,13,14
 266.048 384.844 266.048 384.844 299.945 390.655 c 0,15,16
 309.454 392.285 309.454 392.285 317.563 386.653 c 128,-1,17
 325.671 381.022 325.671 381.022 327.534 371.707 c 0,18,19
 332.504 346.856 332.504 346.856 338.468 319.029 c 0,20,21
 343.962 293.389 343.962 293.389 354.997 268.099 c 0,22,23
 365.725 243.512 365.725 243.512 383.741 220.993 c 0,24,25
 400.944 199.489 400.944 199.489 430.574 182.242 c 0,26,27
 461 164.531 461 164.531 506.037 153.853 c 0,28,29
 551.807 143 551.807 143 618 143 c 0,30,31
 640.198 143 640.198 143 669.404 144.947 c 0,32,33
 697.944 146.849 697.944 146.849 728.009 152.576 c 0,34,35
 757.645 158.221 757.645 158.221 786.358 168.577 c 0,36,37
 813.633 178.414 813.633 178.414 834.86 193.892 c 0,38,39
 854.958 208.547 854.958 208.547 866.958 228.411 c 0,40,41
 878 246.688 878 246.688 878 274 c 0,42,43
 878 291.155 878 291.155 869.24 301.425 c 0,44,45
 858.207 314.361 858.207 314.361 841.069 322.151 c 0,46,47
 821.494 331.049 821.494 331.049 800.105 335.504 c 0,48,49
 777.218 340.272 777.218 340.272 760.555 342.124 c 0,50,51
 729.346 345.05 729.346 345.05 696.91 346.525 c 0,52,53
 664.273 348.008 664.273 348.008 631.636 348.503 c 0,54,55
 598.267 349.008 598.267 349.008 565.876 350.526 c 0,56,57
 532.52 352.09 532.52 352.09 500.344 357.28 c 0,58,59
 430.834 367.503 430.834 367.503 369.728 385.475 c 0,60,61
 306.663 404.024 306.663 404.024 259.084 436.1 c 0,62,63
 210.094 469.127 210.094 469.127 181.338 517.79 c 0,64,65
 152 567.438 152 567.438 152 639 c 0,66,67
 152 700.471 152 700.471 183.754 755.067 c 0,68,69
 214.844 808.521 214.844 808.521 270.032 848.017 c 0,70,71
 324.342 886.884 324.342 886.884 399.737 909.027 c 0,72,73
 474.549 931 474.549 931 565 931 c 0,74,75
 606.587 931 606.587 931 645.672 925.789 c 128,-1,76
 684.747 920.58 684.747 920.58 721.287 910.662 c 0,77,78
 758.151 900.656 758.151 900.656 791.906 885.36 c 0,79,80
 817.8 873.627 817.8 873.627 841.412 858.989 c 1,81,82
 842.01 861.851 842.01 861.851 842.437 864.061 c 0,83,84
 845.439 879.572 845.439 879.572 848.941 897.581 c 0,85,86
 852.331 915.013 852.331 915.013 854.24 928.394 c 0,87,88
 855.694 938.563 855.694 938.563 864.37 944.381 c 128,-1,89
 873.047 950.199 873.047 950.199 882.055 948.655 c 2,90,-1
 952.055 936.655 l 2,91,92
 986.727 930.712 986.727 930.712 1021.39 925.759 c 0,93,94
 1031.58 924.303 1031.58 924.303 1037.44 915.617 c 128,-1,95
 1043.31 906.93 1043.31 906.93 1041.61 897.664 c 0,96,97
 1032.72 849.287 1032.72 849.287 1026.78 805.293 c 0,98,99
 1021 762.404 1021 762.404 1021 729 c 0,100,101
 1021 698.6 1021 698.6 1022.97 658.169 c 0,102,103
 1024.93 618.02 1024.93 618.02 1031.84 558.781 c 0,104,105
 1032.96 549.194 1032.96 549.194 1026.9 541.392 c 128,-1,106
 1020.84 533.591 1020.84 533.591 1011.39 532.241 c 0,107,108
 975.802 527.157 975.802 527.157 942.706 524.102 c 0,109,110
 910.52 521.131 910.52 521.131 876.804 517.164 c 0,111,112
 868.169 516.149 868.169 516.149 860.805 521.239 c 128,-1,113
 853.44 526.329 853.44 526.329 851.092 533.841 c 0,114,115
 845.623 551.343 845.623 551.343 841.355 575.888 c 0,116,117
 837.74 596.674 837.74 596.674 829.528 618.573 c 0,118,119
 821.838 639.08 821.838 639.08 805.642 659.655 c 0,120,121
 789.997 679.53 789.997 679.53 761.988 695.722 c 0,122,123
 733.132 712.405 733.132 712.405 686.171 723.099 c 0,124,125
 638.303 734 638.303 734 567 734 c 0,126,127
 513.72 734 513.72 734 472.877 724.61 c 0,128,129
 432.869 715.412 432.869 715.412 406.483 700.206 c 0,130,131
 381.452 685.78 381.452 685.78 368.968 668.465 c 0,132,133
 358 653.251 358 653.251 358 637 c 0,134,135
 358 606.802 358 606.802 376.138 588.302 c 0,136,137
 397.412 566.603 397.412 566.603 432.427 553.472 c 0,138,139
 469.816 539.451 469.816 539.451 517.564 533.304 c 0,140,141
 567.204 526.913 567.204 526.913 617.896 523.959 c 0,142,143
 668.921 520.986 668.921 520.986 716.005 519.995 c 0,144,145
 764.39 518.976 764.39 518.976 800.098 513.803 c 1,146,147
 846.38 508.445 846.38 508.445 894.419 493.981 c 0,148,149
 944.589 478.875 944.589 478.875 985.728 450.186 c 0,150,151
 1027.96 420.735 1027.96 420.735 1055.1 375.311 c 0,152,153
 1083 328.622 1083 328.622 1083 262 c 0,154,155
 1083 205.147 1083 205.147 1063.61 159.175 c 0,156,157
 1044.41 113.623 1044.41 113.623 1010.37 77.9349 c 0,158,159
 977.085 43.042 977.085 43.042 933.735 17.353 c 0,160,161
 890.924 -8.01679 890.924 -8.01679 841.868 -23.841 c 0,162,163
 793.535 -39.4322 793.535 -39.4322 742.631 -47.2237 c 128,-1,164
 691.827 -55 691.827 -55 643 -55 c 2,165,-1
 640 -55 l 2,166,167
 600.703 -55 600.703 -55 557.913 -50.3601 c 0,168,169
 514.777 -45.6829 514.777 -45.6829 473.179 -35.2833 c 0,170,171
 431.159 -24.7785 431.159 -24.7785 393.253 -7.93148 c 0,172,173
 363.32 5.37189 363.32 5.37189 338.913 23.1221 c 1,174,175
 337.914 18.8645 337.914 18.8645 337.068 14.4677 c 0,176,177
 334.637 1.82377 334.637 1.82377 332.699 -10.2918 c 128,-1,178
 330.763 -22.388 330.763 -22.388 329.815 -29.9768 c 0,179,180
 328.682 -39.0409 328.682 -39.0409 321.464 -45.0204 c 128,-1,181
 314.247 -51 314.247 -51 306 -51 c 2,182,-1
 168 -51 l 2,183,184
 157.14 -51 157.14 -51 150.091 -42.5315 c 128,-1,185
 143.043 -34.063 143.043 -34.063 144.153 -24.2902 c 0,0,1
EndSplineSet
EndChar

StartChar: t
Encoding: 116 116 87
Width: 1228
Flags: W
LayerCount: 2
Fore
SplineSet
978 684 m 2,0,-1
 504 684 l 1,1,-1
 504 327 l 2,2,3
 504 290.193 504 290.193 506.381 266.388 c 0,4,5
 508.689 243.312 508.689 243.312 512.19 230.184 c 0,6,7
 515.488 217.817 515.488 217.817 518.711 211.729 c 0,8,9
 521.522 206.419 521.522 206.419 523.971 203.971 c 0,10,11
 526.06 201.881 526.06 201.881 527.58 199.348 c 0,12,13
 534.935 187.088 534.935 187.088 545.635 176.8 c 0,14,15
 555.709 167.113 555.709 167.113 570.52 160.308 c 0,16,17
 586.214 153.098 586.214 153.098 608.671 149.135 c 0,18,19
 632.102 145 632.102 145 662 145 c 2,20,-1
 687 145 l 2,21,22
 692.078 145 692.078 145 697.659 145.429 c 0,23,24
 702.142 145.774 702.142 145.774 708.179 147.283 c 0,25,26
 710.206 147.79 710.206 147.79 712.29 147.939 c 0,27,28
 779.379 152.731 779.379 152.731 866.102 180.831 c 0,29,30
 954.859 209.591 954.859 209.591 1074.09 257.283 c 0,31,32
 1083.6 261.091 1083.6 261.091 1092.93 256.461 c 128,-1,33
 1102.26 251.831 1102.26 251.831 1105.42 243.571 c 0,34,35
 1118.31 209.846 1118.31 209.846 1132.14 176.754 c 0,36,37
 1146.28 142.925 1146.28 142.925 1159.41 108.571 c 0,38,39
 1163.11 98.9131 1163.11 98.9131 1158.4 89.4325 c 128,-1,40
 1153.7 79.9519 1153.7 79.9519 1143.9 77.0122 c 0,41,42
 1136.23 74.7132 1136.23 74.7132 1131.88 72.3687 c 0,43,44
 1124.46 68.3759 1124.46 68.3759 1115.1 64.7812 c 0,45,46
 849.709 -53 849.709 -53 681 -53 c 0,47,48
 601.77 -53 601.77 -53 536.654 -35.1457 c 0,49,50
 470.125 -16.9042 470.125 -16.9042 421.398 20.4534 c 0,51,52
 372.165 58.1985 372.165 58.1985 343.203 113.934 c 0,53,54
 314.654 168.877 314.654 168.877 309.146 241.148 c 1,55,56
 306.041 260.221 306.041 260.221 305.51 278.815 c 0,57,58
 305 296.654 305 296.654 305 317 c 2,59,-1
 305 684 l 1,60,-1
 188 684 l 2,61,62
 178 684 178 684 171 691 c 128,-1,63
 164 698 164 698 164 708 c 2,64,-1
 164 852 l 2,65,66
 164 862 164 862 171 869 c 128,-1,67
 178 876 178 876 188 876 c 2,68,-1
 305 876 l 1,69,-1
 305 1153 l 2,70,71
 305 1163 305 1163 312 1170 c 128,-1,72
 319 1177 319 1177 329 1177 c 2,73,-1
 480 1177 l 2,74,75
 490 1177 490 1177 497 1170 c 128,-1,76
 504 1163 504 1163 504 1153 c 2,77,-1
 504 876 l 1,78,-1
 978 876 l 2,79,80
 988 876 988 876 995 869 c 128,-1,81
 1002 862 1002 862 1002 852 c 2,82,-1
 1002 708 l 2,83,84
 1002 698 1002 698 995 691 c 128,-1,85
 988 684 988 684 978 684 c 2,0,-1
EndSplineSet
EndChar

StartChar: u
Encoding: 117 117 88
Width: 1228
Flags: W
LayerCount: 2
Fore
SplineSet
1168 -24 m 2,0,-1
 850 -24 l 2,1,2
 840 -24 840 -24 833 -17 c 128,-1,3
 826 -10 826 -10 826 0 c 2,4,-1
 826 40.5979 l 1,5,6
 821.307 36.8484 821.307 36.8484 817.364 33.5627 c 0,7,8
 810.041 27.4604 810.041 27.4604 802.078 22.5602 c 0,9,10
 795.253 18.3599 795.253 18.3599 787.909 14.1622 c 2,11,-1
 773.999 6.21464 l 2,12,13
 723.305 -23.3576 723.305 -23.3576 667.684 -38.1896 c 128,-1,14
 612.145 -53 612.145 -53 553 -53 c 0,15,16
 510.098 -53 510.098 -53 473.722 -47.2007 c 0,17,18
 437.099 -41.3622 437.099 -41.3622 405.072 -30.1526 c 0,19,20
 372.652 -18.8057 372.652 -18.8057 345.968 -2.46843 c 0,21,22
 319.711 13.6076 319.711 13.6076 297.665 32.9654 c 0,23,24
 275.223 52.6707 275.223 52.6707 258.19 75.7475 c 0,25,26
 241.715 98.0692 241.715 98.0692 228.9 121.564 c 0,27,28
 213.665 149.857 213.665 149.857 204.955 179.796 c 0,29,30
 196.723 208.095 196.723 208.095 191.456 238.302 c 1,31,32
 186.132 262.136 186.132 262.136 184.547 287.503 c 0,33,34
 183 312.251 183 312.251 183 339 c 2,35,-1
 183 713 l 1,36,-1
 39 713 l 2,37,38
 29 713 29 713 22 720 c 128,-1,39
 15 727 15 727 15 737 c 2,40,-1
 15 881 l 2,41,42
 15 891 15 891 22 898 c 128,-1,43
 29 905 29 905 39 905 c 2,44,-1
 357 905 l 2,45,46
 367 905 367 905 374 898 c 128,-1,47
 381 891 381 891 381 881 c 2,48,-1
 381 319 l 2,49,50
 381 275.094 381 275.094 392.643 241.956 c 0,51,52
 403.917 209.866 403.917 209.866 424.313 188.621 c 128,-1,53
 444.592 167.498 444.592 167.498 473.571 156.417 c 0,54,55
 503.432 145 503.432 145 543 145 c 0,56,57
 683.49 145 683.49 145 826 283.072 c 1,58,-1
 826 713 l 1,59,-1
 673 713 l 2,60,61
 663 713 663 713 656 720 c 128,-1,62
 649 727 649 727 649 737 c 2,63,-1
 649 881 l 2,64,65
 649 891 649 891 656 898 c 128,-1,66
 663 905 663 905 673 905 c 2,67,-1
 1001 905 l 2,68,69
 1011 905 1011 905 1018 898 c 128,-1,70
 1025 891 1025 891 1025 881 c 2,71,-1
 1025 167 l 1,72,-1
 1168 167 l 2,73,74
 1178 167 1178 167 1185 160 c 128,-1,75
 1192 153 1192 153 1192 143 c 2,76,-1
 1192 0 l 2,77,78
 1192 -10 1192 -10 1185 -17 c 128,-1,79
 1178 -24 1178 -24 1168 -24 c 2,0,-1
EndSplineSet
EndChar

